<svg width="906" height="797" viewBox="0 0 906 797" fill="none" xmlns="http://www.w3.org/2000/svg">
<path d="M18.205 19.7675L15 10.5529H16.0321L19.0335 19.2278H18.5174L21.6138 10.5529H22.5373L25.5929 19.2278H25.104L28.1325 10.5529H29.0967L25.8917 19.7675H24.8324L21.9125 11.5402H22.1842L19.2507 19.7675H18.205ZM33.2204 19.8333C32.478 19.8333 31.8261 19.6841 31.2648 19.3857C30.7034 19.0786 30.2643 18.6617 29.9475 18.1352C29.6305 17.5998 29.4721 16.9899 29.4721 16.3054C29.4721 15.6209 29.6215 15.0154 29.9203 14.4888C30.2281 13.9623 30.6446 13.5498 31.1697 13.2514C31.7039 12.9443 32.3014 12.7907 32.9624 12.7907C33.6323 12.7907 34.2254 12.9399 34.7414 13.2383C35.2665 13.5279 35.6785 13.9403 35.9773 14.4757C36.276 15.0022 36.4254 15.6121 36.4254 16.3054C36.4254 16.3493 36.4208 16.3976 36.4118 16.4502C36.4118 16.4941 36.4118 16.5424 36.4118 16.595H30.2055V15.8973H35.8958L35.5155 16.1738C35.5155 15.6736 35.4023 15.2304 35.176 14.8442C34.9587 14.4493 34.6599 14.1422 34.2797 13.9228C33.8994 13.7034 33.4603 13.5937 32.9624 13.5937C32.4735 13.5937 32.0343 13.7034 31.645 13.9228C31.2557 14.1422 30.9524 14.4493 30.7351 14.8442C30.5178 15.2392 30.4092 15.6911 30.4092 16.2001V16.3449C30.4092 16.8715 30.5268 17.3365 30.7623 17.7403C31.0067 18.1352 31.3417 18.4467 31.7673 18.6749C32.2018 18.8943 32.6952 19.004 33.2476 19.004C33.6821 19.004 34.085 18.9294 34.4562 18.7802C34.8365 18.631 35.1624 18.4028 35.434 18.0957L35.9773 18.7012C35.6603 19.0698 35.262 19.3506 34.7822 19.5437C34.3113 19.7368 33.7908 19.8333 33.2204 19.8333ZM41.4165 19.8333C40.674 19.8333 40.0222 19.6841 39.4609 19.3857C38.8996 19.0786 38.4604 18.6617 38.1435 18.1352C37.8267 17.5998 37.6682 16.9899 37.6682 16.3054C37.6682 15.6209 37.8176 15.0154 38.1164 14.4888C38.4242 13.9623 38.8407 13.5498 39.3658 13.2514C39.8999 12.9443 40.4975 12.7907 41.1584 12.7907C41.8284 12.7907 42.4214 12.9399 42.9375 13.2383C43.4627 13.5279 43.8746 13.9403 44.1733 14.4757C44.4721 15.0022 44.6215 15.6121 44.6215 16.3054C44.6215 16.3493 44.617 16.3976 44.6079 16.4502C44.6079 16.4941 44.6079 16.5424 44.6079 16.595H38.4016V15.8973H44.0919L43.7116 16.1738C43.7116 15.6736 43.5985 15.2304 43.3721 14.8442C43.1548 14.4493 42.856 14.1422 42.4758 13.9228C42.0955 13.7034 41.6564 13.5937 41.1584 13.5937C40.6695 13.5937 40.2305 13.7034 39.8411 13.9228C39.4518 14.1422 39.1485 14.4493 38.9312 14.8442C38.7139 15.2392 38.6053 15.6911 38.6053 16.2001V16.3449C38.6053 16.8715 38.723 17.3365 38.9584 17.7403C39.2028 18.1352 39.5378 18.4467 39.9633 18.6749C40.3979 18.8943 40.8913 19.004 41.4436 19.004C41.8782 19.004 42.2811 18.9294 42.6523 18.7802C43.0326 18.631 43.3585 18.4028 43.6301 18.0957L44.1733 18.7012C43.8565 19.0698 43.4581 19.3506 42.9783 19.5437C42.5074 19.7368 41.9869 19.8333 41.4165 19.8333ZM47.3447 17.9772L47.3718 16.7793L51.8127 12.8565H52.9942L49.8571 15.7657L49.3139 16.2133L47.3447 17.9772ZM46.5842 19.7675V10H47.5484V19.7675H46.5842ZM52.1115 19.7675L49.1373 16.1738L49.762 15.4498L53.293 19.7675H52.1115Z" fill="#B1B1B1"/>
<path d="M174.679 19.7676V10.553H175.507L179.853 17.7404H179.418L183.723 10.553H184.552V19.7676H183.588V12.0142H183.818L179.853 18.596H179.378L175.385 12.0142H175.643V19.7676H174.679ZM190.352 19.8334C189.664 19.8334 189.044 19.6842 188.491 19.3858C187.948 19.0787 187.518 18.6618 187.201 18.1353C186.884 17.5999 186.726 16.99 186.726 16.3055C186.726 15.6122 186.884 15.0023 187.201 14.4758C187.518 13.9492 187.948 13.5368 188.491 13.2384C189.034 12.94 189.655 12.7908 190.352 12.7908C191.058 12.7908 191.683 12.94 192.226 13.2384C192.778 13.5368 193.209 13.9492 193.516 14.4758C193.833 15.0023 193.991 15.6122 193.991 16.3055C193.991 16.99 193.833 17.5999 193.516 18.1353C193.209 18.6618 192.778 19.0787 192.226 19.3858C191.674 19.6842 191.049 19.8334 190.352 19.8334ZM190.352 19.0041C190.868 19.0041 191.325 18.8944 191.723 18.675C192.122 18.4468 192.435 18.1309 192.66 17.7272C192.896 17.3148 193.013 16.8409 193.013 16.3055C193.013 15.7614 192.896 15.2875 192.66 14.8838C192.435 14.4802 192.122 14.1686 191.723 13.9492C191.325 13.721 190.873 13.607 190.365 13.607C189.858 13.607 189.406 13.721 189.007 13.9492C188.609 14.1686 188.292 14.4802 188.056 14.8838C187.821 15.2875 187.703 15.7614 187.703 16.3055C187.703 16.8409 187.821 17.3148 188.056 17.7272C188.292 18.1309 188.609 18.4468 189.007 18.675C189.406 18.8944 189.854 19.0041 190.352 19.0041ZM199.6 12.7908C200.179 12.7908 200.686 12.9005 201.121 13.1199C201.564 13.3305 201.909 13.6552 202.153 14.094C202.406 14.5328 202.533 15.0857 202.533 15.7526V19.7676H201.569V15.8448C201.569 15.1164 201.379 14.5679 200.999 14.1993C200.627 13.822 200.103 13.6333 199.423 13.6333C198.916 13.6333 198.473 13.7342 198.093 13.9361C197.721 14.1291 197.431 14.4143 197.223 14.7917C197.024 15.1603 196.925 15.6078 196.925 16.1344V19.7676H195.96V12.8566H196.884V14.7522L196.735 14.3968C196.96 13.8966 197.323 13.506 197.821 13.2252C198.318 12.9356 198.912 12.7908 199.6 12.7908Z" fill="#B1B1B1"/>
<path d="M326.256 19.7676V11.3955H322.916V10.553H330.602V11.3955H327.261V19.7676H326.256ZM334.765 19.8334C334.159 19.8334 333.629 19.7237 333.176 19.5043C332.723 19.2849 332.37 18.9558 332.116 18.517C331.872 18.0783 331.75 17.5297 331.75 16.8716V12.8566H332.714V16.7663C332.714 17.5034 332.9 18.0607 333.271 18.438C333.651 18.8066 334.181 18.9909 334.86 18.9909C335.358 18.9909 335.788 18.8944 336.15 18.7013C336.522 18.4995 336.802 18.2099 336.992 17.8325C337.191 17.4551 337.291 17.0032 337.291 16.4766V12.8566H338.255V19.7676H337.331V17.872L337.481 18.2143C337.255 18.7233 336.902 19.1226 336.421 19.4122C335.951 19.693 335.399 19.8334 334.765 19.8334ZM343.971 19.8334C343.229 19.8334 342.577 19.6842 342.015 19.3858C341.454 19.0787 341.015 18.6618 340.698 18.1353C340.381 17.5999 340.222 16.99 340.222 16.3055C340.222 15.621 340.372 15.0155 340.671 14.4889C340.979 13.9624 341.395 13.5499 341.92 13.2515C342.455 12.9444 343.052 12.7908 343.713 12.7908C344.383 12.7908 344.976 12.94 345.492 13.2384C346.017 13.528 346.429 13.9404 346.727 14.4758C347.026 15.0023 347.176 15.6122 347.176 16.3055C347.176 16.3494 347.171 16.3977 347.162 16.4503C347.162 16.4942 347.162 16.5425 347.162 16.5951H340.956V15.8974H346.646L346.266 16.1739C346.266 15.6737 346.153 15.2305 345.926 14.8443C345.709 14.4494 345.41 14.1423 345.03 13.9229C344.65 13.7035 344.211 13.5938 343.713 13.5938C343.224 13.5938 342.785 13.7035 342.395 13.9229C342.007 14.1423 341.703 14.4494 341.485 14.8443C341.268 15.2393 341.159 15.6912 341.159 16.2002V16.345C341.159 16.8716 341.277 17.3367 341.513 17.7404C341.757 18.1353 342.092 18.4468 342.517 18.675C342.952 18.8944 343.446 19.0041 343.998 19.0041C344.432 19.0041 344.836 18.9295 345.206 18.7803C345.587 18.6311 345.913 18.4029 346.184 18.0958L346.727 18.7013C346.411 19.0699 346.013 19.3507 345.532 19.5438C345.062 19.7369 344.541 19.8334 343.971 19.8334Z" fill="#B1B1B1"/>
<path d="M470.026 19.7675L466.821 10.5529H467.853L470.855 19.2278H470.339L473.435 10.5529H474.359L477.414 19.2278H476.925L479.954 10.5529H480.918L477.713 19.7675H476.654L473.734 11.5402H474.005L471.072 19.7675H470.026ZM485.041 19.8333C484.299 19.8333 483.647 19.6841 483.086 19.3857C482.525 19.0786 482.085 18.6617 481.768 18.1352C481.452 17.5998 481.293 16.9899 481.293 16.3054C481.293 15.6209 481.443 15.0154 481.741 14.4888C482.049 13.9623 482.465 13.5498 482.991 13.2514C483.525 12.9443 484.122 12.7907 484.783 12.7907C485.453 12.7907 486.046 12.9399 486.562 13.2383C487.088 13.5279 487.5 13.9403 487.798 14.4757C488.097 15.0022 488.246 15.6121 488.246 16.3054C488.246 16.3493 488.242 16.3976 488.233 16.4502C488.233 16.4941 488.233 16.5424 488.233 16.595H482.027V15.8973H487.717L487.337 16.1738C487.337 15.6736 487.224 15.2304 486.997 14.8442C486.78 14.4493 486.481 14.1422 486.101 13.9228C485.72 13.7034 485.282 13.5937 484.783 13.5937C484.294 13.5937 483.856 13.7034 483.466 13.9228C483.076 14.1422 482.773 14.4493 482.556 14.8442C482.339 15.2392 482.23 15.6911 482.23 16.2001V16.3449C482.23 16.8715 482.348 17.3365 482.583 17.7403C482.828 18.1352 483.163 18.4467 483.588 18.6749C484.023 18.8943 484.516 19.004 485.069 19.004C485.503 19.004 485.906 18.9294 486.277 18.7802C486.658 18.631 486.983 18.4028 487.255 18.0957L487.798 18.7012C487.482 19.0698 487.083 19.3506 486.603 19.5437C486.132 19.7368 485.612 19.8333 485.041 19.8333ZM493.047 19.8333C492.368 19.8333 491.757 19.6841 491.214 19.3857C490.68 19.0873 490.259 18.6749 489.951 18.1483C489.644 17.613 489.489 16.9987 489.489 16.3054C489.489 15.6034 489.644 14.989 489.951 14.4625C490.259 13.9359 490.68 13.5279 491.214 13.2383C491.757 12.9399 492.368 12.7907 493.047 12.7907C493.672 12.7907 494.229 12.9267 494.718 13.1988C495.216 13.4708 495.61 13.8701 495.899 14.3967C496.198 14.9144 496.347 15.5507 496.347 16.3054C496.347 17.0514 496.203 17.6876 495.913 18.2142C495.623 18.7407 495.229 19.1444 494.731 19.4252C494.242 19.6973 493.681 19.8333 493.047 19.8333ZM493.115 19.004C493.623 19.004 494.075 18.8943 494.473 18.6749C494.881 18.4467 495.198 18.1308 495.424 17.7271C495.66 17.3147 495.777 16.8408 495.777 16.3054C495.777 15.7613 495.66 15.2874 495.424 14.8837C495.198 14.48 494.881 14.1685 494.473 13.9491C494.075 13.7209 493.623 13.6069 493.115 13.6069C492.618 13.6069 492.17 13.7209 491.771 13.9491C491.373 14.1685 491.056 14.48 490.82 14.8837C490.585 15.2874 490.467 15.7613 490.467 16.3054C490.467 16.8408 490.585 17.3147 490.82 17.7271C491.056 18.1308 491.373 18.4467 491.771 18.6749C492.17 18.8943 492.618 19.004 493.115 19.004ZM495.804 19.7675V17.6876L495.899 16.2923L495.763 14.8969V10H496.728V19.7675H495.804Z" fill="#B1B1B1"/>
<path d="M619.404 19.7675V11.3954H616.063V10.5529H623.75V11.3954H620.409V19.7675H619.404ZM628.791 12.7907C629.371 12.7907 629.878 12.9004 630.313 13.1198C630.756 13.3304 631.1 13.6551 631.345 14.0939C631.598 14.5327 631.725 15.0856 631.725 15.7525V19.7675H630.761V15.8447C630.761 15.1163 630.571 14.5678 630.19 14.1992C629.819 13.8219 629.294 13.6332 628.615 13.6332C628.108 13.6332 627.664 13.7341 627.284 13.936C626.913 14.129 626.623 14.4142 626.415 14.7916C626.215 15.1602 626.116 15.6077 626.116 16.1343V19.7675H625.152V10H626.116V14.7521L625.926 14.3967C626.153 13.8965 626.514 13.5059 627.012 13.2251C627.511 12.9355 628.103 12.7907 628.791 12.7907ZM637.276 19.8333C636.67 19.8333 636.14 19.7236 635.687 19.5042C635.235 19.2848 634.882 18.9557 634.628 18.5169C634.383 18.0782 634.261 17.5296 634.261 16.8715V12.8565H635.225V16.7661C635.225 17.5033 635.411 18.0606 635.782 18.4379C636.162 18.8065 636.692 18.9908 637.371 18.9908C637.869 18.9908 638.3 18.8943 638.661 18.7012C639.033 18.4994 639.313 18.2098 639.503 17.8324C639.703 17.455 639.802 17.0031 639.802 16.4765V12.8565H640.766V19.7675H639.843V17.8719L639.992 18.2142C639.766 18.7232 639.413 19.1225 638.933 19.4121C638.463 19.6929 637.91 19.8333 637.276 19.8333Z" fill="#B1B1B1"/>
<path d="M769.643 15.0154H774.668V15.8579H769.643V15.0154ZM769.752 19.7675H768.747V10.5529H775.266V11.3954H769.752V19.7675ZM777.005 19.7675V12.8565H777.928V14.7389L777.833 14.4098C778.032 13.8833 778.367 13.484 778.838 13.2119C779.309 12.9311 779.893 12.7907 780.59 12.7907V13.699C780.554 13.699 780.517 13.699 780.482 13.699C780.445 13.6902 780.409 13.6858 780.373 13.6858C779.621 13.6858 779.033 13.9096 778.607 14.3572C778.181 14.796 777.969 15.4234 777.969 16.2396V19.7675H777.005ZM782.349 19.7675V12.8565H783.313V19.7675H782.349ZM782.838 11.3295C782.639 11.3295 782.471 11.2637 782.335 11.1321C782.2 11.0004 782.132 10.8425 782.132 10.6582C782.132 10.4739 782.2 10.3203 782.335 10.1975C782.471 10.0658 782.639 10 782.838 10C783.037 10 783.205 10.0614 783.34 10.1843C783.476 10.3072 783.544 10.4607 783.544 10.645C783.544 10.8381 783.476 11.0004 783.34 11.1321C783.214 11.2637 783.047 11.3295 782.838 11.3295Z" fill="#B1B1B1"/>
<path d="M19.2577 51.9331C18.5244 51.9331 17.8725 51.7488 17.3021 51.3802C16.7317 51.0028 16.2836 50.4676 15.9577 49.7743C15.6317 49.0722 15.4688 48.2297 15.4688 47.2468C15.4688 46.2639 15.6317 45.4259 15.9577 44.7326C16.2836 44.0305 16.7317 43.4952 17.3021 43.1266C17.8725 42.7492 18.5244 42.5605 19.2577 42.5605C19.9911 42.5605 20.643 42.7492 21.2134 43.1266C21.7837 43.4952 22.2319 44.0305 22.5578 44.7326C22.8929 45.4259 23.0603 46.2639 23.0603 47.2468C23.0603 48.2297 22.8929 49.0722 22.5578 49.7743C22.2319 50.4676 21.7837 51.0028 21.2134 51.3802C20.643 51.7488 19.9911 51.9331 19.2577 51.9331ZM19.2577 51.0643C19.8191 51.0643 20.308 50.9195 20.7245 50.6299C21.141 50.3315 21.4669 49.9015 21.7023 49.3399C21.9376 48.7695 22.0554 48.0718 22.0554 47.2468C22.0554 46.4219 21.9376 45.7286 21.7023 45.167C21.4669 44.5966 21.141 44.1665 20.7245 43.8769C20.308 43.5785 19.8191 43.4294 19.2577 43.4294C18.7145 43.4294 18.2301 43.5785 17.8046 43.8769C17.3791 44.1665 17.0486 44.5966 16.8132 45.167C16.5779 45.7286 16.4601 46.4219 16.4601 47.2468C16.4601 48.0718 16.5779 48.7695 16.8132 49.3399C17.0486 49.9015 17.3791 50.3315 17.8046 50.6299C18.2301 50.9195 18.7145 51.0643 19.2577 51.0643ZM28.0731 51.9331C27.3126 51.9331 26.6561 51.8278 26.1039 51.6172C25.5607 51.4066 25.1397 51.1038 24.8409 50.7089C24.5511 50.3052 24.4063 49.8313 24.4063 49.2872C24.4063 48.7607 24.5466 48.3131 24.8273 47.9445C25.117 47.5671 25.5335 47.2775 26.0768 47.0757C26.629 46.8739 27.2944 46.7729 28.0731 46.7729C28.8426 46.7729 29.5036 46.8739 30.0559 47.0757C30.6081 47.2775 31.0291 47.5671 31.3189 47.9445C31.6177 48.3131 31.7671 48.7607 31.7671 49.2872C31.7671 49.8313 31.6177 50.3052 31.3189 50.7089C31.0201 51.1038 30.5945 51.4066 30.0423 51.6172C29.49 51.8278 28.8336 51.9331 28.0731 51.9331ZM28.0731 51.1301C28.9151 51.1301 29.5715 50.9634 30.0423 50.6299C30.5221 50.2965 30.7621 49.8444 30.7621 49.274C30.7621 48.7036 30.5221 48.2561 30.0423 47.9313C29.5715 47.5979 28.9151 47.4311 28.0731 47.4311C27.2311 47.4311 26.5747 47.5979 26.1039 47.9313C25.6331 48.2561 25.3977 48.7036 25.3977 49.274C25.3977 49.8444 25.6331 50.2965 26.1039 50.6299C26.5747 50.9634 27.2311 51.1301 28.0731 51.1301ZM28.0731 47.3126C27.3669 47.3126 26.7648 47.2205 26.2669 47.0362C25.778 46.8519 25.4022 46.5886 25.1397 46.2464C24.8771 45.8953 24.7459 45.4785 24.7459 44.9958C24.7459 44.4868 24.8817 44.0524 25.1533 43.6926C25.4339 43.324 25.8232 43.0432 26.3212 42.8501C26.8191 42.6571 27.4031 42.5605 28.0731 42.5605C28.7431 42.5605 29.327 42.6571 29.825 42.8501C30.332 43.0432 30.7258 43.324 31.0065 43.6926C31.2871 44.0524 31.4275 44.4868 31.4275 44.9958C31.4275 45.4785 31.2962 45.8953 31.0337 46.2464C30.7711 46.5886 30.3863 46.8519 29.8793 47.0362C29.3814 47.2205 28.7793 47.3126 28.0731 47.3126ZM28.0731 46.6808C28.8155 46.6808 29.3949 46.5316 29.8114 46.2332C30.2279 45.9348 30.4361 45.5355 30.4361 45.0353C30.4361 44.5088 30.2189 44.1007 29.7843 43.8111C29.3587 43.5127 28.7883 43.3635 28.0731 43.3635C27.3578 43.3635 26.7875 43.5127 26.362 43.8111C25.9364 44.1007 25.7237 44.5044 25.7237 45.0222C25.7237 45.5312 25.9274 45.9348 26.3348 46.2332C26.7512 46.5316 27.3307 46.6808 28.0731 46.6808ZM33.8543 46.3122C33.6551 46.3122 33.4831 46.242 33.3382 46.1016C33.2024 45.9611 33.1345 45.79 33.1345 45.5882C33.1345 45.3776 33.2024 45.2065 33.3382 45.0748C33.4831 44.9432 33.6551 44.8774 33.8543 44.8774C34.0534 44.8774 34.221 44.9432 34.3568 45.0748C34.5016 45.2065 34.5741 45.3776 34.5741 45.5882C34.5741 45.79 34.5016 45.9611 34.3568 46.1016C34.221 46.242 34.0534 46.3122 33.8543 46.3122ZM33.8543 51.9199C33.6551 51.9199 33.4831 51.8498 33.3382 51.7093C33.2024 51.5689 33.1345 51.3978 33.1345 51.1959C33.1345 50.9853 33.2024 50.8142 33.3382 50.6826C33.4831 50.5509 33.6551 50.4851 33.8543 50.4851C34.0534 50.4851 34.221 50.5509 34.3568 50.6826C34.5016 50.8142 34.5741 50.9853 34.5741 51.1959C34.5741 51.3978 34.5016 51.5689 34.3568 51.7093C34.221 51.8498 34.0534 51.9199 33.8543 51.9199ZM39.7879 51.9331C39.0545 51.9331 38.4026 51.7488 37.8323 51.3802C37.2619 51.0028 36.8137 50.4676 36.4878 49.7743C36.1618 49.0722 35.9989 48.2297 35.9989 47.2468C35.9989 46.2639 36.1618 45.4259 36.4878 44.7326C36.8137 44.0305 37.2619 43.4952 37.8323 43.1266C38.4026 42.7492 39.0545 42.5605 39.7879 42.5605C40.5212 42.5605 41.1731 42.7492 41.7435 43.1266C42.3139 43.4952 42.762 44.0305 43.088 44.7326C43.423 45.4259 43.5904 46.2639 43.5904 47.2468C43.5904 48.2297 43.423 49.0722 43.088 49.7743C42.762 50.4676 42.3139 51.0028 41.7435 51.3802C41.1731 51.7488 40.5212 51.9331 39.7879 51.9331ZM39.7879 51.0643C40.3492 51.0643 40.8381 50.9195 41.2546 50.6299C41.6711 50.3315 41.997 49.9015 42.2324 49.3399C42.4678 48.7695 42.5855 48.0718 42.5855 47.2468C42.5855 46.4219 42.4678 45.7286 42.2324 45.167C41.997 44.5966 41.6711 44.1665 41.2546 43.8769C40.8381 43.5785 40.3492 43.4294 39.7879 43.4294C39.2446 43.4294 38.7602 43.5785 38.3347 43.8769C37.9092 44.1665 37.5787 44.5966 37.3434 45.167C37.108 45.7286 36.9903 46.4219 36.9903 47.2468C36.9903 48.0718 37.108 48.7695 37.3434 49.3399C37.5787 49.9015 37.9092 50.3315 38.3347 50.6299C38.7602 50.9195 39.2446 51.0643 39.7879 51.0643ZM48.7798 51.9331C48.0464 51.9331 47.3946 51.7488 46.8242 51.3802C46.2538 51.0028 45.8056 50.4676 45.4797 49.7743C45.1537 49.0722 44.9908 48.2297 44.9908 47.2468C44.9908 46.2639 45.1537 45.4259 45.4797 44.7326C45.8056 44.0305 46.2538 43.4952 46.8242 43.1266C47.3946 42.7492 48.0464 42.5605 48.7798 42.5605C49.5131 42.5605 50.165 42.7492 50.7354 43.1266C51.3058 43.4952 51.7539 44.0305 52.0799 44.7326C52.4148 45.4259 52.5824 46.2639 52.5824 47.2468C52.5824 48.2297 52.4148 49.0722 52.0799 49.7743C51.7539 50.4676 51.3058 51.0028 50.7354 51.3802C50.165 51.7488 49.5131 51.9331 48.7798 51.9331ZM48.7798 51.0643C49.3411 51.0643 49.83 50.9195 50.2465 50.6299C50.6629 50.3315 50.9888 49.9015 51.2243 49.3399C51.4597 48.7695 51.5774 48.0718 51.5774 47.2468C51.5774 46.4219 51.4597 45.7286 51.2243 45.167C50.9888 44.5966 50.6629 44.1665 50.2465 43.8769C49.83 43.5785 49.3411 43.4294 48.7798 43.4294C48.2366 43.4294 47.7522 43.5785 47.3267 43.8769C46.9011 44.1665 46.5706 44.5966 46.3353 45.167C46.0998 45.7286 45.9822 46.4219 45.9822 47.2468C45.9822 48.0718 46.0998 48.7695 46.3353 49.3399C46.5706 49.9015 46.9011 50.3315 47.3267 50.6299C47.7522 50.9195 48.2366 51.0643 48.7798 51.0643Z" fill="#B1B1B1"/>
<path d="M19.4501 103.656C18.7168 103.656 18.0649 103.471 17.4945 103.103C16.9241 102.725 16.476 102.19 16.15 101.497C15.8241 100.794 15.6611 99.9518 15.6611 98.9695C15.6611 97.9863 15.8241 97.148 16.15 96.4552C16.476 95.7526 16.9241 95.2178 17.4945 94.8492C18.0649 94.4716 18.7168 94.2832 19.4501 94.2832C20.1835 94.2832 20.8354 94.4716 21.4057 94.8492C21.9761 95.2178 22.4243 95.7526 22.7502 96.4552C23.0852 97.148 23.2527 97.9863 23.2527 98.9695C23.2527 99.9518 23.0852 100.794 22.7502 101.497C22.4243 102.19 21.9761 102.725 21.4057 103.103C20.8354 103.471 20.1835 103.656 19.4501 103.656ZM19.4501 102.787C20.0114 102.787 20.5003 102.642 20.9168 102.353C21.3333 102.054 21.6592 101.624 21.8946 101.063C22.13 100.492 22.2477 99.7939 22.2477 98.9695C22.2477 98.1443 22.13 97.4507 21.8946 96.8896C21.6592 96.3186 21.3333 95.8892 20.9168 95.5996C20.5003 95.3009 20.0114 95.152 19.4501 95.152C18.9069 95.152 18.4225 95.3009 17.997 95.5996C17.5714 95.8892 17.241 96.3186 17.0056 96.8896C16.7702 97.4507 16.6525 98.1443 16.6525 98.9695C16.6525 99.7939 16.7702 100.492 17.0056 101.063C17.241 101.624 17.5714 102.054 17.997 102.353C18.4225 102.642 18.9069 102.787 19.4501 102.787ZM27.6135 94.2832C28.4555 94.2832 29.1662 94.4675 29.7457 94.8361C30.3252 95.1956 30.7643 95.7181 31.063 96.4026C31.3618 97.0871 31.5112 97.9164 31.5112 98.8905C31.5112 99.9255 31.3256 100.799 30.9544 101.51C30.5922 102.221 30.0852 102.756 29.4334 103.116C28.7815 103.476 28.0255 103.656 27.1654 103.656C26.7399 103.656 26.3325 103.616 25.9431 103.537C25.5629 103.458 25.2189 103.331 24.911 103.156L25.3048 102.392C25.5493 102.55 25.83 102.664 26.1468 102.734C26.4728 102.795 26.8078 102.826 27.1518 102.826C28.1748 102.826 28.9897 102.511 29.5963 101.879C30.2119 101.247 30.5198 100.303 30.5198 99.0485C30.5198 98.8461 30.5062 98.605 30.4791 98.3245C30.461 98.0431 30.4112 97.7625 30.3297 97.482L30.6692 97.7321C30.5786 98.1879 30.384 98.5787 30.0852 98.9037C29.7955 99.2196 29.4334 99.4607 28.9988 99.6277C28.5733 99.7939 28.0979 99.8778 27.5728 99.8778C26.9481 99.8778 26.3913 99.7634 25.9024 99.5355C25.4226 99.3068 25.0468 98.9868 24.7752 98.5746C24.5036 98.1616 24.3678 97.6745 24.3678 97.1134C24.3678 96.5342 24.5081 96.034 24.7888 95.6127C25.0695 95.1915 25.4542 94.8665 25.9431 94.6386C26.4411 94.4017 26.9979 94.2832 27.6135 94.2832ZM27.6543 95.0862C27.2016 95.0862 26.7987 95.1693 26.4456 95.3363C26.1016 95.4943 25.83 95.7222 25.6308 96.0208C25.4316 96.3186 25.332 96.6741 25.332 97.0871C25.332 97.6926 25.5448 98.1747 25.9703 98.5351C26.4049 98.8946 26.9888 99.0748 27.7222 99.0748C28.2111 99.0748 28.6366 98.9868 28.9988 98.8115C29.3699 98.6355 29.6551 98.3944 29.8544 98.0875C30.0626 97.7798 30.1667 97.4376 30.1667 97.0607C30.1667 96.7185 30.0716 96.3976 29.8815 96.0998C29.6914 95.8011 29.4107 95.5601 29.0395 95.3758C28.6683 95.1825 28.2066 95.0862 27.6543 95.0862ZM33.662 98.0349C33.4628 98.0349 33.2908 97.9641 33.146 97.8242C33.0102 97.6836 32.9423 97.5124 32.9423 97.3109C32.9423 97.1002 33.0102 96.9291 33.146 96.7975C33.2908 96.6658 33.4628 96.6 33.662 96.6C33.8612 96.6 34.0287 96.6658 34.1645 96.7975C34.3094 96.9291 34.3818 97.1002 34.3818 97.3109C34.3818 97.5124 34.3094 97.6836 34.1645 97.8242C34.0287 97.9641 33.8612 98.0349 33.662 98.0349ZM33.662 103.643C33.4628 103.643 33.2908 103.572 33.146 103.432C33.0102 103.291 32.9423 103.12 32.9423 102.919C32.9423 102.708 33.0102 102.537 33.146 102.405C33.2908 102.274 33.4628 102.208 33.662 102.208C33.8612 102.208 34.0287 102.274 34.1645 102.405C34.3094 102.537 34.3818 102.708 34.3818 102.919C34.3818 103.12 34.3094 103.291 34.1645 103.432C34.0287 103.572 33.8612 103.643 33.662 103.643ZM39.5956 103.656C38.8622 103.656 38.2104 103.471 37.64 103.103C37.0696 102.725 36.6214 102.19 36.2955 101.497C35.9695 100.794 35.8066 99.9518 35.8066 98.9695C35.8066 97.9863 35.9695 97.148 36.2955 96.4552C36.6214 95.7526 37.0696 95.2178 37.64 94.8492C38.2104 94.4716 38.8622 94.2832 39.5956 94.2832C40.3289 94.2832 40.9808 94.4716 41.5512 94.8492C42.1216 95.2178 42.5697 95.7526 42.8957 96.4552C43.2307 97.148 43.3982 97.9863 43.3982 98.9695C43.3982 99.9518 43.2307 100.794 42.8957 101.497C42.5697 102.19 42.1216 102.725 41.5512 103.103C40.9808 103.471 40.3289 103.656 39.5956 103.656ZM39.5956 102.787C40.157 102.787 40.6459 102.642 41.0623 102.353C41.4788 102.054 41.8047 101.624 42.0401 101.063C42.2756 100.492 42.3932 99.7939 42.3932 98.9695C42.3932 98.1443 42.2756 97.4507 42.0401 96.8896C41.8047 96.3186 41.4788 95.8892 41.0623 95.5996C40.6459 95.3009 40.157 95.152 39.5956 95.152C39.0524 95.152 38.568 95.3009 38.1424 95.5996C37.7169 95.8892 37.3865 96.3186 37.1511 96.8896C36.9157 97.4507 36.798 98.1443 36.798 98.9695C36.798 99.7939 36.9157 100.492 37.1511 101.063C37.3865 101.624 37.7169 102.054 38.1424 102.353C38.568 102.642 39.0524 102.787 39.5956 102.787ZM48.5875 103.656C47.8541 103.656 47.2023 103.471 46.6319 103.103C46.0615 102.725 45.6133 102.19 45.2874 101.497C44.9615 100.794 44.7985 99.9518 44.7985 98.9695C44.7985 97.9863 44.9615 97.148 45.2874 96.4552C45.6133 95.7526 46.0615 95.2178 46.6319 94.8492C47.2023 94.4716 47.8541 94.2832 48.5875 94.2832C49.3208 94.2832 49.9727 94.4716 50.5431 94.8492C51.1135 95.2178 51.5617 95.7526 51.8876 96.4552C52.2226 97.148 52.3901 97.9863 52.3901 98.9695C52.3901 99.9518 52.2226 100.794 51.8876 101.497C51.5617 102.19 51.1135 102.725 50.5431 103.103C49.9727 103.471 49.3208 103.656 48.5875 103.656ZM48.5875 102.787C49.1488 102.787 49.6377 102.642 50.0542 102.353C50.4707 102.054 50.7966 101.624 51.032 101.063C51.2674 100.492 51.3851 99.7939 51.3851 98.9695C51.3851 98.1443 51.2674 97.4507 51.032 96.8896C50.7966 96.3186 50.4707 95.8892 50.0542 95.5996C49.6377 95.3009 49.1488 95.152 48.5875 95.152C48.0443 95.152 47.5599 95.3009 47.1344 95.5996C46.7089 95.8892 46.3783 96.3186 46.143 96.8896C45.9076 97.4507 45.7899 98.1443 45.7899 98.9695C45.7899 99.7939 45.9076 100.492 46.143 101.063C46.3783 101.624 46.7089 102.054 47.1344 102.353C47.5599 102.642 48.0443 102.787 48.5875 102.787Z" fill="#B1B1B1"/>
<path d="M19.0023 155.299V146.479L19.4369 146.926H16.7615V146.084H19.9801V155.299H19.0023ZM26.0416 155.378C25.3082 155.378 24.6563 155.193 24.0859 154.825C23.5156 154.448 23.0674 153.912 22.7415 153.219C22.4155 152.517 22.2526 151.674 22.2526 150.691C22.2526 149.709 22.4155 148.871 22.7415 148.177C23.0674 147.475 23.5156 146.94 24.0859 146.571C24.6563 146.194 25.3082 146.005 26.0416 146.005C26.7749 146.005 27.4268 146.194 27.9972 146.571C28.5676 146.94 29.0157 147.475 29.3417 148.177C29.6767 148.871 29.8441 149.709 29.8441 150.691C29.8441 151.674 29.6767 152.517 29.3417 153.219C29.0157 153.912 28.5676 154.448 27.9972 154.825C27.4268 155.193 26.7749 155.378 26.0416 155.378ZM26.0416 154.509C26.6029 154.509 27.0918 154.364 27.5083 154.074C27.9248 153.777 28.2507 153.346 28.4861 152.784C28.7214 152.214 28.8392 151.516 28.8392 150.691C28.8392 149.867 28.7214 149.173 28.4861 148.611C28.2507 148.041 27.9248 147.611 27.5083 147.321C27.0918 147.024 26.6029 146.874 26.0416 146.874C25.4983 146.874 25.0139 147.024 24.5884 147.321C24.1629 147.611 23.8324 148.041 23.597 148.611C23.3617 149.173 23.2439 149.867 23.2439 150.691C23.2439 151.516 23.3617 152.214 23.597 152.784C23.8324 153.346 24.1629 153.777 24.5884 154.074C25.0139 154.364 25.4983 154.509 26.0416 154.509ZM31.9777 149.757C31.7786 149.757 31.6066 149.687 31.4617 149.546C31.3259 149.406 31.258 149.235 31.258 149.033C31.258 148.822 31.3259 148.651 31.4617 148.519C31.6066 148.388 31.7786 148.322 31.9777 148.322C32.1769 148.322 32.3444 148.388 32.4802 148.519C32.6251 148.651 32.6975 148.822 32.6975 149.033C32.6975 149.235 32.6251 149.406 32.4802 149.546C32.3444 149.687 32.1769 149.757 31.9777 149.757ZM31.9777 155.364C31.7786 155.364 31.6066 155.294 31.4617 155.154C31.3259 155.014 31.258 154.843 31.258 154.64C31.258 154.43 31.3259 154.259 31.4617 154.127C31.6066 153.995 31.7786 153.93 31.9777 153.93C32.1769 153.93 32.3444 153.995 32.4802 154.127C32.6251 154.259 32.6975 154.43 32.6975 154.64C32.6975 154.843 32.6251 155.014 32.4802 155.154C32.3444 155.294 32.1769 155.364 31.9777 155.364ZM37.9114 155.378C37.178 155.378 36.5262 155.193 35.9558 154.825C35.3854 154.448 34.9372 153.912 34.6113 153.219C34.2853 152.517 34.1224 151.674 34.1224 150.691C34.1224 149.709 34.2853 148.871 34.6113 148.177C34.9372 147.475 35.3854 146.94 35.9558 146.571C36.5262 146.194 37.178 146.005 37.9114 146.005C38.6447 146.005 39.2966 146.194 39.867 146.571C40.4374 146.94 40.8855 147.475 41.2115 148.177C41.5464 148.871 41.714 149.709 41.714 150.691C41.714 151.674 41.5464 152.517 41.2115 153.219C40.8855 153.912 40.4374 154.448 39.867 154.825C39.2966 155.193 38.6447 155.378 37.9114 155.378ZM37.9114 154.509C38.4727 154.509 38.9616 154.364 39.3781 154.074C39.7945 153.777 40.1204 153.346 40.3559 152.784C40.5913 152.214 40.709 151.516 40.709 150.691C40.709 149.867 40.5913 149.173 40.3559 148.611C40.1204 148.041 39.7945 147.611 39.3781 147.321C38.9616 147.024 38.4727 146.874 37.9114 146.874C37.3682 146.874 36.8837 147.024 36.4582 147.321C36.0327 147.611 35.7022 148.041 35.4669 148.611C35.2314 149.173 35.1138 149.867 35.1138 150.691C35.1138 151.516 35.2314 152.214 35.4669 152.784C35.7022 153.346 36.0327 153.777 36.4582 154.074C36.8837 154.364 37.3682 154.509 37.9114 154.509ZM46.9032 155.378C46.1699 155.378 45.518 155.193 44.9476 154.825C44.3772 154.448 43.929 153.912 43.6031 153.219C43.2772 152.517 43.1142 151.674 43.1142 150.691C43.1142 149.709 43.2772 148.871 43.6031 148.177C43.929 147.475 44.3772 146.94 44.9476 146.571C45.518 146.194 46.1699 146.005 46.9032 146.005C47.6366 146.005 48.2884 146.194 48.8588 146.571C49.4292 146.94 49.8774 147.475 50.2033 148.177C50.5383 148.871 50.7058 149.709 50.7058 150.691C50.7058 151.674 50.5383 152.517 50.2033 153.219C49.8774 153.912 49.4292 154.448 48.8588 154.825C48.2884 155.193 47.6366 155.378 46.9032 155.378ZM46.9032 154.509C47.4645 154.509 47.9534 154.364 48.3699 154.074C48.7864 153.777 49.1124 153.346 49.3477 152.784C49.5831 152.214 49.7008 151.516 49.7008 150.691C49.7008 149.867 49.5831 149.173 49.3477 148.611C49.1124 148.041 48.7864 147.611 48.3699 147.321C47.9534 147.024 47.4645 146.874 46.9032 146.874C46.36 146.874 45.8756 147.024 45.4501 147.321C45.0246 147.611 44.6941 148.041 44.4587 148.611C44.2233 149.173 44.1056 149.867 44.1056 150.691C44.1056 151.516 44.2233 152.214 44.4587 152.784C44.6941 153.346 45.0246 153.777 45.4501 154.074C45.8756 154.364 46.36 154.509 46.9032 154.509Z" fill="#B1B1B1"/>
<path d="M21.0448 207.021V198.202L21.4793 198.649H18.804V197.807H22.0226V207.021H21.0448ZM25.9518 207.021V198.202L26.3864 198.649H23.711V197.807H26.9296V207.021H25.9518ZM29.9354 201.479C29.7362 201.479 29.5642 201.41 29.4194 201.269C29.2835 201.128 29.2156 200.957 29.2156 200.755C29.2156 200.545 29.2835 200.374 29.4194 200.242C29.5642 200.11 29.7362 200.045 29.9354 200.045C30.1346 200.045 30.3021 200.11 30.4379 200.242C30.5828 200.374 30.6552 200.545 30.6552 200.755C30.6552 200.957 30.5828 201.128 30.4379 201.269C30.3021 201.41 30.1346 201.479 29.9354 201.479ZM29.9354 207.087C29.7362 207.087 29.5642 207.017 29.4194 206.877C29.2835 206.736 29.2156 206.565 29.2156 206.363C29.2156 206.153 29.2835 205.981 29.4194 205.85C29.5642 205.718 29.7362 205.652 29.9354 205.652C30.1346 205.652 30.3021 205.718 30.4379 205.85C30.5828 205.981 30.6552 206.153 30.6552 206.363C30.6552 206.565 30.5828 206.736 30.4379 206.877C30.3021 207.017 30.1346 207.087 29.9354 207.087ZM35.869 207.1C35.1356 207.1 34.4837 206.916 33.9134 206.547C33.343 206.17 32.8948 205.635 32.5689 204.942C32.2429 204.24 32.08 203.397 32.08 202.414C32.08 201.431 32.2429 200.593 32.5689 199.9C32.8948 199.198 33.343 198.662 33.9134 198.294C34.4837 197.916 35.1356 197.728 35.869 197.728C36.6023 197.728 37.2542 197.916 37.8246 198.294C38.395 198.662 38.8431 199.198 39.1691 199.9C39.5041 200.593 39.6715 201.431 39.6715 202.414C39.6715 203.397 39.5041 204.24 39.1691 204.942C38.8431 205.635 38.395 206.17 37.8246 206.547C37.2542 206.916 36.6023 207.1 35.869 207.1ZM35.869 206.232C36.4303 206.232 36.9192 206.087 37.3357 205.797C37.7522 205.498 38.0781 205.069 38.3135 204.507C38.5489 203.937 38.6666 203.239 38.6666 202.414C38.6666 201.589 38.5489 200.896 38.3135 200.334C38.0781 199.764 37.7522 199.334 37.3357 199.044C36.9192 198.746 36.4303 198.597 35.869 198.597C35.3257 198.597 34.8413 198.746 34.4158 199.044C33.9903 199.334 33.6598 199.764 33.4245 200.334C33.1891 200.896 33.0714 201.589 33.0714 202.414C33.0714 203.239 33.1891 203.937 33.4245 204.507C33.6598 205.069 33.9903 205.498 34.4158 205.797C34.8413 206.087 35.3257 206.232 35.869 206.232ZM44.8609 207.1C44.1275 207.1 43.4757 206.916 42.9053 206.547C42.3349 206.17 41.8867 205.635 41.5608 204.942C41.2349 204.24 41.0719 203.397 41.0719 202.414C41.0719 201.431 41.2349 200.593 41.5608 199.9C41.8867 199.198 42.3349 198.662 42.9053 198.294C43.4757 197.916 44.1275 197.728 44.8609 197.728C45.5942 197.728 46.2461 197.916 46.8165 198.294C47.3869 198.662 47.835 199.198 48.161 199.9C48.4959 200.593 48.6635 201.431 48.6635 202.414C48.6635 203.397 48.4959 204.24 48.161 204.942C47.835 205.635 47.3869 206.17 46.8165 206.547C46.2461 206.916 45.5942 207.1 44.8609 207.1ZM44.8609 206.232C45.4222 206.232 45.9111 206.087 46.3276 205.797C46.744 205.498 47.0699 205.069 47.3054 204.507C47.5408 203.937 47.6585 203.239 47.6585 202.414C47.6585 201.589 47.5408 200.896 47.3054 200.334C47.0699 199.764 46.744 199.334 46.3276 199.044C45.9111 198.746 45.4222 198.597 44.8609 198.597C44.3177 198.597 43.8333 198.746 43.4078 199.044C42.9822 199.334 42.6517 199.764 42.4164 200.334C42.1809 200.896 42.0633 201.589 42.0633 202.414C42.0633 203.239 42.1809 203.937 42.4164 204.507C42.6517 205.069 42.9822 205.498 43.4078 205.797C43.8333 206.087 44.3177 206.232 44.8609 206.232Z" fill="#B1B1B1"/>
<path d="M19.6388 258.744V249.924L20.0733 250.372H17.3979V249.529H20.6166V258.744H19.6388ZM22.7125 258.744V258.073L26.6644 254.321C27.0266 253.979 27.2982 253.68 27.4793 253.426C27.6603 253.163 27.7826 252.917 27.846 252.689C27.9094 252.46 27.941 252.245 27.941 252.044C27.941 251.508 27.7509 251.087 27.3706 250.78C26.9995 250.472 26.4472 250.319 25.7138 250.319C25.1525 250.319 24.6545 250.402 24.2199 250.569C23.7944 250.736 23.4278 250.995 23.1199 251.346L22.4273 250.767C22.7985 250.346 23.2738 250.021 23.8533 249.793C24.4327 249.564 25.08 249.45 25.7953 249.45C26.4381 249.45 26.9949 249.551 27.4657 249.753C27.9365 249.946 28.2986 250.231 28.5522 250.609C28.8147 250.986 28.946 251.429 28.946 251.938C28.946 252.236 28.9008 252.531 28.8102 252.82C28.7287 253.11 28.5748 253.417 28.3484 253.742C28.1312 254.058 27.8097 254.417 27.3842 254.821L23.7582 258.27L23.4866 257.902H29.3806V258.744H22.7125ZM31.341 253.202C31.1419 253.202 30.9699 253.131 30.825 252.991C30.6892 252.851 30.6213 252.68 30.6213 252.478C30.6213 252.267 30.6892 252.096 30.825 251.965C30.9699 251.833 31.1419 251.767 31.341 251.767C31.5402 251.767 31.7077 251.833 31.8435 251.965C31.9884 252.096 32.0608 252.267 32.0608 252.478C32.0608 252.68 31.9884 252.851 31.8435 252.991C31.7077 253.131 31.5402 253.202 31.341 253.202ZM31.341 258.81C31.1419 258.81 30.9699 258.739 30.825 258.599C30.6892 258.459 30.6213 258.287 30.6213 258.086C30.6213 257.875 30.6892 257.704 30.825 257.572C30.9699 257.441 31.1419 257.375 31.341 257.375C31.5402 257.375 31.7077 257.441 31.8435 257.572C31.9884 257.704 32.0608 257.875 32.0608 258.086C32.0608 258.287 31.9884 258.459 31.8435 258.599C31.7077 258.739 31.5402 258.81 31.341 258.81ZM37.2747 258.823C36.5413 258.823 35.8894 258.639 35.3191 258.27C34.7487 257.892 34.3005 257.357 33.9746 256.664C33.6486 255.962 33.4857 255.119 33.4857 254.137C33.4857 253.154 33.6486 252.315 33.9746 251.622C34.3005 250.92 34.7487 250.385 35.3191 250.016C35.8894 249.639 36.5413 249.45 37.2747 249.45C38.008 249.45 38.6599 249.639 39.2303 250.016C39.8007 250.385 40.2488 250.92 40.5748 251.622C40.9097 252.315 41.0772 253.154 41.0772 254.137C41.0772 255.119 40.9097 255.962 40.5748 256.664C40.2488 257.357 39.8007 257.892 39.2303 258.27C38.6599 258.639 38.008 258.823 37.2747 258.823ZM37.2747 257.954C37.836 257.954 38.3249 257.809 38.7414 257.52C39.1578 257.221 39.4837 256.791 39.7192 256.23C39.9546 255.659 40.0723 254.961 40.0723 254.137C40.0723 253.312 39.9546 252.618 39.7192 252.057C39.4837 251.486 39.1578 251.056 38.7414 250.767C38.3249 250.468 37.836 250.319 37.2747 250.319C36.7314 250.319 36.247 250.468 35.8215 250.767C35.396 251.056 35.0655 251.486 34.8302 252.057C34.5947 252.618 34.4771 253.312 34.4771 254.137C34.4771 254.961 34.5947 255.659 34.8302 256.23C35.0655 256.791 35.396 257.221 35.8215 257.52C36.247 257.809 36.7314 257.954 37.2747 257.954ZM46.2665 258.823C45.5331 258.823 44.8813 258.639 44.3109 258.27C43.7405 257.892 43.2923 257.357 42.9664 256.664C42.6405 255.962 42.4775 255.119 42.4775 254.137C42.4775 253.154 42.6405 252.315 42.9664 251.622C43.2923 250.92 43.7405 250.385 44.3109 250.016C44.8813 249.639 45.5331 249.45 46.2665 249.45C46.9999 249.45 47.6517 249.639 48.2221 250.016C48.7925 250.385 49.2407 250.92 49.5666 251.622C49.9016 252.315 50.0691 253.154 50.0691 254.137C50.0691 255.119 49.9016 255.962 49.5666 256.664C49.2407 257.357 48.7925 257.892 48.2221 258.27C47.6517 258.639 46.9999 258.823 46.2665 258.823ZM46.2665 257.954C46.8278 257.954 47.3167 257.809 47.7332 257.52C48.1497 257.221 48.4756 256.791 48.711 256.23C48.9464 255.659 49.0641 254.961 49.0641 254.137C49.0641 253.312 48.9464 252.618 48.711 252.057C48.4756 251.486 48.1497 251.056 47.7332 250.767C47.3167 250.468 46.8278 250.319 46.2665 250.319C45.7233 250.319 45.2389 250.468 44.8134 250.767C44.3879 251.056 44.0574 251.486 43.822 252.057C43.5866 252.618 43.4689 253.312 43.4689 254.137C43.4689 254.961 43.5866 255.659 43.822 256.23C44.0574 256.791 44.3879 257.221 44.8134 257.52C45.2389 257.809 45.7233 257.954 46.2665 257.954Z" fill="#B1B1B1"/>
<path d="M19.6656 310.466V301.646L20.1002 302.094H17.4248V301.251H20.6434V310.466H19.6656ZM25.7542 310.545C25.0661 310.545 24.4143 310.44 23.7985 310.229C23.192 310.01 22.7031 309.721 22.3318 309.36L22.8072 308.61C23.115 308.918 23.5269 309.172 24.043 309.373C24.5681 309.576 25.1385 309.676 25.7542 309.676C26.5418 309.676 27.144 309.51 27.5604 309.176C27.986 308.843 28.1987 308.395 28.1987 307.833C28.1987 307.272 27.9905 306.825 27.574 306.491C27.1665 306.157 26.5193 305.99 25.6319 305.99H24.9529V305.293L27.8863 301.725L28.0221 302.094H22.7257V301.251H28.837V301.923L25.9035 305.49L25.4282 305.187H25.7949C26.9357 305.187 27.7868 305.433 28.3481 305.924C28.9184 306.416 29.2036 307.048 29.2036 307.82C29.2036 308.338 29.0769 308.803 28.8234 309.215C28.5699 309.628 28.1851 309.953 27.669 310.19C27.162 310.426 26.5238 310.545 25.7542 310.545ZM31.3148 304.924C31.1156 304.924 30.9437 304.854 30.7988 304.713C30.663 304.574 30.5951 304.402 30.5951 304.2C30.5951 303.989 30.663 303.818 30.7988 303.687C30.9437 303.555 31.1156 303.489 31.3148 303.489C31.514 303.489 31.6815 303.555 31.8173 303.687C31.9622 303.818 32.0346 303.989 32.0346 304.2C32.0346 304.402 31.9622 304.574 31.8173 304.713C31.6815 304.854 31.514 304.924 31.3148 304.924ZM31.3148 310.532C31.1156 310.532 30.9437 310.462 30.7988 310.321C30.663 310.181 30.5951 310.01 30.5951 309.808C30.5951 309.597 30.663 309.426 30.7988 309.294C30.9437 309.163 31.1156 309.097 31.3148 309.097C31.514 309.097 31.6815 309.163 31.8173 309.294C31.9622 309.426 32.0346 309.597 32.0346 309.808C32.0346 310.01 31.9622 310.181 31.8173 310.321C31.6815 310.462 31.514 310.532 31.3148 310.532ZM37.2484 310.545C36.515 310.545 35.8632 310.361 35.2928 309.992C34.7224 309.615 34.2742 309.08 33.9483 308.386C33.6224 307.684 33.4594 306.842 33.4594 305.859C33.4594 304.876 33.6224 304.038 33.9483 303.344C34.2742 302.643 34.7224 302.107 35.2928 301.738C35.8632 301.362 36.515 301.172 37.2484 301.172C37.9817 301.172 38.6336 301.362 39.204 301.738C39.7744 302.107 40.2225 302.643 40.5485 303.344C40.8835 304.038 41.051 304.876 41.051 305.859C41.051 306.842 40.8835 307.684 40.5485 308.386C40.2225 309.08 39.7744 309.615 39.204 309.992C38.6336 310.361 37.9817 310.545 37.2484 310.545ZM37.2484 309.676C37.8097 309.676 38.2986 309.531 38.7151 309.242C39.1316 308.944 39.4575 308.514 39.6929 307.952C39.9283 307.382 40.046 306.684 40.046 305.859C40.046 305.034 39.9283 304.341 39.6929 303.779C39.4575 303.209 39.1316 302.778 38.7151 302.489C38.2986 302.191 37.8097 302.041 37.2484 302.041C36.7052 302.041 36.2208 302.191 35.7953 302.489C35.3698 302.778 35.0392 303.209 34.8039 303.779C34.5685 304.341 34.4508 305.034 34.4508 305.859C34.4508 306.684 34.5685 307.382 34.8039 307.952C35.0392 308.514 35.3698 308.944 35.7953 309.242C36.2208 309.531 36.7052 309.676 37.2484 309.676ZM46.2403 310.545C45.5069 310.545 44.8551 310.361 44.2847 309.992C43.7143 309.615 43.2661 309.08 42.9402 308.386C42.6143 307.684 42.4513 306.842 42.4513 305.859C42.4513 304.876 42.6143 304.038 42.9402 303.344C43.2661 302.643 43.7143 302.107 44.2847 301.738C44.8551 301.362 45.5069 301.172 46.2403 301.172C46.9737 301.172 47.6255 301.362 48.1959 301.738C48.7663 302.107 49.2145 302.643 49.5404 303.344C49.8753 304.038 50.0429 304.876 50.0429 305.859C50.0429 306.842 49.8753 307.684 49.5404 308.386C49.2145 309.08 48.7663 309.615 48.1959 309.992C47.6255 310.361 46.9737 310.545 46.2403 310.545ZM46.2403 309.676C46.8016 309.676 47.2905 309.531 47.707 309.242C48.1234 308.944 48.4494 308.514 48.6848 307.952C48.9202 307.382 49.0379 306.684 49.0379 305.859C49.0379 305.034 48.9202 304.341 48.6848 303.779C48.4494 303.209 48.1234 302.778 47.707 302.489C47.2905 302.191 46.8016 302.041 46.2403 302.041C45.6971 302.041 45.2127 302.191 44.7872 302.489C44.3616 302.778 44.0312 303.209 43.7958 303.779C43.5603 304.341 43.4427 305.034 43.4427 305.859C43.4427 306.684 43.5603 307.382 43.7958 307.952C44.0312 308.514 44.3616 308.944 44.7872 309.242C45.2127 309.531 45.6971 309.676 46.2403 309.676Z" fill="#B1B1B1"/>
<path d="M18.9693 362.189V353.369L19.4039 353.816H16.7285V352.974H19.9471V362.189H18.9693ZM22.0565 359.766V359.082L27.095 352.974H28.1814L23.1837 359.082L22.6541 358.924H30.3V359.766H22.0565ZM27.4209 362.189V359.766L27.4481 358.924V356.791H28.3987V362.189H27.4209ZM32.0111 356.647C31.8119 356.647 31.6399 356.577 31.495 356.436C31.3592 356.295 31.2913 356.124 31.2913 355.923C31.2913 355.712 31.3592 355.541 31.495 355.409C31.6399 355.278 31.8119 355.212 32.0111 355.212C32.2103 355.212 32.3777 355.278 32.5136 355.409C32.6584 355.541 32.7308 355.712 32.7308 355.923C32.7308 356.124 32.6584 356.295 32.5136 356.436C32.3777 356.577 32.2103 356.647 32.0111 356.647ZM32.0111 362.254C31.8119 362.254 31.6399 362.184 31.495 362.044C31.3592 361.903 31.2913 361.732 31.2913 361.53C31.2913 361.32 31.3592 361.149 31.495 361.017C31.6399 360.885 31.8119 360.82 32.0111 360.82C32.2103 360.82 32.3777 360.885 32.5136 361.017C32.6584 361.149 32.7308 361.32 32.7308 361.53C32.7308 361.732 32.6584 361.903 32.5136 362.044C32.3777 362.184 32.2103 362.254 32.0111 362.254ZM37.9446 362.268C37.2113 362.268 36.5594 362.083 35.989 361.715C35.4186 361.337 34.9705 360.802 34.6445 360.109C34.3186 359.407 34.1556 358.564 34.1556 357.581C34.1556 356.598 34.3186 355.761 34.6445 355.067C34.9705 354.365 35.4186 353.83 35.989 353.461C36.5594 353.083 37.2113 352.895 37.9446 352.895C38.678 352.895 39.3299 353.083 39.9002 353.461C40.4706 353.83 40.9188 354.365 41.2447 355.067C41.5797 355.761 41.7472 356.598 41.7472 357.581C41.7472 358.564 41.5797 359.407 41.2447 360.109C40.9188 360.802 40.4706 361.337 39.9002 361.715C39.3299 362.083 38.678 362.268 37.9446 362.268ZM37.9446 361.399C38.506 361.399 38.9949 361.254 39.4113 360.964C39.8278 360.666 40.1538 360.236 40.3891 359.674C40.6246 359.104 40.7422 358.407 40.7422 357.581C40.7422 356.756 40.6246 356.063 40.3891 355.501C40.1538 354.931 39.8278 354.501 39.4113 354.211C38.9949 353.913 38.506 353.764 37.9446 353.764C37.4014 353.764 36.9171 353.913 36.4915 354.211C36.066 354.501 35.7356 354.931 35.5001 355.501C35.2647 356.063 35.147 356.756 35.147 357.581C35.147 358.407 35.2647 359.104 35.5001 359.674C35.7356 360.236 36.066 360.666 36.4915 360.964C36.9171 361.254 37.4014 361.399 37.9446 361.399ZM46.9365 362.268C46.2032 362.268 45.5513 362.083 44.9809 361.715C44.4105 361.337 43.9624 360.802 43.6364 360.109C43.3105 359.407 43.1475 358.564 43.1475 357.581C43.1475 356.598 43.3105 355.761 43.6364 355.067C43.9624 354.365 44.4105 353.83 44.9809 353.461C45.5513 353.083 46.2032 352.895 46.9365 352.895C47.6699 352.895 48.3218 353.083 48.8921 353.461C49.4625 353.83 49.9107 354.365 50.2366 355.067C50.5716 355.761 50.7391 356.598 50.7391 357.581C50.7391 358.564 50.5716 359.407 50.2366 360.109C49.9107 360.802 49.4625 361.337 48.8921 361.715C48.3218 362.083 47.6699 362.268 46.9365 362.268ZM46.9365 361.399C47.4978 361.399 47.9867 361.254 48.4032 360.964C48.8197 360.666 49.1456 360.236 49.3811 359.674C49.6164 359.104 49.7342 358.407 49.7342 357.581C49.7342 356.756 49.6164 356.063 49.3811 355.501C49.1456 354.931 48.8197 354.501 48.4032 354.211C47.9867 353.913 47.4978 353.764 46.9365 353.764C46.3933 353.764 45.9089 353.913 45.4834 354.211C45.0578 354.501 44.7274 354.931 44.492 355.501C44.2566 356.063 44.1389 356.756 44.1389 357.581C44.1389 358.407 44.2566 359.104 44.492 359.674C44.7274 360.236 45.0578 360.666 45.4834 360.964C45.9089 361.254 46.3933 361.399 46.9365 361.399Z" fill="#B1B1B1"/>
<path d="M19.6522 413.911V405.092L20.0868 405.539H17.4114V404.697H20.63V413.911H19.6522ZM25.9037 413.99C25.2247 413.99 24.5773 413.885 23.9617 413.674C23.346 413.455 22.8571 413.165 22.495 412.806L22.9703 412.055C23.269 412.362 23.6765 412.616 24.1925 412.819C24.7177 413.02 25.2835 413.121 25.8901 413.121C26.6959 413.121 27.307 412.95 27.7235 412.608C28.149 412.257 28.3618 411.8 28.3618 411.239C28.3618 410.844 28.2622 410.506 28.063 410.225C27.8729 409.936 27.547 409.712 27.0852 409.554C26.6235 409.396 25.9897 409.317 25.1839 409.317H23.1604L23.6493 404.697H28.8507V405.539H24.0431L24.5456 405.078L24.1246 408.949L23.6221 408.475H25.4012C26.3609 408.475 27.1305 408.588 27.7099 408.817C28.2894 409.045 28.7058 409.365 28.9593 409.778C29.2219 410.181 29.3532 410.655 29.3532 411.2C29.3532 411.717 29.2265 412.191 28.9729 412.621C28.7194 413.042 28.3391 413.376 27.8321 413.622C27.3252 413.867 26.6823 413.99 25.9037 413.99ZM31.3279 408.369C31.1287 408.369 30.9567 408.299 30.8118 408.159C30.676 408.018 30.6081 407.847 30.6081 407.645C30.6081 407.435 30.676 407.264 30.8118 407.132C30.9567 407 31.1287 406.934 31.3279 406.934C31.5271 406.934 31.6946 407 31.8304 407.132C31.9753 407.264 32.0477 407.435 32.0477 407.645C32.0477 407.847 31.9753 408.018 31.8304 408.159C31.6946 408.299 31.5271 408.369 31.3279 408.369ZM31.3279 413.977C31.1287 413.977 30.9567 413.906 30.8118 413.766C30.676 413.626 30.6081 413.455 30.6081 413.253C30.6081 413.042 30.676 412.871 30.8118 412.74C30.9567 412.608 31.1287 412.542 31.3279 412.542C31.5271 412.542 31.6946 412.608 31.8304 412.74C31.9753 412.871 32.0477 413.042 32.0477 413.253C32.0477 413.455 31.9753 413.626 31.8304 413.766C31.6946 413.906 31.5271 413.977 31.3279 413.977ZM37.2614 413.99C36.5281 413.99 35.8762 413.806 35.3058 413.437C34.7354 413.06 34.2873 412.524 33.9613 411.831C33.6354 411.129 33.4724 410.286 33.4724 409.304C33.4724 408.321 33.6354 407.482 33.9613 406.79C34.2873 406.087 34.7354 405.552 35.3058 405.184C35.8762 404.806 36.5281 404.618 37.2614 404.618C37.9948 404.618 38.6467 404.806 39.2171 405.184C39.7874 405.552 40.2356 406.087 40.5615 406.79C40.8966 407.482 41.064 408.321 41.064 409.304C41.064 410.286 40.8966 411.129 40.5615 411.831C40.2356 412.524 39.7874 413.06 39.2171 413.437C38.6467 413.806 37.9948 413.99 37.2614 413.99ZM37.2614 413.121C37.8228 413.121 38.3117 412.977 38.7282 412.687C39.1447 412.388 39.4706 411.958 39.706 411.397C39.9414 410.826 40.0591 410.128 40.0591 409.304C40.0591 408.479 39.9414 407.785 39.706 407.224C39.4706 406.653 39.1447 406.224 38.7282 405.934C38.3117 405.635 37.8228 405.486 37.2614 405.486C36.7182 405.486 36.2339 405.635 35.8083 405.934C35.3828 406.224 35.0524 406.653 34.8169 407.224C34.5816 407.785 34.4638 408.479 34.4638 409.304C34.4638 410.128 34.5816 410.826 34.8169 411.397C35.0524 411.958 35.3828 412.388 35.8083 412.687C36.2339 412.977 36.7182 413.121 37.2614 413.121ZM46.2534 413.99C45.52 413.99 44.8681 413.806 44.2977 413.437C43.7274 413.06 43.2792 412.524 42.9533 411.831C42.6273 411.129 42.4644 410.286 42.4644 409.304C42.4644 408.321 42.6273 407.482 42.9533 406.79C43.2792 406.087 43.7274 405.552 44.2977 405.184C44.8681 404.806 45.52 404.618 46.2534 404.618C46.9867 404.618 47.6386 404.806 48.209 405.184C48.7794 405.552 49.2275 406.087 49.5535 406.79C49.8885 407.482 50.0559 408.321 50.0559 409.304C50.0559 410.286 49.8885 411.129 49.5535 411.831C49.2275 412.524 48.7794 413.06 48.209 413.437C47.6386 413.806 46.9867 413.99 46.2534 413.99ZM46.2534 413.121C46.8147 413.121 47.3036 412.977 47.7201 412.687C48.1366 412.388 48.4625 411.958 48.6979 411.397C48.9332 410.826 49.051 410.128 49.051 409.304C49.051 408.479 48.9332 407.785 48.6979 407.224C48.4625 406.653 48.1366 406.224 47.7201 405.934C47.3036 405.635 46.8147 405.486 46.2534 405.486C45.7101 405.486 45.2257 405.635 44.8002 405.934C44.3747 406.224 44.0442 406.653 43.8088 407.224C43.5735 407.785 43.4557 408.479 43.4557 409.304C43.4557 410.128 43.5735 410.826 43.8088 411.397C44.0442 411.958 44.3747 412.388 44.8002 412.687C45.2257 412.977 45.7101 413.121 46.2534 413.121Z" fill="#B1B1B1"/>
<path d="M19.3604 465.633V456.813L19.795 457.261H17.1196V456.419H20.3382V465.633H19.3604ZM26.5084 465.712C25.6664 465.712 24.9556 465.533 24.3762 465.172C23.7967 464.804 23.3576 464.277 23.0589 463.593C22.7601 462.9 22.6107 462.071 22.6107 461.105C22.6107 460.061 22.7918 459.188 23.1539 458.485C23.5251 457.774 24.0367 457.24 24.6885 456.879C25.3404 456.52 26.0964 456.34 26.9565 456.34C27.382 456.34 27.7894 456.379 28.1788 456.458C28.568 456.537 28.9121 456.665 29.2109 456.84L28.8171 457.603C28.5726 457.445 28.2919 457.336 27.9751 457.274C27.6581 457.204 27.3232 457.169 26.9701 457.169C25.947 457.169 25.1276 457.485 24.512 458.117C23.9054 458.749 23.6021 459.692 23.6021 460.947C23.6021 461.14 23.6111 461.381 23.6293 461.671C23.6564 461.952 23.7107 462.233 23.7922 462.513L23.4527 462.263C23.5523 461.807 23.7469 461.421 24.0367 461.105C24.3264 460.781 24.6885 460.535 25.1231 460.368C25.5577 460.202 26.033 460.118 26.5491 460.118C27.1828 460.118 27.7396 460.232 28.2195 460.46C28.6993 460.689 29.0751 461.009 29.3467 461.421C29.6183 461.834 29.7541 462.321 29.7541 462.882C29.7541 463.453 29.6137 463.953 29.3331 464.383C29.0524 464.804 28.6631 465.133 28.1652 465.37C27.6763 465.599 27.124 465.712 26.5084 465.712ZM26.4676 464.909C26.9203 464.909 27.3186 464.83 27.6627 464.672C28.0158 464.506 28.2919 464.273 28.4911 463.975C28.6903 463.668 28.7899 463.312 28.7899 462.908C28.7899 462.303 28.5726 461.821 28.138 461.46C27.7124 461.101 27.1331 460.921 26.3997 460.921C25.9108 460.921 25.4852 461.009 25.1231 461.184C24.7609 461.36 24.4758 461.601 24.2675 461.908C24.0593 462.207 23.9552 462.549 23.9552 462.935C23.9552 463.269 24.0503 463.589 24.2404 463.896C24.4305 464.194 24.7111 464.44 25.0824 464.633C25.4626 464.817 25.9244 464.909 26.4676 464.909ZM31.6198 460.091C31.4206 460.091 31.2485 460.021 31.1037 459.881C30.9679 459.741 30.9 459.57 30.9 459.367C30.9 459.157 30.9679 458.985 31.1037 458.854C31.2485 458.722 31.4206 458.656 31.6198 458.656C31.8189 458.656 31.9864 458.722 32.1223 458.854C32.2671 458.985 32.3395 459.157 32.3395 459.367C32.3395 459.57 32.2671 459.741 32.1223 459.881C31.9864 460.021 31.8189 460.091 31.6198 460.091ZM31.6198 465.699C31.4206 465.699 31.2485 465.629 31.1037 465.488C30.9679 465.349 30.9 465.177 30.9 464.975C30.9 464.764 30.9679 464.593 31.1037 464.462C31.2485 464.33 31.4206 464.264 31.6198 464.264C31.8189 464.264 31.9864 464.33 32.1223 464.462C32.2671 464.593 32.3395 464.764 32.3395 464.975C32.3395 465.177 32.2671 465.349 32.1223 465.488C31.9864 465.629 31.8189 465.699 31.6198 465.699ZM37.5533 465.712C36.82 465.712 36.1681 465.528 35.5977 465.159C35.0273 464.782 34.5792 464.247 34.2532 463.553C33.9273 462.852 33.7643 462.009 33.7643 461.026C33.7643 460.044 33.9273 459.205 34.2532 458.512C34.5792 457.81 35.0273 457.274 35.5977 456.906C36.1681 456.529 36.82 456.34 37.5533 456.34C38.2867 456.34 38.9385 456.529 39.5089 456.906C40.0793 457.274 40.5275 457.81 40.8534 458.512C41.1884 459.205 41.3559 460.044 41.3559 461.026C41.3559 462.009 41.1884 462.852 40.8534 463.553C40.5275 464.247 40.0793 464.782 39.5089 465.159C38.9385 465.528 38.2867 465.712 37.5533 465.712ZM37.5533 464.843C38.1146 464.843 38.6035 464.699 39.02 464.409C39.4365 464.111 39.7625 463.681 39.9978 463.119C40.2332 462.549 40.3509 461.851 40.3509 461.026C40.3509 460.201 40.2332 459.508 39.9978 458.946C39.7625 458.376 39.4365 457.946 39.02 457.656C38.6035 457.358 38.1146 457.208 37.5533 457.208C37.0101 457.208 36.5257 457.358 36.1002 457.656C35.6747 457.946 35.3442 458.376 35.1088 458.946C34.8734 459.508 34.7557 460.201 34.7557 461.026C34.7557 461.851 34.8734 462.549 35.1088 463.119C35.3442 463.681 35.6747 464.111 36.1002 464.409C36.5257 464.699 37.0101 464.843 37.5533 464.843ZM46.5452 465.712C45.8118 465.712 45.1599 465.528 44.5895 465.159C44.0192 464.782 43.571 464.247 43.2451 463.553C42.9191 462.852 42.7562 462.009 42.7562 461.026C42.7562 460.044 42.9191 459.205 43.2451 458.512C43.571 457.81 44.0192 457.274 44.5895 456.906C45.1599 456.529 45.8118 456.34 46.5452 456.34C47.2785 456.34 47.9304 456.529 48.5008 456.906C49.0711 457.274 49.5193 457.81 49.8452 458.512C50.1803 459.205 50.3477 460.044 50.3477 461.026C50.3477 462.009 50.1803 462.852 49.8452 463.553C49.5193 464.247 49.0711 464.782 48.5008 465.159C47.9304 465.528 47.2785 465.712 46.5452 465.712ZM46.5452 464.843C47.1065 464.843 47.5954 464.699 48.0119 464.409C48.4284 464.111 48.7543 463.681 48.9897 463.119C49.2251 462.549 49.3428 461.851 49.3428 461.026C49.3428 460.201 49.2251 459.508 48.9897 458.946C48.7543 458.376 48.4284 457.946 48.0119 457.656C47.5954 457.358 47.1065 457.208 46.5452 457.208C46.0019 457.208 45.5176 457.358 45.092 457.656C44.6665 457.946 44.3361 458.376 44.1006 458.946C43.8653 459.508 43.7475 460.201 43.7475 461.026C43.7475 461.851 43.8653 462.549 44.1006 463.119C44.3361 463.681 44.6665 464.111 45.092 464.409C45.5176 464.699 46.0019 464.843 46.5452 464.843Z" fill="#B1B1B1"/>
<path d="M19.6324 517.356V508.536L20.067 508.984H17.3916V508.141H20.6102V517.356H19.6324ZM24.5531 517.356L28.6545 508.563L28.9532 508.984H23.0728L23.5753 508.523V510.708H22.6111V508.141H29.5915V508.813L25.6124 517.356H24.5531ZM31.348 511.814C31.1488 511.814 30.9767 511.744 30.8319 511.603C30.6961 511.463 30.6282 511.292 30.6282 511.09C30.6282 510.879 30.6961 510.708 30.8319 510.577C30.9767 510.445 31.1488 510.379 31.348 510.379C31.5471 510.379 31.7147 510.445 31.8505 510.577C31.9953 510.708 32.0678 510.879 32.0678 511.09C32.0678 511.292 31.9953 511.463 31.8505 511.603C31.7147 511.744 31.5471 511.814 31.348 511.814ZM31.348 517.422C31.1488 517.422 30.9767 517.352 30.8319 517.211C30.6961 517.07 30.6282 516.899 30.6282 516.698C30.6282 516.487 30.6961 516.316 30.8319 516.184C30.9767 516.053 31.1488 515.987 31.348 515.987C31.5471 515.987 31.7147 516.053 31.8505 516.184C31.9953 516.316 32.0678 516.487 32.0678 516.698C32.0678 516.899 31.9953 517.07 31.8505 517.211C31.7147 517.352 31.5471 517.422 31.348 517.422ZM37.2816 517.435C36.5482 517.435 35.8963 517.251 35.3259 516.882C34.7556 516.504 34.3074 515.97 33.9815 515.276C33.6555 514.574 33.4926 513.732 33.4926 512.749C33.4926 511.765 33.6555 510.928 33.9815 510.234C34.3074 509.533 34.7556 508.997 35.3259 508.628C35.8963 508.251 36.5482 508.062 37.2816 508.062C38.0149 508.062 38.6668 508.251 39.2372 508.628C39.8076 508.997 40.2557 509.533 40.5817 510.234C40.9166 510.928 41.0841 511.765 41.0841 512.749C41.0841 513.732 40.9166 514.574 40.5817 515.276C40.2557 515.97 39.8076 516.504 39.2372 516.882C38.6668 517.251 38.0149 517.435 37.2816 517.435ZM37.2816 516.566C37.8429 516.566 38.3318 516.421 38.7483 516.132C39.1647 515.833 39.4906 515.404 39.7261 514.842C39.9614 514.271 40.0792 513.574 40.0792 512.749C40.0792 511.923 39.9614 511.231 39.7261 510.669C39.4906 510.099 39.1647 509.668 38.7483 509.379C38.3318 509.08 37.8429 508.931 37.2816 508.931C36.7383 508.931 36.2539 509.08 35.8284 509.379C35.4028 509.668 35.0724 510.099 34.837 510.669C34.6016 511.231 34.4839 511.923 34.4839 512.749C34.4839 513.574 34.6016 514.271 34.837 514.842C35.0724 515.404 35.4028 515.833 35.8284 516.132C36.2539 516.421 36.7383 516.566 37.2816 516.566ZM46.2734 517.435C45.54 517.435 44.8882 517.251 44.3178 516.882C43.7474 516.504 43.2992 515.97 42.9733 515.276C42.6474 514.574 42.4844 513.732 42.4844 512.749C42.4844 511.765 42.6474 510.928 42.9733 510.234C43.2992 509.533 43.7474 508.997 44.3178 508.628C44.8882 508.251 45.54 508.062 46.2734 508.062C47.0067 508.062 47.6586 508.251 48.229 508.628C48.7994 508.997 49.2475 509.533 49.5735 510.234C49.9085 510.928 50.076 511.765 50.076 512.749C50.076 513.732 49.9085 514.574 49.5735 515.276C49.2475 515.97 48.7994 516.504 48.229 516.882C47.6586 517.251 47.0067 517.435 46.2734 517.435ZM46.2734 516.566C46.8348 516.566 47.3237 516.421 47.7401 516.132C48.1566 515.833 48.4825 515.404 48.7179 514.842C48.9534 514.271 49.071 513.574 49.071 512.749C49.071 511.923 48.9534 511.231 48.7179 510.669C48.4825 510.099 48.1566 509.668 47.7401 509.379C47.3237 509.08 46.8348 508.931 46.2734 508.931C45.7302 508.931 45.2458 509.08 44.8203 509.379C44.3948 509.668 44.0643 510.099 43.8289 510.669C43.5935 511.231 43.4758 511.923 43.4758 512.749C43.4758 513.574 43.5935 514.271 43.8289 514.842C44.0643 515.404 44.3948 515.833 44.8203 516.132C45.2458 516.421 45.7302 516.566 46.2734 516.566Z" fill="#B1B1B1"/>
<path d="M19.1681 569.079V560.259L19.6026 560.706H16.9272V559.864H20.1459V569.079H19.1681ZM26.0307 569.157C25.2702 569.157 24.6138 569.052 24.0615 568.842C23.5183 568.631 23.0973 568.328 22.7985 567.933C22.5088 567.529 22.3639 567.055 22.3639 566.512C22.3639 565.985 22.5042 565.537 22.7849 565.169C23.0746 564.791 23.4911 564.502 24.0343 564.3C24.5866 564.098 25.2521 563.997 26.0307 563.997C26.8003 563.997 27.4612 564.098 28.0135 564.3C28.5658 564.502 28.9868 564.791 29.2765 565.169C29.5752 565.537 29.7246 565.985 29.7246 566.512C29.7246 567.055 29.5752 567.529 29.2765 567.933C28.9777 568.328 28.5522 568.631 27.9999 568.842C27.4476 569.052 26.7912 569.157 26.0307 569.157ZM26.0307 568.355C26.8727 568.355 27.5291 568.188 27.9999 567.854C28.4797 567.52 28.7197 567.069 28.7197 566.498C28.7197 565.927 28.4797 565.48 27.9999 565.156C27.5291 564.822 26.8727 564.656 26.0307 564.656C25.1887 564.656 24.5323 564.822 24.0615 565.156C23.5907 565.48 23.3553 565.927 23.3553 566.498C23.3553 567.069 23.5907 567.52 24.0615 567.854C24.5323 568.188 25.1887 568.355 26.0307 568.355ZM26.0307 564.537C25.3245 564.537 24.7224 564.445 24.2245 564.261C23.7356 564.076 23.3598 563.813 23.0973 563.471C22.8347 563.119 22.7034 562.702 22.7034 562.22C22.7034 561.711 22.8392 561.277 23.1109 560.917C23.3915 560.548 23.7808 560.267 24.2788 560.075C24.7768 559.881 25.3607 559.785 26.0307 559.785C26.7006 559.785 27.2846 559.881 27.7826 560.075C28.2896 560.267 28.6834 560.548 28.9641 560.917C29.2448 561.277 29.3851 561.711 29.3851 562.22C29.3851 562.702 29.2538 563.119 28.9913 563.471C28.7287 563.813 28.3439 564.076 27.8369 564.261C27.3389 564.445 26.7369 564.537 26.0307 564.537ZM26.0307 563.905C26.7731 563.905 27.3525 563.755 27.769 563.458C28.1855 563.159 28.3937 562.76 28.3937 562.26C28.3937 561.733 28.1764 561.325 27.7419 561.035C27.3164 560.737 26.746 560.588 26.0307 560.588C25.3154 560.588 24.745 560.737 24.3195 561.035C23.894 561.325 23.6812 561.728 23.6812 562.247C23.6812 562.755 23.885 563.159 24.2924 563.458C24.7089 563.755 25.2883 563.905 26.0307 563.905ZM31.8119 563.537C31.6128 563.537 31.4407 563.466 31.2958 563.326C31.16 563.185 31.0921 563.014 31.0921 562.813C31.0921 562.602 31.16 562.431 31.2958 562.299C31.4407 562.168 31.6128 562.102 31.8119 562.102C32.0111 562.102 32.1786 562.168 32.3144 562.299C32.4593 562.431 32.5317 562.602 32.5317 562.813C32.5317 563.014 32.4593 563.185 32.3144 563.326C32.1786 563.466 32.0111 563.537 31.8119 563.537ZM31.8119 569.144C31.6128 569.144 31.4407 569.074 31.2958 568.934C31.16 568.793 31.0921 568.622 31.0921 568.42C31.0921 568.21 31.16 568.039 31.2958 567.907C31.4407 567.775 31.6128 567.709 31.8119 567.709C32.0111 567.709 32.1786 567.775 32.3144 567.907C32.4593 568.039 32.5317 568.21 32.5317 568.42C32.5317 568.622 32.4593 568.793 32.3144 568.934C32.1786 569.074 32.0111 569.144 31.8119 569.144ZM37.7455 569.157C37.0122 569.157 36.3603 568.973 35.7899 568.605C35.2195 568.227 34.7714 567.691 34.4454 566.999C34.1195 566.296 33.9565 565.454 33.9565 564.471C33.9565 563.488 34.1195 562.65 34.4454 561.957C34.7714 561.254 35.2195 560.72 35.7899 560.351C36.3603 559.973 37.0122 559.785 37.7455 559.785C38.4789 559.785 39.1308 559.973 39.7011 560.351C40.2715 560.72 40.7197 561.254 41.0456 561.957C41.3806 562.65 41.5481 563.488 41.5481 564.471C41.5481 565.454 41.3806 566.296 41.0456 566.999C40.7197 567.691 40.2715 568.227 39.7011 568.605C39.1308 568.973 38.4789 569.157 37.7455 569.157ZM37.7455 568.289C38.3068 568.289 38.7957 568.144 39.2122 567.854C39.6287 567.556 39.9546 567.125 40.19 566.564C40.4254 565.993 40.5431 565.296 40.5431 564.471C40.5431 563.646 40.4254 562.952 40.19 562.391C39.9546 561.82 39.6287 561.391 39.2122 561.101C38.7957 560.803 38.3068 560.654 37.7455 560.654C37.2023 560.654 36.7179 560.803 36.2924 561.101C35.8668 561.391 35.5364 561.82 35.301 562.391C35.0656 562.952 34.9479 563.646 34.9479 564.471C34.9479 565.296 35.0656 565.993 35.301 566.564C35.5364 567.125 35.8668 567.556 36.2924 567.854C36.7179 568.144 37.2023 568.289 37.7455 568.289ZM46.7374 569.157C46.004 569.157 45.3521 568.973 44.7817 568.605C44.2114 568.227 43.7632 567.691 43.4373 566.999C43.1113 566.296 42.9484 565.454 42.9484 564.471C42.9484 563.488 43.1113 562.65 43.4373 561.957C43.7632 561.254 44.2114 560.72 44.7817 560.351C45.3521 559.973 46.004 559.785 46.7374 559.785C47.4707 559.785 48.1226 559.973 48.693 560.351C49.2634 560.72 49.7115 561.254 50.0374 561.957C50.3725 562.65 50.5399 563.488 50.5399 564.471C50.5399 565.454 50.3725 566.296 50.0374 566.999C49.7115 567.691 49.2634 568.227 48.693 568.605C48.1226 568.973 47.4707 569.157 46.7374 569.157ZM46.7374 568.289C47.2987 568.289 47.7876 568.144 48.2041 567.854C48.6206 567.556 48.9465 567.125 49.1819 566.564C49.4172 565.993 49.535 565.296 49.535 564.471C49.535 563.646 49.4172 562.952 49.1819 562.391C48.9465 561.82 48.6206 561.391 48.2041 561.101C47.7876 560.803 47.2987 560.654 46.7374 560.654C46.1941 560.654 45.7097 560.803 45.2842 561.101C44.8587 561.391 44.5282 561.82 44.2928 562.391C44.0575 562.952 43.9397 563.646 43.9397 564.471C43.9397 565.296 44.0575 565.993 44.2928 566.564C44.5282 567.125 44.8587 567.556 45.2842 567.854C45.7097 568.144 46.1941 568.289 46.7374 568.289Z" fill="#B1B1B1"/>
<path d="M19.3604 620.8V611.981L19.795 612.428H17.1196V611.586H20.3382V620.8H19.3604ZM25.5713 611.507C26.4133 611.507 27.124 611.691 27.7035 612.06C28.2828 612.42 28.722 612.942 29.0208 613.626C29.3195 614.311 29.4689 615.14 29.4689 616.114C29.4689 617.15 29.2833 618.023 28.9121 618.734C28.5499 619.445 28.043 619.98 27.3911 620.34C26.7392 620.7 25.9832 620.879 25.1231 620.879C24.6975 620.879 24.2901 620.84 23.9009 620.761C23.5206 620.682 23.1765 620.555 22.8687 620.379L23.2626 619.616C23.507 619.774 23.7876 619.888 24.1046 619.958C24.4305 620.02 24.7654 620.05 25.1095 620.05C26.1326 620.05 26.9474 619.734 27.5541 619.102C28.1697 618.47 28.4775 617.528 28.4775 616.272C28.4775 616.071 28.464 615.829 28.4368 615.548C28.4186 615.268 28.3689 614.987 28.2874 614.706L28.6269 614.956C28.5364 615.412 28.3417 615.803 28.043 616.127C27.7532 616.443 27.3911 616.685 26.9565 616.851C26.5309 617.018 26.0556 617.101 25.5305 617.101C24.9058 617.101 24.349 616.988 23.8601 616.759C23.3802 616.531 23.0045 616.211 22.7329 615.798C22.4613 615.386 22.3255 614.899 22.3255 614.337C22.3255 613.758 22.4658 613.258 22.7465 612.836C23.0271 612.415 23.412 612.091 23.9009 611.862C24.3988 611.625 24.9556 611.507 25.5713 611.507ZM25.612 612.31C25.1593 612.31 24.7565 612.394 24.4034 612.56C24.0593 612.718 23.7876 612.947 23.5885 613.244C23.3893 613.543 23.2897 613.899 23.2897 614.311C23.2897 614.916 23.5024 615.399 23.928 615.759C24.3626 616.119 24.9466 616.298 25.6799 616.298C26.1688 616.298 26.5943 616.211 26.9565 616.035C27.3277 615.86 27.6129 615.619 27.8121 615.311C28.0203 615.004 28.1245 614.662 28.1245 614.284C28.1245 613.942 28.0294 613.622 27.8393 613.323C27.6491 613.026 27.3684 612.784 26.9973 612.599C26.626 612.407 26.1643 612.31 25.612 612.31ZM31.6198 615.258C31.4206 615.258 31.2485 615.189 31.1037 615.048C30.9679 614.908 30.9 614.737 30.9 614.534C30.9 614.324 30.9679 614.153 31.1037 614.021C31.2485 613.889 31.4206 613.824 31.6198 613.824C31.8189 613.824 31.9864 613.889 32.1223 614.021C32.2671 614.153 32.3395 614.324 32.3395 614.534C32.3395 614.737 32.2671 614.908 32.1223 615.048C31.9864 615.189 31.8189 615.258 31.6198 615.258ZM31.6198 620.866C31.4206 620.866 31.2485 620.796 31.1037 620.656C30.9679 620.516 30.9 620.345 30.9 620.142C30.9 619.932 30.9679 619.76 31.1037 619.629C31.2485 619.497 31.4206 619.431 31.6198 619.431C31.8189 619.431 31.9864 619.497 32.1223 619.629C32.2671 619.76 32.3395 619.932 32.3395 620.142C32.3395 620.345 32.2671 620.516 32.1223 620.656C31.9864 620.796 31.8189 620.866 31.6198 620.866ZM37.5533 620.879C36.82 620.879 36.1681 620.695 35.5977 620.326C35.0273 619.95 34.5792 619.414 34.2532 618.721C33.9273 618.019 33.7643 617.176 33.7643 616.193C33.7643 615.211 33.9273 614.372 34.2532 613.679C34.5792 612.977 35.0273 612.441 35.5977 612.073C36.1681 611.696 36.82 611.507 37.5533 611.507C38.2867 611.507 38.9385 611.696 39.5089 612.073C40.0793 612.441 40.5275 612.977 40.8534 613.679C41.1884 614.372 41.3559 615.211 41.3559 616.193C41.3559 617.176 41.1884 618.019 40.8534 618.721C40.5275 619.414 40.0793 619.95 39.5089 620.326C38.9385 620.695 38.2867 620.879 37.5533 620.879ZM37.5533 620.011C38.1146 620.011 38.6035 619.866 39.02 619.576C39.4365 619.278 39.7625 618.848 39.9978 618.286C40.2332 617.716 40.3509 617.018 40.3509 616.193C40.3509 615.369 40.2332 614.675 39.9978 614.113C39.7625 613.543 39.4365 613.113 39.02 612.823C38.6035 612.525 38.1146 612.376 37.5533 612.376C37.0101 612.376 36.5257 612.525 36.1002 612.823C35.6747 613.113 35.3442 613.543 35.1088 614.113C34.8734 614.675 34.7557 615.369 34.7557 616.193C34.7557 617.018 34.8734 617.716 35.1088 618.286C35.3442 618.848 35.6747 619.278 36.1002 619.576C36.5257 619.866 37.0101 620.011 37.5533 620.011ZM46.5452 620.879C45.8118 620.879 45.1599 620.695 44.5895 620.326C44.0192 619.95 43.571 619.414 43.2451 618.721C42.9191 618.019 42.7562 617.176 42.7562 616.193C42.7562 615.211 42.9191 614.372 43.2451 613.679C43.571 612.977 44.0192 612.441 44.5895 612.073C45.1599 611.696 45.8118 611.507 46.5452 611.507C47.2785 611.507 47.9304 611.696 48.5008 612.073C49.0711 612.441 49.5193 612.977 49.8452 613.679C50.1803 614.372 50.3477 615.211 50.3477 616.193C50.3477 617.176 50.1803 618.019 49.8452 618.721C49.5193 619.414 49.0711 619.95 48.5008 620.326C47.9304 620.695 47.2785 620.879 46.5452 620.879ZM46.5452 620.011C47.1065 620.011 47.5954 619.866 48.0119 619.576C48.4284 619.278 48.7543 618.848 48.9897 618.286C49.2251 617.716 49.3428 617.018 49.3428 616.193C49.3428 615.369 49.2251 614.675 48.9897 614.113C48.7543 613.543 48.4284 613.113 48.0119 612.823C47.5954 612.525 47.1065 612.376 46.5452 612.376C46.0019 612.376 45.5176 612.525 45.092 612.823C44.6665 613.113 44.3361 613.543 44.1006 614.113C43.8653 614.675 43.7475 615.369 43.7475 616.193C43.7475 617.018 43.8653 617.716 44.1006 618.286C44.3361 618.848 44.6665 619.278 45.092 619.576C45.5176 619.866 46.0019 620.011 46.5452 620.011Z" fill="#B1B1B1"/>
<path d="M15.7764 672.523V671.852L19.7284 668.1C20.0906 667.758 20.3622 667.459 20.5432 667.205C20.7243 666.942 20.8465 666.696 20.9099 666.468C20.9733 666.24 21.005 666.024 21.005 665.823C21.005 665.287 20.8148 664.866 20.4346 664.559C20.0634 664.252 19.5111 664.098 18.7777 664.098C18.2164 664.098 17.7184 664.181 17.2839 664.348C16.8584 664.515 16.4917 664.774 16.1838 665.125L15.4912 664.546C15.8624 664.125 16.3377 663.8 16.9172 663.572C17.4966 663.344 18.1439 663.229 18.8592 663.229C19.502 663.229 20.0588 663.331 20.5296 663.532C21.0005 663.726 21.3625 664.01 21.6161 664.388C21.8786 664.766 22.0099 665.208 22.0099 665.717C22.0099 666.016 21.9647 666.31 21.8741 666.599C21.7926 666.889 21.6387 667.196 21.4124 667.521C21.1951 667.837 20.8736 668.196 20.4481 668.6L16.8221 672.049L16.5505 671.681H22.4445V672.523H15.7764ZM27.4341 672.602C26.7008 672.602 26.0489 672.418 25.4785 672.049C24.9081 671.672 24.46 671.137 24.134 670.443C23.8081 669.741 23.6451 668.899 23.6451 667.916C23.6451 666.933 23.8081 666.095 24.134 665.402C24.46 664.7 24.9081 664.164 25.4785 663.796C26.0489 663.418 26.7008 663.229 27.4341 663.229C28.1675 663.229 28.8193 663.418 29.3897 663.796C29.9601 664.164 30.4083 664.7 30.7342 665.402C31.0692 666.095 31.2367 666.933 31.2367 667.916C31.2367 668.899 31.0692 669.741 30.7342 670.443C30.4083 671.137 29.9601 671.672 29.3897 672.049C28.8193 672.418 28.1675 672.602 27.4341 672.602ZM27.4341 671.733C27.9954 671.733 28.4843 671.588 28.9008 671.299C29.3173 671 29.6433 670.571 29.8786 670.009C30.114 669.439 30.2317 668.741 30.2317 667.916C30.2317 667.091 30.114 666.398 29.8786 665.836C29.6433 665.266 29.3173 664.835 28.9008 664.546C28.4843 664.247 27.9954 664.098 27.4341 664.098C26.8909 664.098 26.4065 664.247 25.981 664.546C25.5555 664.835 25.225 665.266 24.9896 665.836C24.7542 666.398 24.6365 667.091 24.6365 667.916C24.6365 668.741 24.7542 669.439 24.9896 670.009C25.225 670.571 25.5555 671 25.981 671.299C26.4065 671.588 26.8909 671.733 27.4341 671.733ZM33.3704 666.981C33.1712 666.981 32.9991 666.911 32.8543 666.771C32.7185 666.63 32.6506 666.459 32.6506 666.257C32.6506 666.047 32.7185 665.875 32.8543 665.744C32.9991 665.612 33.1712 665.546 33.3704 665.546C33.5695 665.546 33.7371 665.612 33.8729 665.744C34.0177 665.875 34.0902 666.047 34.0902 666.257C34.0902 666.459 34.0177 666.63 33.8729 666.771C33.7371 666.911 33.5695 666.981 33.3704 666.981ZM33.3704 672.589C33.1712 672.589 32.9991 672.519 32.8543 672.378C32.7185 672.238 32.6506 672.066 32.6506 671.865C32.6506 671.654 32.7185 671.483 32.8543 671.352C32.9991 671.22 33.1712 671.154 33.3704 671.154C33.5695 671.154 33.7371 671.22 33.8729 671.352C34.0177 671.483 34.0902 671.654 34.0902 671.865C34.0902 672.066 34.0177 672.238 33.8729 672.378C33.7371 672.519 33.5695 672.589 33.3704 672.589ZM39.3039 672.602C38.5706 672.602 37.9187 672.418 37.3483 672.049C36.7779 671.672 36.3298 671.137 36.0038 670.443C35.6779 669.741 35.5149 668.899 35.5149 667.916C35.5149 666.933 35.6779 666.095 36.0038 665.402C36.3298 664.7 36.7779 664.164 37.3483 663.796C37.9187 663.418 38.5706 663.229 39.3039 663.229C40.0373 663.229 40.6892 663.418 41.2596 663.796C41.8299 664.164 42.2781 664.7 42.604 665.402C42.9391 666.095 43.1065 666.933 43.1065 667.916C43.1065 668.899 42.9391 669.741 42.604 670.443C42.2781 671.137 41.8299 671.672 41.2596 672.049C40.6892 672.418 40.0373 672.602 39.3039 672.602ZM39.3039 671.733C39.8652 671.733 40.3542 671.588 40.7707 671.299C41.1872 671 41.5131 670.571 41.7485 670.009C41.9838 669.439 42.1016 668.741 42.1016 667.916C42.1016 667.091 41.9838 666.398 41.7485 665.836C41.5131 665.266 41.1872 664.835 40.7707 664.546C40.3542 664.247 39.8652 664.098 39.3039 664.098C38.7607 664.098 38.2763 664.247 37.8508 664.546C37.4253 664.835 37.0948 665.266 36.8594 665.836C36.6241 666.398 36.5063 667.091 36.5063 667.916C36.5063 668.741 36.6241 669.439 36.8594 670.009C37.0948 670.571 37.4253 671 37.8508 671.299C38.2763 671.588 38.7607 671.733 39.3039 671.733ZM48.2958 672.602C47.5624 672.602 46.9105 672.418 46.3402 672.049C45.7698 671.672 45.3216 671.137 44.9957 670.443C44.6697 669.741 44.5068 668.899 44.5068 667.916C44.5068 666.933 44.6697 666.095 44.9957 665.402C45.3216 664.7 45.7698 664.164 46.3402 663.796C46.9105 663.418 47.5624 663.229 48.2958 663.229C49.0291 663.229 49.681 663.418 50.2514 663.796C50.8218 664.164 51.2699 664.7 51.5959 665.402C51.9309 666.095 52.0984 666.933 52.0984 667.916C52.0984 668.899 51.9309 669.741 51.5959 670.443C51.2699 671.137 50.8218 671.672 50.2514 672.049C49.681 672.418 49.0291 672.602 48.2958 672.602ZM48.2958 671.733C48.8572 671.733 49.3461 671.588 49.7625 671.299C50.179 671 50.5049 670.571 50.7403 670.009C50.9757 669.439 51.0934 668.741 51.0934 667.916C51.0934 667.091 50.9757 666.398 50.7403 665.836C50.5049 665.266 50.179 664.835 49.7625 664.546C49.3461 664.247 48.8572 664.098 48.2958 664.098C47.7525 664.098 47.2682 664.247 46.8426 664.546C46.4171 664.835 46.0867 665.266 45.8513 665.836C45.6159 666.398 45.4982 667.091 45.4982 667.916C45.4982 668.741 45.6159 669.439 45.8513 670.009C46.0867 670.571 46.4171 671 46.8426 671.299C47.2682 671.588 47.7525 671.733 48.2958 671.733Z" fill="#B1B1B1"/>
<path d="M17.8055 724.246V723.574L21.7574 719.823C22.1196 719.481 22.3912 719.182 22.5723 718.928C22.7534 718.664 22.8756 718.418 22.9389 718.19C23.0023 717.963 23.034 717.747 23.034 717.545C23.034 717.01 22.8439 716.589 22.4636 716.282C22.0924 715.975 21.5401 715.821 20.8068 715.821C20.2455 715.821 19.7475 715.904 19.3129 716.071C18.8874 716.238 18.5207 716.496 18.2129 716.848L17.5203 716.269C17.8915 715.847 18.3668 715.522 18.9462 715.294C19.5257 715.067 20.1731 714.952 20.8883 714.952C21.5311 714.952 22.0879 715.053 22.5587 715.255C23.0295 715.448 23.3917 715.733 23.6451 716.111C23.9078 716.488 24.039 716.931 24.039 717.44C24.039 717.739 23.9937 718.033 23.9032 718.322C23.8217 718.612 23.6678 718.919 23.4414 719.244C23.2241 719.56 22.9028 719.919 22.4772 720.323L18.8512 723.772L18.5796 723.403H24.4736V724.246H17.8055ZM27.3576 724.246V715.426L27.7922 715.874H25.1168V715.031H28.3354V724.246H27.3576ZM31.3411 718.704C31.142 718.704 30.9699 718.634 30.8251 718.493C30.6892 718.353 30.6213 718.181 30.6213 717.98C30.6213 717.769 30.6892 717.598 30.8251 717.466C30.9699 717.335 31.142 717.269 31.3411 717.269C31.5403 717.269 31.7078 717.335 31.8436 717.466C31.9885 717.598 32.0609 717.769 32.0609 717.98C32.0609 718.181 31.9885 718.353 31.8436 718.493C31.7078 718.634 31.5403 718.704 31.3411 718.704ZM31.3411 724.312C31.142 724.312 30.9699 724.242 30.8251 724.101C30.6892 723.96 30.6213 723.789 30.6213 723.588C30.6213 723.377 30.6892 723.206 30.8251 723.074C30.9699 722.943 31.142 722.877 31.3411 722.877C31.5403 722.877 31.7078 722.943 31.8436 723.074C31.9885 723.206 32.0609 723.377 32.0609 723.588C32.0609 723.789 31.9885 723.96 31.8436 724.101C31.7078 724.242 31.5403 724.312 31.3411 724.312ZM37.2748 724.325C36.5414 724.325 35.8895 724.14 35.3191 723.772C34.7488 723.394 34.3006 722.859 33.9747 722.166C33.6487 721.464 33.4858 720.622 33.4858 719.638C33.4858 718.655 33.6487 717.818 33.9747 717.124C34.3006 716.422 34.7488 715.887 35.3191 715.518C35.8895 715.141 36.5414 714.952 37.2748 714.952C38.0081 714.952 38.66 715.141 39.2304 715.518C39.8008 715.887 40.2489 716.422 40.5748 717.124C40.9098 717.818 41.0773 718.655 41.0773 719.638C41.0773 720.622 40.9098 721.464 40.5748 722.166C40.2489 722.859 39.8008 723.394 39.2304 723.772C38.66 724.14 38.0081 724.325 37.2748 724.325ZM37.2748 723.456C37.8361 723.456 38.325 723.311 38.7415 723.022C39.1579 722.723 39.4838 722.293 39.7193 721.732C39.9546 721.161 40.0724 720.464 40.0724 719.638C40.0724 718.813 39.9546 718.121 39.7193 717.559C39.4838 716.988 39.1579 716.558 38.7415 716.269C38.325 715.97 37.8361 715.821 37.2748 715.821C36.7315 715.821 36.2471 715.97 35.8216 716.269C35.396 716.558 35.0656 716.988 34.8302 717.559C34.5948 718.121 34.4771 718.813 34.4771 719.638C34.4771 720.464 34.5948 721.161 34.8302 721.732C35.0656 722.293 35.396 722.723 35.8216 723.022C36.2471 723.311 36.7315 723.456 37.2748 723.456ZM46.2666 724.325C45.5332 724.325 44.8814 724.14 44.311 723.772C43.7406 723.394 43.2924 722.859 42.9665 722.166C42.6405 721.464 42.4776 720.622 42.4776 719.638C42.4776 718.655 42.6405 717.818 42.9665 717.124C43.2924 716.422 43.7406 715.887 44.311 715.518C44.8814 715.141 45.5332 714.952 46.2666 714.952C46.9999 714.952 47.6518 715.141 48.2222 715.518C48.7926 715.887 49.2407 716.422 49.5667 717.124C49.9017 717.818 50.0692 718.655 50.0692 719.638C50.0692 720.622 49.9017 721.464 49.5667 722.166C49.2407 722.859 48.7926 723.394 48.2222 723.772C47.6518 724.14 46.9999 724.325 46.2666 724.325ZM46.2666 723.456C46.8279 723.456 47.3168 723.311 47.7333 723.022C48.1498 722.723 48.4757 722.293 48.7111 721.732C48.9465 721.161 49.0642 720.464 49.0642 719.638C49.0642 718.813 48.9465 718.121 48.7111 717.559C48.4757 716.988 48.1498 716.558 47.7333 716.269C47.3168 715.97 46.8279 715.821 46.2666 715.821C45.7234 715.821 45.239 715.97 44.8135 716.269C44.388 716.558 44.0574 716.988 43.8221 717.559C43.5867 718.121 43.469 718.813 43.469 719.638C43.469 720.464 43.5867 721.161 43.8221 721.732C44.0574 722.293 44.388 722.723 44.8135 723.022C45.239 723.311 45.7234 723.456 46.2666 723.456Z" fill="#B1B1B1"/>
<path d="M16.3997 775.968V775.297L20.3517 771.545C20.7138 771.203 20.9855 770.905 21.1665 770.65C21.3476 770.387 21.4698 770.141 21.5332 769.913C21.5966 769.684 21.6282 769.47 21.6282 769.268C21.6282 768.733 21.4381 768.311 21.0579 768.004C20.6867 767.697 20.1344 767.544 19.401 767.544C18.8397 767.544 18.3417 767.627 17.9071 767.794C17.4816 767.96 17.115 768.219 16.8071 768.571L16.1145 767.991C16.4857 767.57 16.961 767.245 17.5405 767.017C18.1199 766.788 18.7672 766.675 19.4825 766.675C20.1253 766.675 20.6821 766.775 21.1529 766.978C21.6237 767.17 21.9858 767.456 22.2394 767.833C22.5019 768.21 22.6332 768.654 22.6332 769.163C22.6332 769.461 22.588 769.755 22.4974 770.045C22.4159 770.334 22.262 770.641 22.0357 770.966C21.8184 771.282 21.4969 771.642 21.0714 772.046L17.4454 775.495L17.1738 775.126H23.0678V775.968H16.3997ZM24.1183 775.968V775.297L28.0703 771.545C28.4325 771.203 28.7041 770.905 28.8851 770.65C29.0663 770.387 29.1885 770.141 29.2518 769.913C29.3152 769.684 29.3469 769.47 29.3469 769.268C29.3469 768.733 29.1568 768.311 28.7765 768.004C28.4053 767.697 27.853 767.544 27.1197 767.544C26.5584 767.544 26.0604 767.627 25.6258 767.794C25.2003 767.96 24.8336 768.219 24.5258 768.571L23.8331 767.991C24.2044 767.57 24.6797 767.245 25.2591 767.017C25.8386 766.788 26.486 766.675 27.2011 766.675C27.844 766.675 28.4008 766.775 28.8716 766.978C29.3424 767.17 29.7046 767.456 29.958 767.833C30.2206 768.21 30.3519 768.654 30.3519 769.163C30.3519 769.461 30.3066 769.755 30.2161 770.045C30.1346 770.334 29.9807 770.641 29.7543 770.966C29.537 771.282 29.2157 771.642 28.7901 772.046L25.1641 775.495L24.8924 775.126H30.7864V775.968H24.1183ZM32.747 770.427C32.5478 770.427 32.3758 770.356 32.2309 770.216C32.0951 770.075 32.0272 769.904 32.0272 769.703C32.0272 769.492 32.0951 769.321 32.2309 769.189C32.3758 769.058 32.5478 768.992 32.747 768.992C32.9462 768.992 33.1137 769.058 33.2495 769.189C33.3943 769.321 33.4668 769.492 33.4668 769.703C33.4668 769.904 33.3943 770.075 33.2495 770.216C33.1137 770.356 32.9462 770.427 32.747 770.427ZM32.747 776.034C32.5478 776.034 32.3758 775.964 32.2309 775.824C32.0951 775.683 32.0272 775.512 32.0272 775.31C32.0272 775.1 32.0951 774.929 32.2309 774.797C32.3758 774.665 32.5478 774.599 32.747 774.599C32.9462 774.599 33.1137 774.665 33.2495 774.797C33.3943 774.929 33.4668 775.1 33.4668 775.31C33.4668 775.512 33.3943 775.683 33.2495 775.824C33.1137 775.964 32.9462 776.034 32.747 776.034ZM38.6805 776.047C37.9472 776.047 37.2953 775.863 36.7249 775.495C36.1545 775.117 35.7064 774.581 35.3804 773.889C35.0545 773.186 34.8915 772.344 34.8915 771.361C34.8915 770.378 35.0545 769.54 35.3804 768.847C35.7064 768.144 36.1545 767.61 36.7249 767.241C37.2953 766.863 37.9472 766.675 38.6805 766.675C39.4139 766.675 40.0658 766.863 40.6361 767.241C41.2065 767.61 41.6547 768.144 41.9806 768.847C42.3156 769.54 42.4831 770.378 42.4831 771.361C42.4831 772.344 42.3156 773.186 41.9806 773.889C41.6547 774.581 41.2065 775.117 40.6361 775.495C40.0658 775.863 39.4139 776.047 38.6805 776.047ZM38.6805 775.179C39.2418 775.179 39.7307 775.034 40.1472 774.744C40.5637 774.446 40.8897 774.015 41.125 773.454C41.3604 772.883 41.4781 772.186 41.4781 771.361C41.4781 770.536 41.3604 769.842 41.125 769.281C40.8897 768.71 40.5637 768.281 40.1472 767.991C39.7307 767.693 39.2418 767.544 38.6805 767.544C38.1373 767.544 37.6529 767.693 37.2274 767.991C36.8019 768.281 36.4714 768.71 36.236 769.281C36.0006 769.842 35.8829 770.536 35.8829 771.361C35.8829 772.186 36.0006 772.883 36.236 773.454C36.4714 774.015 36.8019 774.446 37.2274 774.744C37.6529 775.034 38.1373 775.179 38.6805 775.179ZM47.6724 776.047C46.9391 776.047 46.2872 775.863 45.7168 775.495C45.1464 775.117 44.6983 774.581 44.3723 773.889C44.0464 773.186 43.8834 772.344 43.8834 771.361C43.8834 770.378 44.0464 769.54 44.3723 768.847C44.6983 768.144 45.1464 767.61 45.7168 767.241C46.2872 766.863 46.9391 766.675 47.6724 766.675C48.4058 766.675 49.0577 766.863 49.6281 767.241C50.1984 767.61 50.6466 768.144 50.9725 768.847C51.3075 769.54 51.475 770.378 51.475 771.361C51.475 772.344 51.3075 773.186 50.9725 773.889C50.6466 774.581 50.1984 775.117 49.6281 775.495C49.0577 775.863 48.4058 776.047 47.6724 776.047ZM47.6724 775.179C48.2338 775.179 48.7227 775.034 49.1392 774.744C49.5556 774.446 49.8815 774.015 50.117 773.454C50.3523 772.883 50.4701 772.186 50.4701 771.361C50.4701 770.536 50.3523 769.842 50.117 769.281C49.8815 768.71 49.5556 768.281 49.1392 767.991C48.7227 767.693 48.2338 767.544 47.6724 767.544C47.1292 767.544 46.6448 767.693 46.2193 767.991C45.7937 768.281 45.4633 768.71 45.2279 769.281C44.9925 769.842 44.8748 770.536 44.8748 771.361C44.8748 772.186 44.9925 772.883 45.2279 773.454C45.4633 774.015 45.7937 774.446 46.2193 774.744C46.6448 775.034 47.1292 775.179 47.6724 775.179Z" fill="#B1B1B1"/>
<path d="M62.0298 43.0234H882.03" stroke="#DCDCDC"/>
<path d="M62.0298 95.2943H882.03" stroke="#DCDCDC"/>
<path d="M62.0298 147.565H882.03" stroke="#DCDCDC"/>
<path d="M62.0298 199.836H882.03" stroke="#DCDCDC"/>
<path d="M62.0298 252.107H882.03" stroke="#DCDCDC"/>
<path d="M62.0298 304.378H882.03" stroke="#DCDCDC"/>
<path d="M62.0298 356.649H882.03" stroke="#DCDCDC"/>
<path d="M62.0298 408.92H882.03" stroke="#DCDCDC"/>
<path d="M62.0298 461.19H882.03" stroke="#DCDCDC"/>
<path d="M62.0298 513.462H882.03" stroke="#DCDCDC"/>
<path d="M62.0298 565.732H882.03" stroke="#DCDCDC"/>
<path d="M62.0298 618.003H882.03" stroke="#DCDCDC"/>
<path d="M62.0298 670.275H882.03" stroke="#DCDCDC"/>
<path d="M62.0298 722.545H882.03" stroke="#DCDCDC"/>
<path d="M62.0298 774.816H882.03" stroke="#DCDCDC"/>
<rect x="1" y="1" width="904" height="795" stroke="#C7C7C7" stroke-opacity="0.3" stroke-width="2"/>
</svg>
