<svg width="830" height="789" viewBox="0 0 830 789" fill="none" xmlns="http://www.w3.org/2000/svg">
<path d="M23.7355 11.5182L20.5762 2.30361H21.5936L24.5521 10.9785H24.0434L27.0957 2.30361H28.006L31.0181 10.9785H30.5362L33.5215 2.30361H34.472L31.3126 11.5182H30.2684L27.3902 3.29089H27.6579L24.7663 11.5182H23.7355ZM38.5369 11.584C37.805 11.584 37.1624 11.4349 36.6091 11.1365C36.0558 10.8293 35.6229 10.4125 35.3106 9.88591C34.9982 9.35055 34.842 8.74066 34.842 8.05615C34.842 7.37164 34.9893 6.76611 35.2838 6.23956C35.5872 5.71301 35.9978 5.30055 36.5154 5.00217C37.042 4.69502 37.631 4.54144 38.2825 4.54144C38.9429 4.54144 39.5275 4.69063 40.0362 4.98901C40.5538 5.27861 40.96 5.69107 41.2545 6.22639C41.549 6.75294 41.6962 7.36286 41.6962 8.05615C41.6962 8.10003 41.6917 8.1483 41.6829 8.20095C41.6829 8.2448 41.6829 8.2931 41.6829 8.34575H35.565V7.64807H41.1741L40.7993 7.92451C40.7993 7.42429 40.6877 6.98111 40.4646 6.59498C40.2504 6.20007 39.9559 5.89292 39.5811 5.67352C39.2062 5.45412 38.7733 5.34443 38.2825 5.34443C37.8006 5.34443 37.3677 5.45412 36.984 5.67352C36.6002 5.89292 36.3012 6.20007 36.087 6.59498C35.8729 6.98989 35.7658 7.44184 35.7658 7.95084V8.09564C35.7658 8.62219 35.8817 9.08728 36.1138 9.49099C36.3548 9.88591 36.6849 10.1975 37.1045 10.4256C37.5329 10.645 38.0192 10.7547 38.5637 10.7547C38.9921 10.7547 39.3891 10.6801 39.7551 10.5309C40.13 10.3818 40.4512 10.1535 40.719 9.84642L41.2545 10.4519C40.942 10.8205 40.5494 11.1013 40.0764 11.2944C39.6123 11.4875 39.0991 11.584 38.5369 11.584ZM46.6162 11.584C45.8843 11.584 45.2417 11.4349 44.6884 11.1365C44.1351 10.8293 43.7022 10.4125 43.3899 9.88591C43.0775 9.35055 42.9213 8.74066 42.9213 8.05615C42.9213 7.37164 43.0686 6.76611 43.3631 6.23956C43.6666 5.71301 44.0771 5.30055 44.5947 5.00217C45.1212 4.69502 45.7103 4.54144 46.3618 4.54144C47.0222 4.54144 47.6068 4.69063 48.1155 4.98901C48.6332 5.27861 49.0392 5.69107 49.3337 6.22639C49.6283 6.75294 49.7755 7.36286 49.7755 8.05615C49.7755 8.10003 49.7711 8.1483 49.7621 8.20095C49.7621 8.2448 49.7621 8.2931 49.7621 8.34575H43.6442V7.64807H49.2534L48.8786 7.92451C48.8786 7.42429 48.7671 6.98111 48.5439 6.59498C48.3297 6.20007 48.0352 5.89292 47.6604 5.67352C47.2855 5.45412 46.8527 5.34443 46.3618 5.34443C45.8799 5.34443 45.4471 5.45412 45.0633 5.67352C44.6795 5.89292 44.3805 6.20007 44.1663 6.59498C43.9521 6.98989 43.845 7.44184 43.845 7.95084V8.09564C43.845 8.62219 43.9611 9.08728 44.1931 9.49099C44.4341 9.88591 44.7643 10.1975 45.1837 10.4256C45.6121 10.645 46.0985 10.7547 46.6429 10.7547C47.0713 10.7547 47.4685 10.6801 47.8344 10.5309C48.2092 10.3818 48.5305 10.1535 48.7983 9.84642L49.3337 10.4519C49.0214 10.8205 48.6287 11.1013 48.1557 11.2944C47.6916 11.4875 47.1784 11.584 46.6162 11.584ZM52.4599 9.72794L52.4867 8.53004L56.8642 4.60726H58.0289L54.9365 7.51644L54.401 7.964L52.4599 9.72794ZM51.7102 11.5182V1.75073H52.6607V11.5182H51.7102ZM57.1588 11.5182L54.227 7.92451L54.8428 7.20051L58.3234 11.5182H57.1588Z" fill="#B1B1B1"/>
<path d="M177.979 11.5183V2.30371H178.796L183.079 9.4911H182.651L186.895 2.30371H187.711V11.5183H186.761V3.76488H186.989L183.079 10.3467H182.611L178.675 3.76488H178.929V11.5183H177.979ZM193.429 11.5841C192.751 11.5841 192.139 11.435 191.595 11.1366C191.059 10.8294 190.636 10.4126 190.323 9.88601C190.011 9.35066 189.854 8.74077 189.854 8.05625C189.854 7.36296 190.011 6.75305 190.323 6.2265C190.636 5.69995 191.059 5.28749 191.595 4.98911C192.13 4.69073 192.742 4.54154 193.429 4.54154C194.125 4.54154 194.74 4.69073 195.276 4.98911C195.821 5.28749 196.245 5.69995 196.548 6.2265C196.861 6.75305 197.016 7.36296 197.016 8.05625C197.016 8.74077 196.861 9.35066 196.548 9.88601C196.245 10.4126 195.821 10.8294 195.276 11.1366C194.732 11.435 194.116 11.5841 193.429 11.5841ZM193.429 10.7548C193.937 10.7548 194.388 10.6451 194.781 10.4257C195.174 10.1976 195.482 9.88165 195.704 9.47793C195.937 9.0655 196.052 8.59161 196.052 8.05625C196.052 7.51216 195.937 7.03826 195.704 6.63457C195.482 6.23088 195.174 5.91935 194.781 5.69995C194.388 5.47178 193.942 5.35769 193.442 5.35769C192.942 5.35769 192.496 5.47178 192.103 5.69995C191.711 5.91935 191.399 6.23088 191.166 6.63457C190.934 7.03826 190.818 7.51216 190.818 8.05625C190.818 8.59161 190.934 9.0655 191.166 9.47793C191.399 9.88165 191.711 10.1976 192.103 10.4257C192.496 10.6451 192.938 10.7548 193.429 10.7548ZM202.545 4.54154C203.116 4.54154 203.616 4.65124 204.045 4.87064C204.481 5.08125 204.821 5.40596 205.062 5.84475C205.311 6.28354 205.437 6.83641 205.437 7.50338V11.5183H204.486V7.59552C204.486 6.86713 204.299 6.31864 203.924 5.95006C203.558 5.5727 203.04 5.38402 202.371 5.38402C201.871 5.38402 201.434 5.48494 201.059 5.68679C200.693 5.87986 200.407 6.16506 200.202 6.54243C200.006 6.91101 199.908 7.35858 199.908 7.88513V11.5183H198.957V4.60736H199.868V6.50294L199.72 6.14752C199.943 5.64729 200.3 5.25677 200.791 4.97594C201.282 4.68634 201.867 4.54154 202.545 4.54154Z" fill="#B1B1B1"/>
<path d="M327.397 11.5183V3.14619H324.104V2.30371H331.681V3.14619H328.387V11.5183H327.397ZM335.784 11.5841C335.186 11.5841 334.664 11.4745 334.217 11.255C333.772 11.0356 333.423 10.7065 333.173 10.2678C332.932 9.82899 332.812 9.28048 332.812 8.62229V4.60736H333.762V8.51698C333.762 9.25415 333.946 9.81139 334.311 10.1888C334.686 10.5574 335.208 10.7417 335.877 10.7417C336.369 10.7417 336.793 10.6451 337.149 10.4521C337.516 10.2502 337.792 9.96063 337.979 9.58324C338.176 9.20586 338.274 8.75393 338.274 8.22738V4.60736H339.224V11.5183H338.314V9.62274L338.461 9.96499C338.239 10.474 337.891 10.8733 337.417 11.1629C336.953 11.4437 336.409 11.5841 335.784 11.5841ZM344.859 11.5841C344.127 11.5841 343.485 11.435 342.931 11.1366C342.378 10.8294 341.945 10.4126 341.632 9.88601C341.32 9.35066 341.164 8.74077 341.164 8.05625C341.164 7.37174 341.311 6.76621 341.605 6.23966C341.909 5.71311 342.32 5.30065 342.837 5.00227C343.364 4.69512 343.953 4.54154 344.604 4.54154C345.265 4.54154 345.849 4.69073 346.358 4.98911C346.876 5.27871 347.282 5.69117 347.576 6.2265C347.871 6.75305 348.018 7.36296 348.018 8.05625C348.018 8.10013 348.014 8.1484 348.005 8.20105C348.005 8.24491 348.005 8.2932 348.005 8.34586H341.887V7.64818H347.496L347.121 7.92462C347.121 7.4244 347.01 6.98121 346.786 6.59508C346.572 6.20017 346.278 5.89302 345.903 5.67362C345.528 5.45422 345.095 5.34453 344.604 5.34453C344.122 5.34453 343.69 5.45422 343.306 5.67362C342.922 5.89302 342.623 6.20017 342.409 6.59508C342.194 6.98999 342.087 7.44194 342.087 7.95094V8.09574C342.087 8.62229 342.204 9.08738 342.435 9.4911C342.676 9.88601 343.007 10.1976 343.426 10.4257C343.854 10.6451 344.341 10.7548 344.885 10.7548C345.314 10.7548 345.711 10.6802 346.077 10.531C346.452 10.3819 346.773 10.1536 347.041 9.84652L347.576 10.4521C347.264 10.8206 346.872 11.1014 346.398 11.2945C345.935 11.4876 345.421 11.5841 344.859 11.5841Z" fill="#B1B1B1"/>
<path d="M469.117 11.5182L465.958 2.30361H466.975L469.934 10.9785H469.425L472.478 2.30361H473.388L476.4 10.9785H475.918L478.903 2.30361H479.854L476.694 11.5182H475.65L472.772 3.29089H473.04L470.148 11.5182H469.117ZM483.918 11.584C483.186 11.584 482.544 11.4349 481.991 11.1365C481.438 10.8293 481.004 10.4125 480.692 9.88591C480.38 9.35055 480.224 8.74066 480.224 8.05615C480.224 7.37164 480.371 6.76611 480.665 6.23956C480.969 5.71301 481.379 5.30055 481.897 5.00217C482.423 4.69502 483.012 4.54144 483.664 4.54144C484.324 4.54144 484.909 4.69063 485.418 4.98901C485.936 5.27861 486.342 5.69107 486.636 6.22639C486.931 6.75294 487.078 7.36286 487.078 8.05615C487.078 8.10003 487.074 8.1483 487.064 8.20095C487.064 8.2448 487.064 8.2931 487.064 8.34575H480.947V7.64807H486.556L486.181 7.92451C486.181 7.42429 486.07 6.98111 485.846 6.59498C485.632 6.20007 485.337 5.89292 484.963 5.67352C484.588 5.45412 484.155 5.34443 483.664 5.34443C483.182 5.34443 482.75 5.45412 482.366 5.67352C481.982 5.89292 481.683 6.20007 481.469 6.59498C481.254 6.98989 481.147 7.44184 481.147 7.95084V8.09564C481.147 8.62219 481.264 9.08728 481.495 9.49099C481.736 9.88591 482.067 10.1975 482.486 10.4256C482.914 10.645 483.401 10.7547 483.945 10.7547C484.374 10.7547 484.771 10.6801 485.137 10.5309C485.512 10.3818 485.833 10.1535 486.101 9.84642L486.636 10.4519C486.324 10.8205 485.931 11.1013 485.458 11.2944C484.994 11.4875 484.481 11.584 483.918 11.584ZM491.81 11.584C491.141 11.584 490.538 11.4349 490.003 11.1365C489.477 10.8381 489.062 10.4256 488.758 9.89907C488.455 9.36372 488.303 8.74947 488.303 8.05615C488.303 7.35409 488.455 6.73978 488.758 6.21323C489.062 5.68668 489.477 5.27861 490.003 4.98901C490.538 4.69063 491.141 4.54144 491.81 4.54144C492.426 4.54144 492.975 4.67746 493.457 4.94951C493.948 5.22157 494.336 5.62086 494.621 6.14741C494.916 6.66518 495.063 7.30143 495.063 8.05615C495.063 8.80212 494.921 9.43834 494.635 9.96489C494.35 10.4914 493.961 10.8952 493.47 11.1759C492.988 11.448 492.435 11.584 491.81 11.584ZM491.877 10.7547C492.377 10.7547 492.823 10.645 493.216 10.4256C493.617 10.1975 493.93 9.88155 494.153 9.47783C494.386 9.0654 494.501 8.5915 494.501 8.05615C494.501 7.51205 494.386 7.03816 494.153 6.63447C493.93 6.23078 493.617 5.91924 493.216 5.69985C492.823 5.47168 492.377 5.35759 491.877 5.35759C491.387 5.35759 490.945 5.47168 490.552 5.69985C490.159 5.91924 489.847 6.23078 489.615 6.63447C489.383 7.03816 489.267 7.51205 489.267 8.05615C489.267 8.5915 489.383 9.0654 489.615 9.47783C489.847 9.88155 490.159 10.1975 490.552 10.4256C490.945 10.645 491.387 10.7547 491.877 10.7547ZM494.528 11.5182V9.43834L494.621 8.04299L494.488 6.64763V1.75073H495.438V11.5182H494.528Z" fill="#B1B1B1"/>
<path d="M616.366 11.5182V3.14609H613.073V2.30361H620.65V3.14609H617.357V11.5182H616.366ZM625.62 4.54144C626.191 4.54144 626.691 4.65113 627.119 4.87053C627.557 5.08115 627.896 5.40586 628.137 5.84465C628.387 6.28343 628.511 6.83631 628.511 7.50327V11.5182H627.561V7.59542C627.561 6.86703 627.374 6.31854 626.999 5.94996C626.633 5.57259 626.115 5.38392 625.446 5.38392C624.946 5.38392 624.509 5.48484 624.134 5.68668C623.768 5.87975 623.482 6.16496 623.277 6.54232C623.08 6.91091 622.983 7.35847 622.983 7.88502V11.5182H622.032V1.75073H622.983V6.50283L622.795 6.14741C623.019 5.64719 623.375 5.25666 623.866 4.97584C624.357 4.68624 624.941 4.54144 625.62 4.54144ZM633.983 11.584C633.386 11.584 632.864 11.4744 632.417 11.2549C631.971 11.0355 631.623 10.7064 631.373 10.2677C631.132 9.82889 631.011 9.28038 631.011 8.62219V4.60726H631.962V8.51688C631.962 9.25405 632.145 9.81128 632.511 10.1887C632.886 10.5573 633.408 10.7415 634.077 10.7415C634.568 10.7415 634.992 10.645 635.349 10.4519C635.715 10.2501 635.991 9.96053 636.179 9.58314C636.376 9.20575 636.473 8.75383 636.473 8.22728V4.60726H637.424V11.5182H636.514V9.62263L636.661 9.96489C636.438 10.4739 636.09 10.8732 635.617 11.1628C635.153 11.4436 634.608 11.584 633.983 11.584Z" fill="#B1B1B1"/>
<path d="M764.465 6.76611H769.418V7.60858H764.465V6.76611ZM764.572 11.5182H763.581V2.30361H770.007V3.14609H764.572V11.5182ZM771.721 11.5182V4.60726H772.632V6.48967L772.538 6.16058C772.734 5.63403 773.064 5.23473 773.528 4.96268C773.992 4.68186 774.568 4.54144 775.255 4.54144V5.44974C775.219 5.44974 775.183 5.44974 775.148 5.44974C775.112 5.44096 775.076 5.43657 775.041 5.43657C774.3 5.43657 773.72 5.66035 773.301 6.10792C772.881 6.54671 772.672 7.17418 772.672 7.99033V11.5182H771.721ZM776.989 11.5182V4.60726H777.94V11.5182H776.989ZM777.471 3.08027C777.275 3.08027 777.11 3.01445 776.976 2.88281C776.842 2.75117 776.775 2.59321 776.775 2.40892C776.775 2.22463 776.842 2.07105 776.976 1.94819C777.11 1.81655 777.275 1.75073 777.471 1.75073C777.668 1.75073 777.832 1.81217 777.966 1.93502C778.1 2.05788 778.167 2.21146 778.167 2.39575C778.167 2.58882 778.1 2.75117 777.966 2.88281C777.842 3.01445 777.677 3.08027 777.471 3.08027Z" fill="#B1B1B1"/>
<path d="M24.7731 43.6838C24.0502 43.6838 23.4076 43.4996 22.8453 43.131C22.2831 42.7536 21.8413 42.2183 21.52 41.525C21.1987 40.823 21.0381 39.9805 21.0381 38.9976C21.0381 38.0146 21.1987 37.1766 21.52 36.4833C21.8413 35.7813 22.2831 35.2459 22.8453 34.8773C23.4076 34.4999 24.0502 34.3113 24.7731 34.3113C25.496 34.3113 26.1386 34.4999 26.7008 34.8773C27.2631 35.2459 27.7049 35.7813 28.0261 36.4833C28.3564 37.1766 28.5215 38.0146 28.5215 38.9976C28.5215 39.9805 28.3564 40.823 28.0261 41.525C27.7049 42.2183 27.2631 42.7536 26.7008 43.131C26.1386 43.4996 25.496 43.6838 24.7731 43.6838ZM24.7731 42.815C25.3264 42.815 25.8083 42.6702 26.2189 42.3806C26.6295 42.0822 26.9507 41.6523 27.1828 41.0906C27.4148 40.5202 27.5308 39.8225 27.5308 38.9976C27.5308 38.1726 27.4148 37.4794 27.1828 36.9177C26.9507 36.3473 26.6295 35.9173 26.2189 35.6277C25.8083 35.3292 25.3264 35.1801 24.7731 35.1801C24.2376 35.1801 23.7601 35.3292 23.3407 35.6277C22.9212 35.9173 22.5954 36.3473 22.3634 36.9177C22.1314 37.4794 22.0153 38.1726 22.0153 38.9976C22.0153 39.8225 22.1314 40.5202 22.3634 41.0906C22.5954 41.6523 22.9212 42.0822 23.3407 42.3806C23.7601 42.6702 24.2376 42.815 24.7731 42.815ZM33.4628 43.6838C32.7131 43.6838 32.066 43.5785 31.5217 43.3679C30.9862 43.1573 30.5712 42.8545 30.2767 42.4596C29.991 42.0559 29.8483 41.582 29.8483 41.0379C29.8483 40.5114 29.9866 40.0638 30.2633 39.6952C30.5489 39.3179 30.9594 39.0283 31.4949 38.8264C32.0393 38.6246 32.6952 38.5237 33.4628 38.5237C34.2214 38.5237 34.8729 38.6246 35.4173 38.8264C35.9617 39.0283 36.3767 39.3179 36.6623 39.6952C36.9568 40.0638 37.1041 40.5114 37.1041 41.0379C37.1041 41.582 36.9568 42.0559 36.6623 42.4596C36.3678 42.8545 35.9483 43.1573 35.4039 43.3679C34.8595 43.5785 34.2125 43.6838 33.4628 43.6838ZM33.4628 42.8809C34.2928 42.8809 34.9398 42.7141 35.4039 42.3806C35.8769 42.0472 36.1135 41.5952 36.1135 41.0248C36.1135 40.4544 35.8769 40.0068 35.4039 39.6821C34.9398 39.3486 34.2928 39.1819 33.4628 39.1819C32.6328 39.1819 31.9857 39.3486 31.5217 39.6821C31.0576 40.0068 30.8256 40.4544 30.8256 41.0248C30.8256 41.5952 31.0576 42.0472 31.5217 42.3806C31.9857 42.7141 32.6328 42.8809 33.4628 42.8809ZM33.4628 39.0634C32.7667 39.0634 32.1731 38.9712 31.6823 38.7869C31.2004 38.6027 30.83 38.3394 30.5712 37.9971C30.3123 37.6461 30.183 37.2293 30.183 36.7466C30.183 36.2375 30.3168 35.8031 30.5846 35.4434C30.8612 35.0748 31.245 34.794 31.7359 34.6009C32.2267 34.4078 32.8023 34.3113 33.4628 34.3113C34.1232 34.3113 34.6989 34.4078 35.1898 34.6009C35.6895 34.794 36.0777 35.0748 36.3544 35.4434C36.631 35.8031 36.7693 36.2375 36.7693 36.7466C36.7693 37.2293 36.64 37.6461 36.3812 37.9971C36.1223 38.3394 35.7431 38.6027 35.2433 38.7869C34.7524 38.9712 34.1589 39.0634 33.4628 39.0634ZM33.4628 38.4315C34.1946 38.4315 34.7658 38.2824 35.1764 37.984C35.5868 37.6856 35.7922 37.2863 35.7922 36.7861C35.7922 36.2595 35.578 35.8514 35.1496 35.5618C34.7301 35.2634 34.1678 35.1143 33.4628 35.1143C32.7577 35.1143 32.1955 35.2634 31.776 35.5618C31.3565 35.8514 31.1468 36.2551 31.1468 36.7729C31.1468 37.2819 31.3477 37.6856 31.7493 37.984C32.1598 38.2824 32.731 38.4315 33.4628 38.4315ZM39.1616 38.0629C38.9653 38.0629 38.7957 37.9928 38.6529 37.8523C38.519 37.7119 38.4521 37.5407 38.4521 37.3389C38.4521 37.1283 38.519 36.9572 38.6529 36.8255C38.7957 36.6939 38.9653 36.6281 39.1616 36.6281C39.3579 36.6281 39.5231 36.6939 39.6569 36.8255C39.7997 36.9572 39.8711 37.1283 39.8711 37.3389C39.8711 37.5407 39.7997 37.7119 39.6569 37.8523C39.5231 37.9928 39.3579 38.0629 39.1616 38.0629ZM39.1616 43.6707C38.9653 43.6707 38.7957 43.6005 38.6529 43.4601C38.519 43.3196 38.4521 43.1485 38.4521 42.9467C38.4521 42.7361 38.519 42.5649 38.6529 42.4333C38.7957 42.3017 38.9653 42.2358 39.1616 42.2358C39.3579 42.2358 39.5231 42.3017 39.6569 42.4333C39.7997 42.5649 39.8711 42.7361 39.8711 42.9467C39.8711 43.1485 39.7997 43.3196 39.6569 43.4601C39.5231 43.6005 39.3579 43.6707 39.1616 43.6707ZM45.0106 43.6838C44.2877 43.6838 43.6451 43.4996 43.0829 43.131C42.5206 42.7536 42.0788 42.2183 41.7575 41.525C41.4363 40.823 41.2756 39.9805 41.2756 38.9976C41.2756 38.0146 41.4363 37.1766 41.7575 36.4833C42.0788 35.7813 42.5206 35.2459 43.0829 34.8773C43.6451 34.4999 44.2877 34.3113 45.0106 34.3113C45.7335 34.3113 46.3761 34.4999 46.9384 34.8773C47.5006 35.2459 47.9424 35.7813 48.2637 36.4833C48.5939 37.1766 48.759 38.0146 48.759 38.9976C48.759 39.9805 48.5939 40.823 48.2637 41.525C47.9424 42.2183 47.5006 42.7536 46.9384 43.131C46.3761 43.4996 45.7335 43.6838 45.0106 43.6838ZM45.0106 42.815C45.5639 42.815 46.0459 42.6702 46.4564 42.3806C46.867 42.0822 47.1883 41.6523 47.4203 41.0906C47.6523 40.5202 47.7684 39.8225 47.7684 38.9976C47.7684 38.1726 47.6523 37.4794 47.4203 36.9177C47.1883 36.3473 46.867 35.9173 46.4564 35.6277C46.0459 35.3292 45.5639 35.1801 45.0106 35.1801C44.4751 35.1801 43.9976 35.3292 43.5782 35.6277C43.1588 35.9173 42.8329 36.3473 42.6009 36.9177C42.3689 37.4794 42.2529 38.1726 42.2529 38.9976C42.2529 39.8225 42.3689 40.5202 42.6009 41.0906C42.8329 41.6523 43.1588 42.0822 43.5782 42.3806C43.9976 42.6702 44.4751 42.815 45.0106 42.815ZM53.8744 43.6838C53.1515 43.6838 52.5089 43.4996 51.9466 43.131C51.3844 42.7536 50.9426 42.2183 50.6213 41.525C50.3 40.823 50.1394 39.9805 50.1394 38.9976C50.1394 38.0146 50.3 37.1766 50.6213 36.4833C50.9426 35.7813 51.3844 35.2459 51.9466 34.8773C52.5089 34.4999 53.1515 34.3113 53.8744 34.3113C54.5973 34.3113 55.2399 34.4999 55.8021 34.8773C56.3644 35.2459 56.8062 35.7813 57.1274 36.4833C57.4576 37.1766 57.6228 38.0146 57.6228 38.9976C57.6228 39.9805 57.4576 40.823 57.1274 41.525C56.8062 42.2183 56.3644 42.7536 55.8021 43.131C55.2399 43.4996 54.5973 43.6838 53.8744 43.6838ZM53.8744 42.815C54.4277 42.815 54.9096 42.6702 55.3202 42.3806C55.7307 42.0822 56.052 41.6523 56.2841 41.0906C56.5161 40.5202 56.6321 39.8225 56.6321 38.9976C56.6321 38.1726 56.5161 37.4794 56.2841 36.9177C56.052 36.3473 55.7307 35.9173 55.3202 35.6277C54.9096 35.3292 54.4277 35.1801 53.8744 35.1801C53.3389 35.1801 52.8614 35.3292 52.442 35.6277C52.0224 35.9173 51.6967 36.3473 51.4647 36.9177C51.2326 37.4794 51.1166 38.1726 51.1166 38.9976C51.1166 39.8225 51.2326 40.5202 51.4647 41.0906C51.6967 41.6523 52.0224 42.0822 52.442 42.3806C52.8614 42.6702 53.3389 42.815 53.8744 42.815Z" fill="#B1B1B1"/>
<path d="M24.963 95.4065C24.2401 95.4065 23.5975 95.2222 23.0353 94.8536C22.473 94.476 22.0313 93.9404 21.71 93.2476C21.3887 92.545 21.228 91.7026 21.228 90.7202C21.228 89.7371 21.3887 88.8987 21.71 88.2059C22.0313 87.5033 22.473 86.9686 23.0353 86.6C23.5975 86.2223 24.2401 86.0339 24.963 86.0339C25.6859 86.0339 26.3285 86.2223 26.8908 86.6C27.453 86.9686 27.8948 87.5033 28.2161 88.2059C28.5463 88.8987 28.7114 89.7371 28.7114 90.7202C28.7114 91.7026 28.5463 92.545 28.2161 93.2476C27.8948 93.9404 27.453 94.476 26.8908 94.8536C26.3285 95.2222 25.6859 95.4065 24.963 95.4065ZM24.963 94.5377C25.5163 94.5377 25.9983 94.3929 26.4088 94.1033C26.8193 93.8046 27.1406 93.3743 27.3727 92.8132C27.6047 92.2423 27.7208 91.5446 27.7208 90.7202C27.7208 89.895 27.6047 89.2015 27.3727 88.6403C27.1406 88.0694 26.8193 87.6399 26.4088 87.3503C25.9983 87.0517 25.5163 86.9027 24.963 86.9027C24.4275 86.9027 23.95 87.0517 23.5306 87.3503C23.1111 87.6399 22.7854 88.0694 22.5533 88.6403C22.3213 89.2015 22.2053 89.895 22.2053 90.7202C22.2053 91.5446 22.3213 92.2423 22.5533 92.8132C22.7854 93.3743 23.1111 93.8046 23.5306 94.1033C23.95 94.3929 24.4275 94.5377 24.963 94.5377ZM33.0101 86.0339C33.8401 86.0339 34.5407 86.2182 35.1119 86.5868C35.6831 86.9463 36.1159 87.4688 36.4104 88.1533C36.7049 88.8378 36.8522 89.6671 36.8522 90.6412C36.8522 91.6762 36.6692 92.55 36.3033 93.2608C35.9463 93.9717 35.4465 94.5064 34.804 94.8668C34.1614 95.2263 33.4161 95.4065 32.5683 95.4065C32.1489 95.4065 31.7473 95.367 31.3635 95.288C30.9886 95.209 30.6495 95.0815 30.3461 94.9063L30.7343 94.1428C30.9753 94.3007 31.252 94.4143 31.5643 94.485C31.8856 94.5459 32.2158 94.5772 32.5549 94.5772C33.5634 94.5772 34.3666 94.2613 34.9646 93.6294C35.5715 92.9975 35.8749 92.0539 35.8749 90.7992C35.8749 90.5968 35.8615 90.3557 35.8348 90.0752C35.817 89.7938 35.7678 89.5133 35.6875 89.2327L36.0222 89.4828C35.9329 89.9386 35.7411 90.3294 35.4465 90.6544C35.161 90.9703 34.804 91.2114 34.3756 91.3784C33.9561 91.5446 33.4876 91.6285 32.9699 91.6285C32.3541 91.6285 31.8053 91.5142 31.3233 91.2863C30.8503 91.0575 30.4799 90.7375 30.2122 90.3253C29.9444 89.9123 29.8106 89.4252 29.8106 88.8641C29.8106 88.2849 29.9489 87.7847 30.2256 87.3635C30.5023 86.9422 30.8815 86.6173 31.3635 86.3894C31.8544 86.1524 32.4032 86.0339 33.0101 86.0339ZM33.0503 86.8369C32.604 86.8369 32.2069 86.92 31.8588 87.087C31.5197 87.245 31.252 87.4729 31.0556 87.7715C30.8592 88.0694 30.7611 88.4248 30.7611 88.8378C30.7611 89.4433 30.9708 89.9255 31.3903 90.2858C31.8186 90.6453 32.3943 90.8255 33.1172 90.8255C33.5991 90.8255 34.0186 90.7375 34.3756 90.5623C34.7415 90.3862 35.0226 90.1451 35.219 89.8382C35.4242 89.5305 35.5269 89.1883 35.5269 88.8115C35.5269 88.4692 35.4332 88.1484 35.2457 87.8505C35.0583 87.5519 34.7816 87.3108 34.4157 87.1265C34.0499 86.9332 33.5947 86.8369 33.0503 86.8369ZM38.9724 89.7856C38.776 89.7856 38.6065 89.7148 38.4637 89.575C38.3298 89.4343 38.2629 89.2632 38.2629 89.0616C38.2629 88.851 38.3298 88.6798 38.4637 88.5482C38.6065 88.4166 38.776 88.3508 38.9724 88.3508C39.1687 88.3508 39.3338 88.4166 39.4677 88.5482C39.6105 88.6798 39.6819 88.851 39.6819 89.0616C39.6819 89.2632 39.6105 89.4343 39.4677 89.575C39.3338 89.7148 39.1687 89.7856 38.9724 89.7856ZM38.9724 95.3933C38.776 95.3933 38.6065 95.3226 38.4637 95.1827C38.3298 95.042 38.2629 94.8709 38.2629 94.6693C38.2629 94.4587 38.3298 94.2876 38.4637 94.1559C38.6065 94.0243 38.776 93.9585 38.9724 93.9585C39.1687 93.9585 39.3338 94.0243 39.4677 94.1559C39.6105 94.2876 39.6819 94.4587 39.6819 94.6693C39.6819 94.8709 39.6105 95.042 39.4677 95.1827C39.3338 95.3226 39.1687 95.3933 38.9724 95.3933ZM44.8214 95.4065C44.0985 95.4065 43.4559 95.2222 42.8936 94.8536C42.3314 94.476 41.8896 93.9404 41.5683 93.2476C41.247 92.545 41.0864 91.7026 41.0864 90.7202C41.0864 89.7371 41.247 88.8987 41.5683 88.2059C41.8896 87.5033 42.3314 86.9686 42.8936 86.6C43.4559 86.2223 44.0985 86.0339 44.8214 86.0339C45.5443 86.0339 46.1868 86.2223 46.7491 86.6C47.3114 86.9686 47.7531 87.5033 48.0744 88.2059C48.4047 88.8987 48.5697 89.7371 48.5697 90.7202C48.5697 91.7026 48.4047 92.545 48.0744 93.2476C47.7531 93.9404 47.3114 94.476 46.7491 94.8536C46.1868 95.2222 45.5443 95.4065 44.8214 95.4065ZM44.8214 94.5377C45.3748 94.5377 45.8567 94.3929 46.2672 94.1033C46.6777 93.8046 46.999 93.3743 47.231 92.8132C47.4631 92.2423 47.5791 91.5446 47.5791 90.7202C47.5791 89.895 47.4631 89.2015 47.231 88.6403C46.999 88.0694 46.6777 87.6399 46.2672 87.3503C45.8567 87.0517 45.3748 86.9027 44.8214 86.9027C44.2859 86.9027 43.8085 87.0517 43.3889 87.3503C42.9695 87.6399 42.6438 88.0694 42.4117 88.6403C42.1797 89.2015 42.0636 89.895 42.0636 90.7202C42.0636 91.5446 42.1797 92.2423 42.4117 92.8132C42.6438 93.3743 42.9695 93.8046 43.3889 94.1033C43.8085 94.3929 44.2859 94.5377 44.8214 94.5377ZM53.6851 95.4065C52.9622 95.4065 52.3196 95.2222 51.7574 94.8536C51.1951 94.476 50.7534 93.9404 50.4321 93.2476C50.1108 92.545 49.9501 91.7026 49.9501 90.7202C49.9501 89.7371 50.1108 88.8987 50.4321 88.2059C50.7534 87.5033 51.1951 86.9686 51.7574 86.6C52.3196 86.2223 52.9622 86.0339 53.6851 86.0339C54.408 86.0339 55.0506 86.2223 55.6129 86.6C56.1751 86.9686 56.6169 87.5033 56.9382 88.2059C57.2684 88.8987 57.4335 89.7371 57.4335 90.7202C57.4335 91.7026 57.2684 92.545 56.9382 93.2476C56.6169 93.9404 56.1751 94.476 55.6129 94.8536C55.0506 95.2222 54.408 95.4065 53.6851 95.4065ZM53.6851 94.5377C54.2384 94.5377 54.7204 94.3929 55.1309 94.1033C55.5415 93.8046 55.8628 93.3743 56.0948 92.8132C56.3268 92.2423 56.4429 91.5446 56.4429 90.7202C56.4429 89.895 56.3268 89.2015 56.0948 88.6403C55.8628 88.0694 55.5415 87.6399 55.1309 87.3503C54.7204 87.0517 54.2384 86.9027 53.6851 86.9027C53.1496 86.9027 52.6721 87.0517 52.2527 87.3503C51.8333 87.6399 51.5075 88.0694 51.2755 88.6403C51.0434 89.2015 50.9274 89.895 50.9274 90.7202C50.9274 91.5446 51.0434 92.2423 51.2755 92.8132C51.5075 93.3743 51.8333 93.8046 52.2527 94.1033C52.6721 94.3929 53.1496 94.5377 53.6851 94.5377Z" fill="#B1B1B1"/>
<path d="M24.5214 147.049V138.23L24.9498 138.677H22.3125V137.835H25.4852V147.049H24.5214ZM31.4603 147.128C30.7374 147.128 30.0948 146.944 29.5326 146.576C28.9703 146.199 28.5285 145.663 28.2073 144.97C27.886 144.268 27.7253 143.425 27.7253 142.442C27.7253 141.46 27.886 140.621 28.2073 139.928C28.5285 139.226 28.9703 138.69 29.5326 138.322C30.0948 137.945 30.7374 137.756 31.4603 137.756C32.1832 137.756 32.8258 137.945 33.3881 138.322C33.9503 138.69 34.3921 139.226 34.7134 139.928C35.0436 140.621 35.2087 141.46 35.2087 142.442C35.2087 143.425 35.0436 144.268 34.7134 144.97C34.3921 145.663 33.9503 146.199 33.3881 146.576C32.8258 146.944 32.1832 147.128 31.4603 147.128ZM31.4603 146.26C32.0136 146.26 32.4956 146.115 32.9061 145.825C33.3167 145.527 33.638 145.097 33.87 144.535C34.102 143.965 34.2181 143.267 34.2181 142.442C34.2181 141.618 34.102 140.924 33.87 140.362C33.638 139.792 33.3167 139.362 32.9061 139.072C32.4956 138.774 32.0136 138.625 31.4603 138.625C30.9248 138.625 30.4473 138.774 30.0279 139.072C29.6085 139.362 29.2827 139.792 29.0506 140.362C28.8186 140.924 28.7026 141.618 28.7026 142.442C28.7026 143.267 28.8186 143.965 29.0506 144.535C29.2827 145.097 29.6085 145.527 30.0279 145.825C30.4473 146.115 30.9248 146.26 31.4603 146.26ZM37.3119 141.508C37.1156 141.508 36.946 141.438 36.8032 141.297C36.6693 141.157 36.6024 140.986 36.6024 140.784C36.6024 140.573 36.6693 140.402 36.8032 140.27C36.946 140.138 37.1156 140.073 37.3119 140.073C37.5083 140.073 37.6734 140.138 37.8072 140.27C37.9501 140.402 38.0214 140.573 38.0214 140.784C38.0214 140.986 37.9501 141.157 37.8072 141.297C37.6734 141.438 37.5083 141.508 37.3119 141.508ZM37.3119 147.115C37.1156 147.115 36.946 147.045 36.8032 146.905C36.6693 146.765 36.6024 146.594 36.6024 146.391C36.6024 146.181 36.6693 146.01 36.8032 145.878C36.946 145.746 37.1156 145.68 37.3119 145.68C37.5083 145.68 37.6734 145.746 37.8072 145.878C37.9501 146.01 38.0214 146.181 38.0214 146.391C38.0214 146.594 37.9501 146.765 37.8072 146.905C37.6734 147.045 37.5083 147.115 37.3119 147.115ZM43.161 147.128C42.4381 147.128 41.7955 146.944 41.2332 146.576C40.671 146.199 40.2292 145.663 39.9079 144.97C39.5866 144.268 39.426 143.425 39.426 142.442C39.426 141.46 39.5866 140.621 39.9079 139.928C40.2292 139.226 40.671 138.69 41.2332 138.322C41.7955 137.945 42.4381 137.756 43.161 137.756C43.8839 137.756 44.5265 137.945 45.0887 138.322C45.651 138.69 46.0928 139.226 46.414 139.928C46.7442 140.621 46.9094 141.46 46.9094 142.442C46.9094 143.425 46.7442 144.268 46.414 144.97C46.0928 145.663 45.651 146.199 45.0887 146.576C44.5265 146.944 43.8839 147.128 43.161 147.128ZM43.161 146.26C43.7143 146.26 44.1962 146.115 44.6068 145.825C45.0173 145.527 45.3386 145.097 45.5707 144.535C45.8027 143.965 45.9187 143.267 45.9187 142.442C45.9187 141.618 45.8027 140.924 45.5707 140.362C45.3386 139.792 45.0173 139.362 44.6068 139.072C44.1962 138.774 43.7143 138.625 43.161 138.625C42.6255 138.625 42.148 138.774 41.7286 139.072C41.309 139.362 40.9833 139.792 40.7513 140.362C40.5192 140.924 40.4032 141.618 40.4032 142.442C40.4032 143.267 40.5192 143.965 40.7513 144.535C40.9833 145.097 41.309 145.527 41.7286 145.825C42.148 146.115 42.6255 146.26 43.161 146.26ZM52.0247 147.128C51.3018 147.128 50.6592 146.944 50.0969 146.576C49.5347 146.199 49.0929 145.663 48.7716 144.97C48.4503 144.268 48.2897 143.425 48.2897 142.442C48.2897 141.46 48.4503 140.621 48.7716 139.928C49.0929 139.226 49.5347 138.69 50.0969 138.322C50.6592 137.945 51.3018 137.756 52.0247 137.756C52.7476 137.756 53.3901 137.945 53.9524 138.322C54.5147 138.69 54.9564 139.226 55.2777 139.928C55.608 140.621 55.773 141.46 55.773 142.442C55.773 143.425 55.608 144.268 55.2777 144.97C54.9564 145.663 54.5147 146.199 53.9524 146.576C53.3901 146.944 52.7476 147.128 52.0247 147.128ZM52.0247 146.26C52.578 146.26 53.0599 146.115 53.4705 145.825C53.881 145.527 54.2023 145.097 54.4343 144.535C54.6664 143.965 54.7824 143.267 54.7824 142.442C54.7824 141.618 54.6664 140.924 54.4343 140.362C54.2023 139.792 53.881 139.362 53.4705 139.072C53.0599 138.774 52.578 138.625 52.0247 138.625C51.4892 138.625 51.0117 138.774 50.5922 139.072C50.1728 139.362 49.847 139.792 49.615 140.362C49.383 140.924 49.2669 141.618 49.2669 142.442C49.2669 143.267 49.383 143.965 49.615 144.535C49.847 145.097 50.1728 145.527 50.5922 145.825C51.0117 146.115 51.4892 146.26 52.0247 146.26Z" fill="#B1B1B1"/>
<path d="M26.5346 198.772V189.952L26.9629 190.4H24.3257V189.557H27.4984V198.772H26.5346ZM31.3716 198.772V189.952L31.8 190.4H29.1628V189.557H32.3355V198.772H31.3716ZM35.2985 193.23C35.1021 193.23 34.9326 193.16 34.7898 193.02C34.6559 192.879 34.589 192.708 34.589 192.506C34.589 192.296 34.6559 192.124 34.7898 191.993C34.9326 191.861 35.1021 191.795 35.2985 191.795C35.4949 191.795 35.66 191.861 35.7938 191.993C35.9366 192.124 36.008 192.296 36.008 192.506C36.008 192.708 35.9366 192.879 35.7938 193.02C35.66 193.16 35.4949 193.23 35.2985 193.23ZM35.2985 198.838C35.1021 198.838 34.9326 198.768 34.7898 198.627C34.6559 198.487 34.589 198.315 34.589 198.114C34.589 197.903 34.6559 197.732 34.7898 197.601C34.9326 197.469 35.1021 197.403 35.2985 197.403C35.4949 197.403 35.66 197.469 35.7938 197.601C35.9366 197.732 36.008 197.903 36.008 198.114C36.008 198.315 35.9366 198.487 35.7938 198.627C35.66 198.768 35.4949 198.838 35.2985 198.838ZM41.1475 198.851C40.4246 198.851 39.782 198.667 39.2197 198.298C38.6575 197.921 38.2157 197.386 37.8944 196.692C37.5731 195.99 37.4125 195.148 37.4125 194.165C37.4125 193.182 37.5731 192.344 37.8944 191.651C38.2157 190.949 38.6575 190.413 39.2197 190.045C39.782 189.667 40.4246 189.479 41.1475 189.479C41.8704 189.479 42.513 189.667 43.0752 190.045C43.6375 190.413 44.0793 190.949 44.4006 191.651C44.7308 192.344 44.8959 193.182 44.8959 194.165C44.8959 195.148 44.7308 195.99 44.4006 196.692C44.0793 197.386 43.6375 197.921 43.0752 198.298C42.513 198.667 41.8704 198.851 41.1475 198.851ZM41.1475 197.982C41.7008 197.982 42.1827 197.837 42.5933 197.548C43.0039 197.249 43.3252 196.82 43.5572 196.258C43.7892 195.688 43.9052 194.99 43.9052 194.165C43.9052 193.34 43.7892 192.647 43.5572 192.085C43.3252 191.515 43.0039 191.084 42.5933 190.795C42.1827 190.496 41.7008 190.347 41.1475 190.347C40.612 190.347 40.1345 190.496 39.7151 190.795C39.2956 191.084 38.9698 191.515 38.7378 192.085C38.5058 192.647 38.3897 193.34 38.3897 194.165C38.3897 194.99 38.5058 195.688 38.7378 196.258C38.9698 196.82 39.2956 197.249 39.7151 197.548C40.1345 197.837 40.612 197.982 41.1475 197.982ZM50.0113 198.851C49.2883 198.851 48.6458 198.667 48.0835 198.298C47.5213 197.921 47.0795 197.386 46.7582 196.692C46.4369 195.99 46.2763 195.148 46.2763 194.165C46.2763 193.182 46.4369 192.344 46.7582 191.651C47.0795 190.949 47.5213 190.413 48.0835 190.045C48.6458 189.667 49.2883 189.479 50.0113 189.479C50.7342 189.479 51.3767 189.667 51.939 190.045C52.5013 190.413 52.943 190.949 53.2643 191.651C53.5945 192.344 53.7596 193.182 53.7596 194.165C53.7596 195.148 53.5945 195.99 53.2643 196.692C52.943 197.386 52.5013 197.921 51.939 198.298C51.3767 198.667 50.7342 198.851 50.0113 198.851ZM50.0113 197.982C50.5646 197.982 51.0465 197.837 51.4571 197.548C51.8675 197.249 52.1888 196.82 52.4209 196.258C52.6529 195.688 52.769 194.99 52.769 194.165C52.769 193.34 52.6529 192.647 52.4209 192.085C52.1888 191.515 51.8675 191.084 51.4571 190.795C51.0465 190.496 50.5646 190.347 50.0113 190.347C49.4758 190.347 48.9983 190.496 48.5788 190.795C48.1593 191.084 47.8336 191.515 47.6016 192.085C47.3695 192.647 47.2535 193.34 47.2535 194.165C47.2535 194.99 47.3695 195.688 47.6016 196.258C47.8336 196.82 48.1593 197.249 48.5788 197.548C48.9983 197.837 49.4758 197.982 50.0113 197.982Z" fill="#B1B1B1"/>
<path d="M25.1488 250.495V241.675L25.5772 242.123H22.9399V241.28H26.1127V250.495H25.1488ZM28.1787 250.495V249.823L32.0744 246.072C32.4314 245.729 32.6991 245.431 32.8776 245.177C33.0561 244.913 33.1766 244.667 33.2391 244.439C33.3016 244.211 33.3328 243.996 33.3328 243.794C33.3328 243.259 33.1453 242.838 32.7705 242.531C32.4046 242.223 31.8602 242.07 31.1373 242.07C30.584 242.07 30.0931 242.153 29.6647 242.32C29.2453 242.486 28.8838 242.745 28.5803 243.097L27.8976 242.518C28.2635 242.096 28.732 241.771 29.3032 241.543C29.8745 241.315 30.5125 241.201 31.2176 241.201C31.8512 241.201 32.4001 241.302 32.8642 241.504C33.3283 241.696 33.6853 241.982 33.9352 242.36C34.194 242.736 34.3234 243.18 34.3234 243.689C34.3234 243.987 34.2788 244.281 34.1895 244.571C34.1092 244.861 33.9575 245.168 33.7344 245.493C33.5202 245.808 33.2033 246.168 32.7839 246.572L29.2095 250.021L28.9418 249.652H34.7518V250.495H28.1787ZM36.6843 244.953C36.488 244.953 36.3184 244.882 36.1756 244.742C36.0417 244.602 35.9748 244.43 35.9748 244.229C35.9748 244.018 36.0417 243.847 36.1756 243.715C36.3184 243.584 36.488 243.518 36.6843 243.518C36.8807 243.518 37.0458 243.584 37.1796 243.715C37.3225 243.847 37.3938 244.018 37.3938 244.229C37.3938 244.43 37.3225 244.602 37.1796 244.742C37.0458 244.882 36.8807 244.953 36.6843 244.953ZM36.6843 250.561C36.488 250.561 36.3184 250.49 36.1756 250.35C36.0417 250.209 35.9748 250.038 35.9748 249.837C35.9748 249.626 36.0417 249.455 36.1756 249.323C36.3184 249.192 36.488 249.126 36.6843 249.126C36.8807 249.126 37.0458 249.192 37.1796 249.323C37.3225 249.455 37.3938 249.626 37.3938 249.837C37.3938 250.038 37.3225 250.209 37.1796 250.35C37.0458 250.49 36.8807 250.561 36.6843 250.561ZM42.5334 250.574C41.8105 250.574 41.1679 250.389 40.6056 250.021C40.0434 249.643 39.6016 249.108 39.2803 248.415C38.959 247.712 38.7984 246.87 38.7984 245.887C38.7984 244.904 38.959 244.066 39.2803 243.373C39.6016 242.671 40.0434 242.136 40.6056 241.767C41.1679 241.39 41.8105 241.201 42.5334 241.201C43.2563 241.201 43.8989 241.39 44.4611 241.767C45.0234 242.136 45.4652 242.671 45.7864 243.373C46.1166 244.066 46.2818 244.904 46.2818 245.887C46.2818 246.87 46.1166 247.712 45.7864 248.415C45.4652 249.108 45.0234 249.643 44.4611 250.021C43.8989 250.389 43.2563 250.574 42.5334 250.574ZM42.5334 249.705C43.0867 249.705 43.5686 249.56 43.9792 249.271C44.3897 248.972 44.711 248.542 44.9431 247.981C45.1751 247.41 45.2911 246.712 45.2911 245.887C45.2911 245.062 45.1751 244.369 44.9431 243.808C44.711 243.237 44.3897 242.807 43.9792 242.518C43.5686 242.219 43.0867 242.07 42.5334 242.07C41.9979 242.07 41.5204 242.219 41.101 242.518C40.6814 242.807 40.3557 243.237 40.1237 243.808C39.8916 244.369 39.7756 245.062 39.7756 245.887C39.7756 246.712 39.8916 247.41 40.1237 247.981C40.3557 248.542 40.6814 248.972 41.101 249.271C41.5204 249.56 41.9979 249.705 42.5334 249.705ZM51.3971 250.574C50.6742 250.574 50.0316 250.389 49.4693 250.021C48.9071 249.643 48.4653 249.108 48.144 248.415C47.8227 247.712 47.6621 246.87 47.6621 245.887C47.6621 244.904 47.8227 244.066 48.144 243.373C48.4653 242.671 48.9071 242.136 49.4693 241.767C50.0316 241.39 50.6742 241.201 51.3971 241.201C52.12 241.201 52.7625 241.39 53.3248 241.767C53.8871 242.136 54.3288 242.671 54.6501 243.373C54.9804 244.066 55.1454 244.904 55.1454 245.887C55.1454 246.87 54.9804 247.712 54.6501 248.415C54.3288 249.108 53.8871 249.643 53.3248 250.021C52.7625 250.389 52.12 250.574 51.3971 250.574ZM51.3971 249.705C51.9504 249.705 52.4323 249.56 52.8429 249.271C53.2534 248.972 53.5747 248.542 53.8067 247.981C54.0388 247.41 54.1548 246.712 54.1548 245.887C54.1548 245.062 54.0388 244.369 53.8067 243.808C53.5747 243.237 53.2534 242.807 52.8429 242.518C52.4323 242.219 51.9504 242.07 51.3971 242.07C50.8616 242.07 50.3841 242.219 49.9646 242.518C49.5452 242.807 49.2194 243.237 48.9874 243.808C48.7554 244.369 48.6393 245.062 48.6393 245.887C48.6393 246.712 48.7554 247.41 48.9874 247.981C49.2194 248.542 49.5452 248.972 49.9646 249.271C50.3841 249.56 50.8616 249.705 51.3971 249.705Z" fill="#B1B1B1"/>
<path d="M25.1752 302.217V293.397L25.6036 293.845H22.9663V293.002H26.1391V302.217H25.1752ZM31.177 302.296C30.4987 302.296 29.8561 302.19 29.2492 301.98C28.6513 301.761 28.1694 301.471 27.8034 301.111L28.272 300.361C28.5754 300.668 28.9815 300.923 29.4902 301.124C30.0078 301.326 30.5701 301.427 31.177 301.427C31.9534 301.427 32.547 301.261 32.9574 300.927C33.377 300.593 33.5866 300.146 33.5866 299.584C33.5866 299.023 33.3814 298.575 32.9708 298.241C32.5692 297.908 31.9311 297.741 31.0565 297.741H30.3871V297.043L33.2787 293.476L33.4126 293.845H28.1916V293.002H34.2158V293.673L31.3242 297.241L30.8557 296.938H31.2171C32.3416 296.938 33.1806 297.184 33.7339 297.675C34.2961 298.167 34.5773 298.799 34.5773 299.571C34.5773 300.089 34.4524 300.554 34.2024 300.966C33.9526 301.379 33.5732 301.703 33.0645 301.94C32.5648 302.177 31.9356 302.296 31.177 302.296ZM36.6584 296.675C36.462 296.675 36.2925 296.605 36.1497 296.464C36.0158 296.324 35.9489 296.153 35.9489 295.951C35.9489 295.74 36.0158 295.569 36.1497 295.437C36.2925 295.306 36.462 295.24 36.6584 295.24C36.8548 295.24 37.0198 295.306 37.1537 295.437C37.2965 295.569 37.3679 295.74 37.3679 295.951C37.3679 296.153 37.2965 296.324 37.1537 296.464C37.0198 296.605 36.8548 296.675 36.6584 296.675ZM36.6584 302.283C36.462 302.283 36.2925 302.213 36.1497 302.072C36.0158 301.932 35.9489 301.761 35.9489 301.558C35.9489 301.348 36.0158 301.177 36.1497 301.045C36.2925 300.913 36.462 300.848 36.6584 300.848C36.8548 300.848 37.0198 300.913 37.1537 301.045C37.2965 301.177 37.3679 301.348 37.3679 301.558C37.3679 301.761 37.2965 301.932 37.1537 302.072C37.0198 302.213 36.8548 302.283 36.6584 302.283ZM42.5074 302.296C41.7845 302.296 41.1419 302.111 40.5796 301.743C40.0174 301.366 39.5756 300.83 39.2543 300.137C38.933 299.435 38.7724 298.593 38.7724 297.609C38.7724 296.627 38.933 295.789 39.2543 295.095C39.5756 294.393 40.0174 293.858 40.5796 293.489C41.1419 293.112 41.7845 292.923 42.5074 292.923C43.2303 292.923 43.8729 293.112 44.4351 293.489C44.9974 293.858 45.4391 294.393 45.7604 295.095C46.0907 295.789 46.2558 296.627 46.2558 297.609C46.2558 298.593 46.0907 299.435 45.7604 300.137C45.4391 300.83 44.9974 301.366 44.4351 301.743C43.8729 302.111 43.2303 302.296 42.5074 302.296ZM42.5074 301.427C43.0607 301.427 43.5426 301.282 43.9532 300.992C44.3637 300.695 44.685 300.264 44.917 299.702C45.1491 299.132 45.2651 298.435 45.2651 297.609C45.2651 296.785 45.1491 296.091 44.917 295.53C44.685 294.959 44.3637 294.529 43.9532 294.239C43.5426 293.942 43.0607 293.792 42.5074 293.792C41.9719 293.792 41.4944 293.942 41.075 294.239C40.6555 294.529 40.3297 294.959 40.0977 295.53C39.8657 296.091 39.7496 296.785 39.7496 297.609C39.7496 298.435 39.8657 299.132 40.0977 299.702C40.3297 300.264 40.6555 300.695 41.075 300.992C41.4944 301.282 41.9719 301.427 42.5074 301.427ZM51.3711 302.296C50.6482 302.296 50.0057 302.111 49.4434 301.743C48.8811 301.366 48.4394 300.83 48.1181 300.137C47.7968 299.435 47.6361 298.593 47.6361 297.609C47.6361 296.627 47.7968 295.789 48.1181 295.095C48.4394 294.393 48.8811 293.858 49.4434 293.489C50.0057 293.112 50.6482 292.923 51.3711 292.923C52.094 292.923 52.7366 293.112 53.2989 293.489C53.8611 293.858 54.3029 294.393 54.6242 295.095C54.9544 295.789 55.1195 296.627 55.1195 297.609C55.1195 298.593 54.9544 299.435 54.6242 300.137C54.3029 300.83 53.8611 301.366 53.2989 301.743C52.7366 302.111 52.094 302.296 51.3711 302.296ZM51.3711 301.427C51.9244 301.427 52.4064 301.282 52.8169 300.992C53.2274 300.695 53.5487 300.264 53.7808 299.702C54.0128 299.132 54.1289 298.435 54.1289 297.609C54.1289 296.785 54.0128 296.091 53.7808 295.53C53.5487 294.959 53.2274 294.529 52.8169 294.239C52.4064 293.942 51.9244 293.792 51.3711 293.792C50.8356 293.792 50.3581 293.942 49.9387 294.239C49.5192 294.529 49.1935 294.959 48.9615 295.53C48.7294 296.091 48.6134 296.785 48.6134 297.609C48.6134 298.435 48.7294 299.132 48.9615 299.702C49.1935 300.264 49.5192 300.695 49.9387 300.992C50.3581 301.282 50.8356 301.427 51.3711 301.427Z" fill="#B1B1B1"/>
<path d="M24.4887 353.939V345.12L24.917 345.567H22.2798V344.725H25.4525V353.939H24.4887ZM27.5319 351.517V350.833L32.4985 344.725H33.5695L28.643 350.833L28.1209 350.675H35.6578V351.517H27.5319ZM32.8198 353.939V351.517L32.8466 350.675V348.542H33.7837V353.939H32.8198ZM37.3445 348.397C37.1482 348.397 36.9787 348.327 36.8358 348.187C36.702 348.046 36.635 347.875 36.635 347.673C36.635 347.463 36.702 347.292 36.8358 347.16C36.9787 347.028 37.1482 346.963 37.3445 346.963C37.5409 346.963 37.706 347.028 37.8399 347.16C37.9827 347.292 38.0541 347.463 38.0541 347.673C38.0541 347.875 37.9827 348.046 37.8399 348.187C37.706 348.327 37.5409 348.397 37.3445 348.397ZM37.3445 354.005C37.1482 354.005 36.9787 353.935 36.8358 353.795C36.702 353.654 36.635 353.483 36.635 353.281C36.635 353.071 36.702 352.899 36.8358 352.768C36.9787 352.636 37.1482 352.57 37.3445 352.57C37.5409 352.57 37.706 352.636 37.8399 352.768C37.9827 352.899 38.0541 353.071 38.0541 353.281C38.0541 353.483 37.9827 353.654 37.8399 353.795C37.706 353.935 37.5409 354.005 37.3445 354.005ZM43.1935 354.018C42.4706 354.018 41.828 353.834 41.2658 353.465C40.7035 353.088 40.2618 352.553 39.9405 351.859C39.6192 351.158 39.4585 350.315 39.4585 349.332C39.4585 348.349 39.6192 347.511 39.9405 346.818C40.2618 346.116 40.7035 345.58 41.2658 345.212C41.828 344.834 42.4706 344.646 43.1935 344.646C43.9164 344.646 44.559 344.834 45.1213 345.212C45.6835 345.58 46.1253 346.116 46.4466 346.818C46.7768 347.511 46.9419 348.349 46.9419 349.332C46.9419 350.315 46.7768 351.158 46.4466 351.859C46.1253 352.553 45.6835 353.088 45.1213 353.465C44.559 353.834 43.9164 354.018 43.1935 354.018ZM43.1935 353.15C43.7469 353.15 44.2289 353.005 44.6393 352.715C45.0499 352.416 45.3712 351.987 45.6032 351.425C45.8353 350.855 45.9513 350.157 45.9513 349.332C45.9513 348.507 45.8353 347.814 45.6032 347.252C45.3712 346.682 45.0499 346.252 44.6393 345.962C44.2289 345.663 43.7469 345.515 43.1935 345.515C42.658 345.515 42.1806 345.663 41.7611 345.962C41.3417 346.252 41.0159 346.682 40.7838 347.252C40.5518 347.814 40.4358 348.507 40.4358 349.332C40.4358 350.157 40.5518 350.855 40.7838 351.425C41.0159 351.987 41.3417 352.416 41.7611 352.715C42.1806 353.005 42.658 353.15 43.1935 353.15ZM52.0573 354.018C51.3344 354.018 50.6918 353.834 50.1295 353.465C49.5673 353.088 49.1255 352.553 48.8042 351.859C48.4829 351.158 48.3223 350.315 48.3223 349.332C48.3223 348.349 48.4829 347.511 48.8042 346.818C49.1255 346.116 49.5673 345.58 50.1295 345.212C50.6918 344.834 51.3344 344.646 52.0573 344.646C52.7802 344.646 53.4228 344.834 53.985 345.212C54.5473 345.58 54.9891 346.116 55.3104 346.818C55.6405 347.511 55.8057 348.349 55.8057 349.332C55.8057 350.315 55.6405 351.158 55.3104 351.859C54.9891 352.553 54.5473 353.088 53.985 353.465C53.4228 353.834 52.7802 354.018 52.0573 354.018ZM52.0573 353.15C52.6106 353.15 53.0925 353.005 53.5031 352.715C53.9136 352.416 54.2349 351.987 54.467 351.425C54.699 350.855 54.815 350.157 54.815 349.332C54.815 348.507 54.699 347.814 54.467 347.252C54.2349 346.682 53.9136 346.252 53.5031 345.962C53.0925 345.663 52.6106 345.515 52.0573 345.515C51.5218 345.515 51.0443 345.663 50.6249 345.962C50.2054 346.252 49.8796 346.682 49.6476 347.252C49.4155 347.814 49.2996 348.507 49.2996 349.332C49.2996 350.157 49.4155 350.855 49.6476 351.425C49.8796 351.987 50.2054 352.416 50.6249 352.715C51.0443 353.005 51.5218 353.15 52.0573 353.15Z" fill="#B1B1B1"/>
<path d="M25.162 405.662V396.842L25.5904 397.29H22.9531V396.447H26.1259V405.662H25.162ZM31.3244 405.741C30.6551 405.741 30.0169 405.636 29.4101 405.425C28.8032 405.205 28.3213 404.916 27.9642 404.556L28.4328 403.806C28.7273 404.113 29.1289 404.367 29.6376 404.569C30.1553 404.771 30.713 404.872 31.311 404.872C32.1053 404.872 32.7077 404.701 33.1183 404.359C33.5377 404.007 33.7475 403.551 33.7475 402.99C33.7475 402.595 33.6493 402.257 33.453 401.976C33.2655 401.687 32.9443 401.463 32.4891 401.305C32.0339 401.147 31.4092 401.068 30.6149 401.068H28.6202L29.1022 396.447H34.2294V397.29H29.4904L29.9857 396.829L29.5707 400.699L29.0754 400.225H30.8291C31.7751 400.225 32.5337 400.339 33.1049 400.568C33.6761 400.796 34.0866 401.116 34.3365 401.529C34.5953 401.932 34.7247 402.406 34.7247 402.95C34.7247 403.468 34.5998 403.942 34.3499 404.372C34.1 404.793 33.7251 405.126 33.2254 405.372C32.7256 405.618 32.0919 405.741 31.3244 405.741ZM36.6713 400.12C36.4749 400.12 36.3054 400.049 36.1626 399.909C36.0287 399.769 35.9618 399.598 35.9618 399.396C35.9618 399.185 36.0287 399.014 36.1626 398.883C36.3054 398.751 36.4749 398.685 36.6713 398.685C36.8677 398.685 37.0328 398.751 37.1666 398.883C37.3094 399.014 37.3808 399.185 37.3808 399.396C37.3808 399.598 37.3094 399.769 37.1666 399.909C37.0328 400.049 36.8677 400.12 36.6713 400.12ZM36.6713 405.728C36.4749 405.728 36.3054 405.657 36.1626 405.517C36.0287 405.376 35.9618 405.205 35.9618 405.004C35.9618 404.793 36.0287 404.622 36.1626 404.49C36.3054 404.359 36.4749 404.293 36.6713 404.293C36.8677 404.293 37.0328 404.359 37.1666 404.49C37.3094 404.622 37.3808 404.793 37.3808 405.004C37.3808 405.205 37.3094 405.376 37.1666 405.517C37.0328 405.657 36.8677 405.728 36.6713 405.728ZM42.5203 405.741C41.7974 405.741 41.1548 405.557 40.5926 405.188C40.0303 404.81 39.5885 404.275 39.2672 403.582C38.9459 402.88 38.7853 402.037 38.7853 401.055C38.7853 400.072 38.9459 399.233 39.2672 398.54C39.5885 397.838 40.0303 397.303 40.5926 396.934C41.1548 396.557 41.7974 396.368 42.5203 396.368C43.2432 396.368 43.8858 396.557 44.448 396.934C45.0103 397.303 45.4521 397.838 45.7734 398.54C46.1036 399.233 46.2687 400.072 46.2687 401.055C46.2687 402.037 46.1036 402.88 45.7734 403.582C45.4521 404.275 45.0103 404.81 44.448 405.188C43.8858 405.557 43.2432 405.741 42.5203 405.741ZM42.5203 404.872C43.0737 404.872 43.5556 404.727 43.9661 404.438C44.3767 404.139 44.698 403.709 44.93 403.148C45.1621 402.577 45.278 401.879 45.278 401.055C45.278 400.23 45.1621 399.536 44.93 398.975C44.698 398.404 44.3767 397.974 43.9661 397.685C43.5556 397.386 43.0737 397.237 42.5203 397.237C41.9848 397.237 41.5074 397.386 41.0879 397.685C40.6684 397.974 40.3427 398.404 40.1106 398.975C39.8786 399.536 39.7626 400.23 39.7626 401.055C39.7626 401.879 39.8786 402.577 40.1106 403.148C40.3427 403.709 40.6684 404.139 41.0879 404.438C41.5074 404.727 41.9848 404.872 42.5203 404.872ZM51.3841 405.741C50.6612 405.741 50.0186 405.557 49.4563 405.188C48.8941 404.81 48.4523 404.275 48.131 403.582C47.8097 402.88 47.6491 402.037 47.6491 401.055C47.6491 400.072 47.8097 399.233 48.131 398.54C48.4523 397.838 48.8941 397.303 49.4563 396.934C50.0186 396.557 50.6612 396.368 51.3841 396.368C52.107 396.368 52.7495 396.557 53.3118 396.934C53.8741 397.303 54.3158 397.838 54.6371 398.54C54.9674 399.233 55.1325 400.072 55.1325 401.055C55.1325 402.037 54.9674 402.88 54.6371 403.582C54.3158 404.275 53.8741 404.81 53.3118 405.188C52.7495 405.557 52.107 405.741 51.3841 405.741ZM51.3841 404.872C51.9374 404.872 52.4193 404.727 52.8299 404.438C53.2404 404.139 53.5617 403.709 53.7937 403.148C54.0258 402.577 54.1418 401.879 54.1418 401.055C54.1418 400.23 54.0258 399.536 53.7937 398.975C53.5617 398.404 53.2404 397.974 52.8299 397.685C52.4193 397.386 51.9374 397.237 51.3841 397.237C50.8486 397.237 50.3711 397.386 49.9516 397.685C49.5322 397.974 49.2064 398.404 48.9744 398.975C48.7424 399.536 48.6263 400.23 48.6263 401.055C48.6263 401.879 48.7424 402.577 48.9744 403.148C49.2064 403.709 49.5322 404.139 49.9516 404.438C50.3711 404.727 50.8486 404.872 51.3841 404.872Z" fill="#B1B1B1"/>
<path d="M24.8744 457.384V448.564L25.3028 449.012H22.6655V448.169H25.8383V457.384H24.8744ZM31.9204 457.463C31.0904 457.463 30.3898 457.284 29.8187 456.923C29.2475 456.555 28.8146 456.028 28.5201 455.344C28.2256 454.651 28.0784 453.821 28.0784 452.856C28.0784 451.812 28.2568 450.939 28.6138 450.236C28.9797 449.525 29.484 448.99 30.1266 448.63C30.7692 448.271 31.5143 448.09 32.3622 448.09C32.7817 448.09 33.1833 448.13 33.5671 448.209C33.9508 448.288 34.29 448.415 34.5845 448.591L34.1963 449.354C33.9553 449.196 33.6786 449.087 33.3663 449.025C33.0538 448.955 32.7237 448.92 32.3756 448.92C31.3671 448.92 30.5594 449.236 29.9525 449.867C29.3546 450.499 29.0556 451.443 29.0556 452.698C29.0556 452.891 29.0645 453.132 29.0824 453.422C29.1092 453.703 29.1627 453.984 29.243 454.264L28.9083 454.014C29.0065 453.558 29.1983 453.172 29.484 452.856C29.7696 452.531 30.1266 452.285 30.555 452.118C30.9833 451.952 31.4519 451.868 31.9606 451.868C32.5853 451.868 33.1342 451.983 33.6072 452.211C34.0802 452.439 34.4506 452.759 34.7183 453.171C34.9861 453.585 35.12 454.072 35.12 454.633C35.12 455.204 34.9816 455.704 34.705 456.133C34.4283 456.555 34.0445 456.884 33.5537 457.121C33.0717 457.349 32.5273 457.463 31.9204 457.463ZM31.8803 456.66C32.3265 456.66 32.7192 456.581 33.0584 456.423C33.4064 456.257 33.6786 456.024 33.875 455.725C34.0712 455.418 34.1695 455.063 34.1695 454.659C34.1695 454.053 33.9553 453.571 33.5269 453.211C33.1074 452.851 32.5363 452.671 31.8133 452.671C31.3314 452.671 30.9119 452.759 30.555 452.935C30.1979 453.111 29.9168 453.352 29.7116 453.659C29.5063 453.957 29.4037 454.299 29.4037 454.685C29.4037 455.019 29.4974 455.339 29.6848 455.646C29.8722 455.945 30.1488 456.191 30.5148 456.383C30.8896 456.568 31.3448 456.66 31.8803 456.66ZM36.959 451.842C36.7626 451.842 36.593 451.772 36.4503 451.631C36.3164 451.491 36.2495 451.32 36.2495 451.118C36.2495 450.907 36.3164 450.736 36.4503 450.605C36.593 450.473 36.7626 450.407 36.959 450.407C37.1553 450.407 37.3205 450.473 37.4543 450.605C37.5971 450.736 37.6685 450.907 37.6685 451.118C37.6685 451.32 37.5971 451.491 37.4543 451.631C37.3205 451.772 37.1553 451.842 36.959 451.842ZM36.959 457.45C36.7626 457.45 36.593 457.38 36.4503 457.239C36.3164 457.099 36.2495 456.928 36.2495 456.726C36.2495 456.515 36.3164 456.344 36.4503 456.212C36.593 456.081 36.7626 456.015 36.959 456.015C37.1553 456.015 37.3205 456.081 37.4543 456.212C37.5971 456.344 37.6685 456.515 37.6685 456.726C37.6685 456.928 37.5971 457.099 37.4543 457.239C37.3205 457.38 37.1553 457.45 36.959 457.45ZM42.808 457.463C42.0851 457.463 41.4425 457.279 40.8803 456.91C40.318 456.533 39.8762 455.998 39.5549 455.304C39.2337 454.602 39.073 453.76 39.073 452.777C39.073 451.794 39.2337 450.956 39.5549 450.262C39.8762 449.561 40.318 449.025 40.8803 448.656C41.4425 448.28 42.0851 448.09 42.808 448.09C43.5309 448.09 44.1735 448.28 44.7357 448.656C45.298 449.025 45.7398 449.561 46.0611 450.262C46.3913 450.956 46.5564 451.794 46.5564 452.777C46.5564 453.76 46.3913 454.602 46.0611 455.304C45.7398 455.998 45.298 456.533 44.7357 456.91C44.1735 457.279 43.5309 457.463 42.808 457.463ZM42.808 456.594C43.3613 456.594 43.8432 456.449 44.2538 456.16C44.6644 455.862 44.9857 455.432 45.2177 454.87C45.4497 454.299 45.5657 453.602 45.5657 452.777C45.5657 451.952 45.4497 451.259 45.2177 450.697C44.9857 450.127 44.6644 449.696 44.2538 449.407C43.8432 449.109 43.3613 448.959 42.808 448.959C42.2725 448.959 41.795 449.109 41.3756 449.407C40.9562 449.696 40.6303 450.127 40.3983 450.697C40.1663 451.259 40.0503 451.952 40.0503 452.777C40.0503 453.602 40.1663 454.299 40.3983 454.87C40.6303 455.432 40.9562 455.862 41.3756 456.16C41.795 456.449 42.2725 456.594 42.808 456.594ZM51.6717 457.463C50.9488 457.463 50.3062 457.279 49.7439 456.91C49.1817 456.533 48.7399 455.998 48.4186 455.304C48.0973 454.602 47.9367 453.76 47.9367 452.777C47.9367 451.794 48.0973 450.956 48.4186 450.262C48.7399 449.561 49.1817 449.025 49.7439 448.656C50.3062 448.28 50.9488 448.09 51.6717 448.09C52.3946 448.09 53.0372 448.28 53.5994 448.656C54.1617 449.025 54.6035 449.561 54.9247 450.262C55.255 450.956 55.4201 451.794 55.4201 452.777C55.4201 453.76 55.255 454.602 54.9247 455.304C54.6035 455.998 54.1617 456.533 53.5994 456.91C53.0372 457.279 52.3946 457.463 51.6717 457.463ZM51.6717 456.594C52.2251 456.594 52.707 456.449 53.1175 456.16C53.5281 455.862 53.8493 455.432 54.0814 454.87C54.3135 454.299 54.4294 453.602 54.4294 452.777C54.4294 451.952 54.3135 451.259 54.0814 450.697C53.8493 450.127 53.5281 449.696 53.1175 449.407C52.707 449.109 52.2251 448.959 51.6717 448.959C51.1362 448.959 50.6588 449.109 50.2393 449.407C49.8198 449.696 49.4941 450.127 49.262 450.697C49.03 451.259 48.9139 451.952 48.9139 452.777C48.9139 453.602 49.03 454.299 49.262 454.87C49.4941 455.432 49.8198 455.862 50.2393 456.16C50.6588 456.449 51.1362 456.594 51.6717 456.594Z" fill="#B1B1B1"/>
<path d="M25.1425 509.107V500.287L25.5709 500.734H22.9336V499.892H26.1063V509.107H25.1425ZM29.993 509.107L34.0359 500.313L34.3304 500.734H28.5338L29.0292 500.274V502.459H28.0787V499.892H34.9596V500.563L31.0372 509.107H29.993ZM36.6911 503.565C36.4947 503.565 36.3251 503.495 36.1824 503.354C36.0485 503.213 35.9816 503.042 35.9816 502.841C35.9816 502.63 36.0485 502.459 36.1824 502.327C36.3251 502.196 36.4947 502.13 36.6911 502.13C36.8874 502.13 37.0525 502.196 37.1864 502.327C37.3292 502.459 37.4006 502.63 37.4006 502.841C37.4006 503.042 37.3292 503.213 37.1864 503.354C37.0525 503.495 36.8874 503.565 36.6911 503.565ZM36.6911 509.172C36.4947 509.172 36.3251 509.102 36.1824 508.962C36.0485 508.821 35.9816 508.65 35.9816 508.448C35.9816 508.238 36.0485 508.067 36.1824 507.935C36.3251 507.803 36.4947 507.738 36.6911 507.738C36.8874 507.738 37.0525 507.803 37.1864 507.935C37.3292 508.067 37.4006 508.238 37.4006 508.448C37.4006 508.65 37.3292 508.821 37.1864 508.962C37.0525 509.102 36.8874 509.172 36.6911 509.172ZM42.5401 509.186C41.8172 509.186 41.1746 509.001 40.6123 508.633C40.0501 508.255 39.6083 507.72 39.287 507.027C38.9657 506.325 38.8051 505.482 38.8051 504.499C38.8051 503.516 38.9657 502.679 39.287 501.985C39.6083 501.283 40.0501 500.748 40.6123 500.379C41.1746 500.001 41.8172 499.813 42.5401 499.813C43.263 499.813 43.9056 500.001 44.4678 500.379C45.0301 500.748 45.4719 501.283 45.7931 501.985C46.1233 502.679 46.2885 503.516 46.2885 504.499C46.2885 505.482 46.1233 506.325 45.7931 507.027C45.4719 507.72 45.0301 508.255 44.4678 508.633C43.9056 509.001 43.263 509.186 42.5401 509.186ZM42.5401 508.317C43.0934 508.317 43.5753 508.172 43.9859 507.882C44.3964 507.584 44.7177 507.154 44.9498 506.592C45.1818 506.022 45.2978 505.324 45.2978 504.499C45.2978 503.674 45.1818 502.981 44.9498 502.419C44.7177 501.849 44.3964 501.419 43.9859 501.129C43.5753 500.831 43.0934 500.682 42.5401 500.682C42.0046 500.682 41.5271 500.831 41.1077 501.129C40.6881 501.419 40.3624 501.849 40.1304 502.419C39.8983 502.981 39.7823 503.674 39.7823 504.499C39.7823 505.324 39.8983 506.022 40.1304 506.592C40.3624 507.154 40.6881 507.584 41.1077 507.882C41.5271 508.172 42.0046 508.317 42.5401 508.317ZM51.4038 509.186C50.6809 509.186 50.0383 509.001 49.476 508.633C48.9138 508.255 48.472 507.72 48.1507 507.027C47.8294 506.325 47.6688 505.482 47.6688 504.499C47.6688 503.516 47.8294 502.679 48.1507 501.985C48.472 501.283 48.9138 500.748 49.476 500.379C50.0383 500.001 50.6809 499.813 51.4038 499.813C52.1267 499.813 52.7692 500.001 53.3315 500.379C53.8938 500.748 54.3355 501.283 54.6568 501.985C54.9871 502.679 55.1522 503.516 55.1522 504.499C55.1522 505.482 54.9871 506.325 54.6568 507.027C54.3355 507.72 53.8938 508.255 53.3315 508.633C52.7692 509.001 52.1267 509.186 51.4038 509.186ZM51.4038 508.317C51.9572 508.317 52.4391 508.172 52.8496 507.882C53.2601 507.584 53.5814 507.154 53.8134 506.592C54.0455 506.022 54.1615 505.324 54.1615 504.499C54.1615 503.674 54.0455 502.981 53.8134 502.419C53.5814 501.849 53.2601 501.419 52.8496 501.129C52.4391 500.831 51.9572 500.682 51.4038 500.682C50.8683 500.682 50.3909 500.831 49.9713 501.129C49.5519 501.419 49.2262 501.849 48.9941 502.419C48.7621 502.981 48.646 503.674 48.646 504.499C48.646 505.324 48.7621 506.022 48.9941 506.592C49.2262 507.154 49.5519 507.584 49.9713 507.882C50.3909 508.172 50.8683 508.317 51.4038 508.317Z" fill="#B1B1B1"/>
<path d="M24.6849 560.829V552.01L25.1133 552.457H22.4761V551.615H25.6488V560.829H24.6849ZM31.4498 560.908C30.7001 560.908 30.0531 560.803 29.5087 560.592C28.9732 560.382 28.5582 560.079 28.2636 559.684C27.9781 559.28 27.8353 558.806 27.8353 558.262C27.8353 557.736 27.9736 557.288 28.2503 556.92C28.5358 556.542 28.9464 556.252 29.4819 556.051C30.0263 555.848 30.6823 555.748 31.4498 555.748C32.2084 555.748 32.8599 555.848 33.4043 556.051C33.9487 556.252 34.3637 556.542 34.6493 556.92C34.9438 557.288 35.0911 557.736 35.0911 558.262C35.0911 558.806 34.9438 559.28 34.6493 559.684C34.3548 560.079 33.9353 560.382 33.3909 560.592C32.8465 560.803 32.1995 560.908 31.4498 560.908ZM31.4498 560.105C32.2798 560.105 32.9268 559.938 33.3909 559.605C33.8639 559.271 34.1004 558.819 34.1004 558.249C34.1004 557.678 33.8639 557.231 33.3909 556.906C32.9268 556.572 32.2798 556.406 31.4498 556.406C30.6198 556.406 29.9728 556.572 29.5087 556.906C29.0445 557.231 28.8125 557.678 28.8125 558.249C28.8125 558.819 29.0445 559.271 29.5087 559.605C29.9728 559.938 30.6198 560.105 31.4498 560.105ZM31.4498 556.288C30.7537 556.288 30.1602 556.196 29.6693 556.011C29.1874 555.827 28.817 555.564 28.5582 555.222C28.2994 554.87 28.1699 554.453 28.1699 553.971C28.1699 553.462 28.3038 553.027 28.5716 552.668C28.8482 552.299 29.232 552.018 29.7228 551.825C30.2137 551.632 30.7894 551.536 31.4498 551.536C32.1102 551.536 32.6858 551.632 33.1767 551.825C33.6765 552.018 34.0647 552.299 34.3414 552.668C34.6181 553.027 34.7564 553.462 34.7564 553.971C34.7564 554.453 34.627 554.87 34.3682 555.222C34.1094 555.564 33.73 555.827 33.2303 556.011C32.7394 556.196 32.1459 556.288 31.4498 556.288ZM31.4498 555.656C32.1816 555.656 32.7528 555.506 33.1633 555.208C33.5739 554.91 33.7791 554.511 33.7791 554.01C33.7791 553.484 33.5649 553.076 33.1366 552.786C32.7171 552.488 32.1549 552.339 31.4498 552.339C30.7447 552.339 30.1824 552.488 29.763 552.786C29.3436 553.076 29.1338 553.479 29.1338 553.997C29.1338 554.506 29.3346 554.91 29.7362 555.208C30.1468 555.506 30.7179 555.656 31.4498 555.656ZM37.1486 555.287C36.9523 555.287 36.7827 555.217 36.6399 555.077C36.506 554.936 36.4391 554.765 36.4391 554.563C36.4391 554.353 36.506 554.182 36.6399 554.05C36.7827 553.918 36.9523 553.852 37.1486 553.852C37.345 553.852 37.51 553.918 37.6439 554.05C37.7867 554.182 37.8581 554.353 37.8581 554.563C37.8581 554.765 37.7867 554.936 37.6439 555.077C37.51 555.217 37.345 555.287 37.1486 555.287ZM37.1486 560.895C36.9523 560.895 36.7827 560.824 36.6399 560.684C36.506 560.544 36.4391 560.373 36.4391 560.171C36.4391 559.96 36.506 559.789 36.6399 559.658C36.7827 559.526 36.9523 559.46 37.1486 559.46C37.345 559.46 37.51 559.526 37.6439 559.658C37.7867 559.789 37.8581 559.96 37.8581 560.171C37.8581 560.373 37.7867 560.544 37.6439 560.684C37.51 560.824 37.345 560.895 37.1486 560.895ZM42.9977 560.908C42.2748 560.908 41.6322 560.724 41.0699 560.355C40.5077 559.978 40.0659 559.442 39.7446 558.749C39.4233 558.047 39.2627 557.204 39.2627 556.222C39.2627 555.239 39.4233 554.4 39.7446 553.708C40.0659 553.005 40.5077 552.47 41.0699 552.102C41.6322 551.724 42.2748 551.536 42.9977 551.536C43.7206 551.536 44.3631 551.724 44.9254 552.102C45.4877 552.47 45.9294 553.005 46.2507 553.708C46.5809 554.4 46.746 555.239 46.746 556.222C46.746 557.204 46.5809 558.047 46.2507 558.749C45.9294 559.442 45.4877 559.978 44.9254 560.355C44.3631 560.724 43.7206 560.908 42.9977 560.908ZM42.9977 560.039C43.551 560.039 44.0329 559.895 44.4435 559.605C44.8539 559.306 45.1752 558.876 45.4073 558.315C45.6393 557.744 45.7554 557.046 45.7554 556.222C45.7554 555.397 45.6393 554.703 45.4073 554.142C45.1752 553.571 44.8539 553.142 44.4435 552.852C44.0329 552.553 43.551 552.404 42.9977 552.404C42.4622 552.404 41.9847 552.553 41.5652 552.852C41.1457 553.142 40.82 553.571 40.588 554.142C40.3559 554.703 40.2399 555.397 40.2399 556.222C40.2399 557.046 40.3559 557.744 40.588 558.315C40.82 558.876 41.1457 559.306 41.5652 559.605C41.9847 559.895 42.4622 560.039 42.9977 560.039ZM51.8613 560.908C51.1384 560.908 50.4959 560.724 49.9336 560.355C49.3713 559.978 48.9296 559.442 48.6083 558.749C48.287 558.047 48.1263 557.204 48.1263 556.222C48.1263 555.239 48.287 554.4 48.6083 553.708C48.9296 553.005 49.3713 552.47 49.9336 552.102C50.4959 551.724 51.1384 551.536 51.8613 551.536C52.5842 551.536 53.2268 551.724 53.7891 552.102C54.3513 552.47 54.7931 553.005 55.1144 553.708C55.4446 554.4 55.6097 555.239 55.6097 556.222C55.6097 557.204 55.4446 558.047 55.1144 558.749C54.7931 559.442 54.3513 559.978 53.7891 560.355C53.2268 560.724 52.5842 560.908 51.8613 560.908ZM51.8613 560.039C52.4146 560.039 52.8966 559.895 53.3071 559.605C53.7177 559.306 54.039 558.876 54.271 558.315C54.503 557.744 54.6191 557.046 54.6191 556.222C54.6191 555.397 54.503 554.703 54.271 554.142C54.039 553.571 53.7177 553.142 53.3071 552.852C52.8966 552.553 52.4146 552.404 51.8613 552.404C51.3259 552.404 50.8483 552.553 50.4289 552.852C50.0095 553.142 49.6837 553.571 49.4517 554.142C49.2196 554.703 49.1036 555.397 49.1036 556.222C49.1036 557.046 49.2196 557.744 49.4517 558.315C49.6837 558.876 50.0095 559.306 50.4289 559.605C50.8483 559.895 51.3259 560.039 51.8613 560.039Z" fill="#B1B1B1"/>
<path d="M24.8744 612.551V603.731L25.3028 604.179H22.6655V603.337H25.8383V612.551H24.8744ZM30.9967 603.258C31.8267 603.258 32.5273 603.442 33.0985 603.81C33.6696 604.171 34.1025 604.692 34.3971 605.377C34.6916 606.061 34.8388 606.891 34.8388 607.865C34.8388 608.901 34.6558 609.774 34.29 610.484C33.9329 611.195 33.4332 611.731 32.7906 612.09C32.148 612.451 31.4028 612.63 30.555 612.63C30.1354 612.63 29.7338 612.591 29.3501 612.512C28.9753 612.433 28.6361 612.306 28.3327 612.13L28.7209 611.366C28.9619 611.524 29.2385 611.639 29.5509 611.709C29.8722 611.77 30.2024 611.801 30.5416 611.801C31.55 611.801 32.3533 611.485 32.9513 610.853C33.5581 610.221 33.8616 609.278 33.8616 608.023C33.8616 607.821 33.8482 607.58 33.8214 607.299C33.8035 607.018 33.7545 606.738 33.6742 606.456L34.0088 606.706C33.9196 607.163 33.7277 607.554 33.4332 607.878C33.1475 608.194 32.7906 608.436 32.3622 608.602C31.9427 608.769 31.4742 608.852 30.9566 608.852C30.3408 608.852 29.7919 608.739 29.31 608.51C28.8369 608.282 28.4666 607.962 28.1988 607.549C27.9311 607.137 27.7972 606.65 27.7972 606.088C27.7972 605.509 27.9355 605.008 28.2122 604.587C28.4888 604.166 28.8682 603.842 29.3501 603.613C29.8409 603.376 30.3898 603.258 30.9967 603.258ZM31.0369 604.061C30.5906 604.061 30.1935 604.144 29.8454 604.311C29.5063 604.469 29.2385 604.697 29.0422 604.995C28.8458 605.294 28.7477 605.649 28.7477 606.061C28.7477 606.667 28.9574 607.15 29.3769 607.509C29.8053 607.87 30.3809 608.049 31.1038 608.049C31.5858 608.049 32.0052 607.962 32.3622 607.786C32.7281 607.611 33.0092 607.37 33.2056 607.062C33.4108 606.755 33.5135 606.413 33.5135 606.035C33.5135 605.693 33.4198 605.373 33.2324 605.074C33.045 604.776 32.7683 604.534 32.4024 604.35C32.0364 604.158 31.5813 604.061 31.0369 604.061ZM36.959 607.009C36.7626 607.009 36.593 606.939 36.4503 606.799C36.3164 606.659 36.2495 606.488 36.2495 606.285C36.2495 606.075 36.3164 605.903 36.4503 605.772C36.593 605.64 36.7626 605.574 36.959 605.574C37.1553 605.574 37.3205 605.64 37.4543 605.772C37.5971 605.903 37.6685 606.075 37.6685 606.285C37.6685 606.488 37.5971 606.659 37.4543 606.799C37.3205 606.939 37.1553 607.009 36.959 607.009ZM36.959 612.617C36.7626 612.617 36.593 612.547 36.4503 612.406C36.3164 612.266 36.2495 612.095 36.2495 611.893C36.2495 611.682 36.3164 611.511 36.4503 611.38C36.593 611.248 36.7626 611.182 36.959 611.182C37.1553 611.182 37.3205 611.248 37.4543 611.38C37.5971 611.511 37.6685 611.682 37.6685 611.893C37.6685 612.095 37.5971 612.266 37.4543 612.406C37.3205 612.547 37.1553 612.617 36.959 612.617ZM42.808 612.63C42.0851 612.63 41.4425 612.446 40.8803 612.077C40.318 611.7 39.8762 611.165 39.5549 610.471C39.2337 609.769 39.073 608.927 39.073 607.944C39.073 606.961 39.2337 606.123 39.5549 605.43C39.8762 604.728 40.318 604.192 40.8803 603.824C41.4425 603.447 42.0851 603.258 42.808 603.258C43.5309 603.258 44.1735 603.447 44.7357 603.824C45.298 604.192 45.7398 604.728 46.0611 605.43C46.3913 606.123 46.5564 606.961 46.5564 607.944C46.5564 608.927 46.3913 609.769 46.0611 610.471C45.7398 611.165 45.298 611.7 44.7357 612.077C44.1735 612.446 43.5309 612.63 42.808 612.63ZM42.808 611.761C43.3613 611.761 43.8432 611.617 44.2538 611.327C44.6644 611.029 44.9857 610.599 45.2177 610.037C45.4497 609.467 45.5657 608.769 45.5657 607.944C45.5657 607.119 45.4497 606.426 45.2177 605.864C44.9857 605.294 44.6644 604.864 44.2538 604.574C43.8432 604.276 43.3613 604.126 42.808 604.126C42.2725 604.126 41.795 604.276 41.3756 604.574C40.9562 604.864 40.6303 605.294 40.3983 605.864C40.1663 606.426 40.0503 607.119 40.0503 607.944C40.0503 608.769 40.1663 609.467 40.3983 610.037C40.6303 610.599 40.9562 611.029 41.3756 611.327C41.795 611.617 42.2725 611.761 42.808 611.761ZM51.6717 612.63C50.9488 612.63 50.3062 612.446 49.7439 612.077C49.1817 611.7 48.7399 611.165 48.4186 610.471C48.0973 609.769 47.9367 608.927 47.9367 607.944C47.9367 606.961 48.0973 606.123 48.4186 605.43C48.7399 604.728 49.1817 604.192 49.7439 603.824C50.3062 603.447 50.9488 603.258 51.6717 603.258C52.3946 603.258 53.0372 603.447 53.5994 603.824C54.1617 604.192 54.6035 604.728 54.9247 605.43C55.255 606.123 55.4201 606.961 55.4201 607.944C55.4201 608.927 55.255 609.769 54.9247 610.471C54.6035 611.165 54.1617 611.7 53.5994 612.077C53.0372 612.446 52.3946 612.63 51.6717 612.63ZM51.6717 611.761C52.2251 611.761 52.707 611.617 53.1175 611.327C53.5281 611.029 53.8493 610.599 54.0814 610.037C54.3135 609.467 54.4294 608.769 54.4294 607.944C54.4294 607.119 54.3135 606.426 54.0814 605.864C53.8493 605.294 53.5281 604.864 53.1175 604.574C52.707 604.276 52.2251 604.126 51.6717 604.126C51.1362 604.126 50.6588 604.276 50.2393 604.574C49.8198 604.864 49.4941 605.294 49.262 605.864C49.03 606.426 48.9139 607.119 48.9139 607.944C48.9139 608.769 49.03 609.467 49.262 610.037C49.4941 610.599 49.8198 611.029 50.2393 611.327C50.6588 611.617 51.1362 611.761 51.6717 611.761Z" fill="#B1B1B1"/>
<path d="M21.3412 664.274V663.602L25.2368 659.851C25.5939 659.509 25.8616 659.21 26.0401 658.956C26.2185 658.692 26.339 658.446 26.4015 658.218C26.464 657.991 26.4952 657.775 26.4952 657.573C26.4952 657.038 26.3078 656.617 25.933 656.31C25.5671 656.003 25.0226 655.849 24.2997 655.849C23.7464 655.849 23.2555 655.932 22.8272 656.099C22.4077 656.266 22.0463 656.525 21.7428 656.876L21.0601 656.297C21.4259 655.875 21.8945 655.55 22.4657 655.322C23.0369 655.095 23.675 654.98 24.3801 654.98C25.0137 654.98 25.5626 655.081 26.0267 655.283C26.4908 655.476 26.8477 655.761 27.0976 656.139C27.3564 656.516 27.4859 656.959 27.4859 657.468C27.4859 657.767 27.4413 658.061 27.352 658.35C27.2717 658.64 27.12 658.947 26.8968 659.272C26.6826 659.588 26.3658 659.947 25.9463 660.351L22.372 663.8L22.1043 663.431H27.9143V664.274H21.3412ZM32.8328 664.353C32.1099 664.353 31.4673 664.168 30.905 663.8C30.3428 663.422 29.901 662.888 29.5797 662.194C29.2584 661.492 29.0978 660.65 29.0978 659.666C29.0978 658.683 29.2584 657.846 29.5797 657.152C29.901 656.45 30.3428 655.915 30.905 655.546C31.4673 655.169 32.1099 654.98 32.8328 654.98C33.5557 654.98 34.1982 655.169 34.7605 655.546C35.3228 655.915 35.7645 656.45 36.0858 657.152C36.4161 657.846 36.5811 658.683 36.5811 659.666C36.5811 660.65 36.4161 661.492 36.0858 662.194C35.7645 662.888 35.3228 663.422 34.7605 663.8C34.1982 664.168 33.5557 664.353 32.8328 664.353ZM32.8328 663.484C33.3861 663.484 33.868 663.339 34.2786 663.05C34.6891 662.751 35.0104 662.321 35.2424 661.76C35.4745 661.189 35.5905 660.492 35.5905 659.666C35.5905 658.841 35.4745 658.149 35.2424 657.587C35.0104 657.016 34.6891 656.586 34.2786 656.297C33.868 655.998 33.3861 655.849 32.8328 655.849C32.2973 655.849 31.8198 655.998 31.4003 656.297C30.9809 656.586 30.6551 657.016 30.4231 657.587C30.1911 658.149 30.075 658.841 30.075 659.666C30.075 660.492 30.1911 661.189 30.4231 661.76C30.6551 662.321 30.9809 662.751 31.4003 663.05C31.8198 663.339 32.2973 663.484 32.8328 663.484ZM38.6844 658.732C38.4881 658.732 38.3185 658.662 38.1757 658.521C38.0418 658.381 37.9749 658.209 37.9749 658.008C37.9749 657.797 38.0418 657.626 38.1757 657.494C38.3185 657.363 38.4881 657.297 38.6844 657.297C38.8807 657.297 39.0459 657.363 39.1797 657.494C39.3225 657.626 39.3939 657.797 39.3939 658.008C39.3939 658.209 39.3225 658.381 39.1797 658.521C39.0459 658.662 38.8807 658.732 38.6844 658.732ZM38.6844 664.34C38.4881 664.34 38.3185 664.27 38.1757 664.129C38.0418 663.988 37.9749 663.817 37.9749 663.616C37.9749 663.405 38.0418 663.234 38.1757 663.102C38.3185 662.971 38.4881 662.905 38.6844 662.905C38.8807 662.905 39.0459 662.971 39.1797 663.102C39.3225 663.234 39.3939 663.405 39.3939 663.616C39.3939 663.817 39.3225 663.988 39.1797 664.129C39.0459 664.27 38.8807 664.34 38.6844 664.34ZM44.5334 664.353C43.8105 664.353 43.1679 664.168 42.6057 663.8C42.0434 663.422 41.6016 662.888 41.2804 662.194C40.9591 661.492 40.7984 660.65 40.7984 659.666C40.7984 658.683 40.9591 657.846 41.2804 657.152C41.6016 656.45 42.0434 655.915 42.6057 655.546C43.1679 655.169 43.8105 654.98 44.5334 654.98C45.2563 654.98 45.8989 655.169 46.4612 655.546C47.0234 655.915 47.4652 656.45 47.7865 657.152C48.1167 657.846 48.2818 658.683 48.2818 659.666C48.2818 660.65 48.1167 661.492 47.7865 662.194C47.4652 662.888 47.0234 663.422 46.4612 663.8C45.8989 664.168 45.2563 664.353 44.5334 664.353ZM44.5334 663.484C45.0867 663.484 45.5687 663.339 45.9792 663.05C46.3898 662.751 46.7111 662.321 46.9431 661.76C47.1751 661.189 47.2912 660.492 47.2912 659.666C47.2912 658.841 47.1751 658.149 46.9431 657.587C46.7111 657.016 46.3898 656.586 45.9792 656.297C45.5687 655.998 45.0867 655.849 44.5334 655.849C43.9979 655.849 43.5204 655.998 43.101 656.297C42.6816 656.586 42.3558 657.016 42.1237 657.587C41.8917 658.149 41.7757 658.841 41.7757 659.666C41.7757 660.492 41.8917 661.189 42.1237 661.76C42.3558 662.321 42.6816 662.751 43.101 663.05C43.5204 663.339 43.9979 663.484 44.5334 663.484ZM53.3971 664.353C52.6742 664.353 52.0316 664.168 51.4694 663.8C50.9071 663.422 50.4653 662.888 50.144 662.194C49.8227 661.492 49.6621 660.65 49.6621 659.666C49.6621 658.683 49.8227 657.846 50.144 657.152C50.4653 656.45 50.9071 655.915 51.4694 655.546C52.0316 655.169 52.6742 654.98 53.3971 654.98C54.12 654.98 54.7626 655.169 55.3248 655.546C55.8871 655.915 56.3289 656.45 56.6502 657.152C56.9804 657.846 57.1455 658.683 57.1455 659.666C57.1455 660.65 56.9804 661.492 56.6502 662.194C56.3289 662.888 55.8871 663.422 55.3248 663.8C54.7626 664.168 54.12 664.353 53.3971 664.353ZM53.3971 663.484C53.9505 663.484 54.4324 663.339 54.8429 663.05C55.2535 662.751 55.5748 662.321 55.8068 661.76C56.0389 661.189 56.1548 660.492 56.1548 659.666C56.1548 658.841 56.0389 658.149 55.8068 657.587C55.5748 657.016 55.2535 656.586 54.8429 656.297C54.4324 655.998 53.9505 655.849 53.3971 655.849C52.8616 655.849 52.3842 655.998 51.9647 656.297C51.5452 656.586 51.2195 657.016 50.9874 657.587C50.7554 658.149 50.6394 658.841 50.6394 659.666C50.6394 660.492 50.7554 661.189 50.9874 661.76C51.2195 662.321 51.5452 662.751 51.9647 663.05C52.3842 663.339 52.8616 663.484 53.3971 663.484Z" fill="#B1B1B1"/>
<path d="M23.3417 715.996V715.325L27.2373 711.573C27.5943 711.231 27.8621 710.933 28.0405 710.678C28.2191 710.415 28.3396 710.169 28.402 709.941C28.4645 709.713 28.4957 709.498 28.4957 709.296C28.4957 708.761 28.3083 708.339 27.9334 708.032C27.5676 707.726 27.0231 707.572 26.3002 707.572C25.7469 707.572 25.256 707.655 24.8276 707.822C24.4082 707.989 24.0468 708.247 23.7433 708.598L23.0605 708.019C23.4265 707.598 23.8951 707.273 24.4662 707.045C25.0374 706.817 25.6755 706.703 26.3805 706.703C27.0143 706.703 27.5631 706.804 28.0272 707.006C28.4913 707.199 28.8483 707.484 29.0981 707.861C29.357 708.239 29.4864 708.682 29.4864 709.191C29.4864 709.489 29.4418 709.783 29.3525 710.073C29.2722 710.362 29.1205 710.669 28.8973 710.994C28.6831 711.31 28.3664 711.67 27.9468 712.074L24.3725 715.523L24.1047 715.154H29.9147V715.996H23.3417ZM32.7577 715.996V707.177L33.186 707.624H30.5488V706.782H33.7215V715.996H32.7577ZM36.6844 710.455C36.4881 710.455 36.3185 710.385 36.1757 710.244C36.0418 710.103 35.9749 709.932 35.9749 709.731C35.9749 709.52 36.0418 709.349 36.1757 709.217C36.3185 709.085 36.4881 709.02 36.6844 709.02C36.8808 709.02 37.0459 709.085 37.1798 709.217C37.3226 709.349 37.3939 709.52 37.3939 709.731C37.3939 709.932 37.3226 710.103 37.1798 710.244C37.0459 710.385 36.8808 710.455 36.6844 710.455ZM36.6844 716.062C36.4881 716.062 36.3185 715.992 36.1757 715.852C36.0418 715.711 35.9749 715.54 35.9749 715.338C35.9749 715.128 36.0418 714.957 36.1757 714.825C36.3185 714.693 36.4881 714.627 36.6844 714.627C36.8808 714.627 37.0459 714.693 37.1798 714.825C37.3226 714.957 37.3939 715.128 37.3939 715.338C37.3939 715.54 37.3226 715.711 37.1798 715.852C37.0459 715.992 36.8808 716.062 36.6844 716.062ZM42.5335 716.075C41.8106 716.075 41.168 715.891 40.6058 715.523C40.0435 715.145 39.6017 714.61 39.2804 713.917C38.9591 713.215 38.7985 712.372 38.7985 711.389C38.7985 710.406 38.9591 709.568 39.2804 708.875C39.6017 708.173 40.0435 707.637 40.6058 707.269C41.168 706.891 41.8106 706.703 42.5335 706.703C43.2564 706.703 43.899 706.891 44.4612 707.269C45.0235 707.637 45.4653 708.173 45.7866 708.875C46.1167 709.568 46.2819 710.406 46.2819 711.389C46.2819 712.372 46.1167 713.215 45.7866 713.917C45.4653 714.61 45.0235 715.145 44.4612 715.523C43.899 715.891 43.2564 716.075 42.5335 716.075ZM42.5335 715.207C43.0868 715.207 43.5687 715.062 43.9793 714.772C44.3898 714.474 44.7111 714.044 44.9432 713.482C45.1752 712.912 45.2912 712.214 45.2912 711.389C45.2912 710.564 45.1752 709.871 44.9432 709.309C44.7111 708.739 44.3898 708.309 43.9793 708.019C43.5687 707.721 43.0868 707.572 42.5335 707.572C41.998 707.572 41.5205 707.721 41.1011 708.019C40.6816 708.309 40.3558 708.739 40.1238 709.309C39.8917 709.871 39.7758 710.564 39.7758 711.389C39.7758 712.214 39.8917 712.912 40.1238 713.482C40.3558 714.044 40.6816 714.474 41.1011 714.772C41.5205 715.062 41.998 715.207 42.5335 715.207ZM51.3972 716.075C50.6743 716.075 50.0317 715.891 49.4694 715.523C48.9072 715.145 48.4654 714.61 48.1441 713.917C47.8228 713.215 47.6622 712.372 47.6622 711.389C47.6622 710.406 47.8228 709.568 48.1441 708.875C48.4654 708.173 48.9072 707.637 49.4694 707.269C50.0317 706.891 50.6743 706.703 51.3972 706.703C52.1201 706.703 52.7627 706.891 53.3249 707.269C53.8872 707.637 54.329 708.173 54.6502 708.875C54.9805 709.568 55.1456 710.406 55.1456 711.389C55.1456 712.372 54.9805 713.215 54.6502 713.917C54.329 714.61 53.8872 715.145 53.3249 715.523C52.7627 715.891 52.1201 716.075 51.3972 716.075ZM51.3972 715.207C51.9505 715.207 52.4324 715.062 52.843 714.772C53.2536 714.474 53.5748 714.044 53.8069 713.482C54.0389 712.912 54.1549 712.214 54.1549 711.389C54.1549 710.564 54.0389 709.871 53.8069 709.309C53.5748 708.739 53.2536 708.309 52.843 708.019C52.4324 707.721 51.9505 707.572 51.3972 707.572C50.8617 707.572 50.3842 707.721 49.9648 708.019C49.5453 708.309 49.2195 708.739 48.9875 709.309C48.7555 709.871 48.6394 710.564 48.6394 711.389C48.6394 712.214 48.7555 712.912 48.9875 713.482C49.2195 714.044 49.5453 714.474 49.9648 714.772C50.3842 715.062 50.8617 715.207 51.3972 715.207Z" fill="#B1B1B1"/>
<path d="M21.9559 767.719V767.048L25.8516 763.296C26.2086 762.954 26.4763 762.655 26.6548 762.401C26.8333 762.138 26.9538 761.892 27.0163 761.664C27.0788 761.435 27.11 761.22 27.11 761.019C27.11 760.483 26.9225 760.062 26.5477 759.755C26.1818 759.447 25.6374 759.294 24.9145 759.294C24.3612 759.294 23.8703 759.378 23.4419 759.545C23.0225 759.711 22.661 759.97 22.3575 760.321L21.6748 759.742C22.0407 759.321 22.5092 758.996 23.0805 758.768C23.6517 758.539 24.2897 758.426 24.9948 758.426C25.6284 758.426 26.1773 758.526 26.6414 758.728C27.1055 758.921 27.4625 759.206 27.7124 759.584C27.9712 759.961 28.1006 760.404 28.1006 760.914C28.1006 761.211 28.056 761.506 27.9667 761.796C27.8864 762.085 27.7347 762.392 27.5116 762.717C27.2974 763.033 26.9805 763.393 26.5611 763.796L22.9867 767.245L22.719 766.877H28.529V767.719H21.9559ZM29.5646 767.719V767.048L33.4602 763.296C33.8172 762.954 34.085 762.655 34.2634 762.401C34.442 762.138 34.5625 761.892 34.6249 761.664C34.6874 761.435 34.7186 761.22 34.7186 761.019C34.7186 760.483 34.5312 760.062 34.1563 759.755C33.7905 759.447 33.246 759.294 32.5231 759.294C31.9698 759.294 31.4789 759.378 31.0505 759.545C30.6311 759.711 30.2697 759.97 29.9662 760.321L29.2834 759.742C29.6494 759.321 30.118 758.996 30.6891 758.768C31.2603 758.539 31.8984 758.426 32.6034 758.426C33.2372 758.426 33.786 758.526 34.2501 758.728C34.7142 758.921 35.0712 759.206 35.321 759.584C35.5799 759.961 35.7093 760.404 35.7093 760.914C35.7093 761.211 35.6647 761.506 35.5754 761.796C35.4951 762.085 35.3434 762.392 35.1202 762.717C34.906 763.033 34.5893 763.393 34.1697 763.796L30.5954 767.245L30.3276 766.877H36.1376V767.719H29.5646ZM38.0702 762.177C37.8739 762.177 37.7043 762.107 37.5615 761.967C37.4277 761.826 37.3607 761.655 37.3607 761.453C37.3607 761.243 37.4277 761.072 37.5615 760.94C37.7043 760.808 37.8739 760.742 38.0702 760.742C38.2666 760.742 38.4317 760.808 38.5656 760.94C38.7084 761.072 38.7798 761.243 38.7798 761.453C38.7798 761.655 38.7084 761.826 38.5656 761.967C38.4317 762.107 38.2666 762.177 38.0702 762.177ZM38.0702 767.785C37.8739 767.785 37.7043 767.714 37.5615 767.574C37.4277 767.434 37.3607 767.263 37.3607 767.061C37.3607 766.85 37.4277 766.679 37.5615 766.548C37.7043 766.416 37.8739 766.35 38.0702 766.35C38.2666 766.35 38.4317 766.416 38.5656 766.548C38.7084 766.679 38.7798 766.85 38.7798 767.061C38.7798 767.263 38.7084 767.434 38.5656 767.574C38.4317 767.714 38.2666 767.785 38.0702 767.785ZM43.9192 767.798C43.1963 767.798 42.5537 767.614 41.9915 767.245C41.4292 766.868 40.9874 766.332 40.6662 765.639C40.3449 764.937 40.1842 764.094 40.1842 763.112C40.1842 762.129 40.3449 761.29 40.6662 760.598C40.9874 759.895 41.4292 759.36 41.9915 758.992C42.5537 758.614 43.1963 758.426 43.9192 758.426C44.6421 758.426 45.2847 758.614 45.847 758.992C46.4092 759.36 46.851 759.895 47.1723 760.598C47.5025 761.29 47.6676 762.129 47.6676 763.112C47.6676 764.094 47.5025 764.937 47.1723 765.639C46.851 766.332 46.4092 766.868 45.847 767.245C45.2847 767.614 44.6421 767.798 43.9192 767.798ZM43.9192 766.929C44.4725 766.929 44.9545 766.785 45.365 766.495C45.7756 766.196 46.0969 765.766 46.3289 765.205C46.5609 764.634 46.677 763.936 46.677 763.112C46.677 762.287 46.5609 761.593 46.3289 761.032C46.0969 760.461 45.7756 760.032 45.365 759.742C44.9545 759.443 44.4725 759.294 43.9192 759.294C43.3837 759.294 42.9062 759.443 42.4868 759.742C42.0674 760.032 41.7416 760.461 41.5095 761.032C41.2775 761.593 41.1615 762.287 41.1615 763.112C41.1615 763.936 41.2775 764.634 41.5095 765.205C41.7416 765.766 42.0674 766.196 42.4868 766.495C42.9062 766.785 43.3837 766.929 43.9192 766.929ZM52.783 767.798C52.0601 767.798 51.4175 767.614 50.8552 767.245C50.293 766.868 49.8512 766.332 49.5299 765.639C49.2086 764.937 49.048 764.094 49.048 763.112C49.048 762.129 49.2086 761.29 49.5299 760.598C49.8512 759.895 50.293 759.36 50.8552 758.992C51.4175 758.614 52.0601 758.426 52.783 758.426C53.5059 758.426 54.1485 758.614 54.7107 758.992C55.273 759.36 55.7148 759.895 56.0361 760.598C56.3662 761.29 56.5314 762.129 56.5314 763.112C56.5314 764.094 56.3662 764.937 56.0361 765.639C55.7148 766.332 55.273 766.868 54.7107 767.245C54.1485 767.614 53.5059 767.798 52.783 767.798ZM52.783 766.929C53.3363 766.929 53.8182 766.785 54.2288 766.495C54.6393 766.196 54.9606 765.766 55.1927 765.205C55.4247 764.634 55.5407 763.936 55.5407 763.112C55.5407 762.287 55.4247 761.593 55.1927 761.032C54.9606 760.461 54.6393 760.032 54.2288 759.742C53.8182 759.443 53.3363 759.294 52.783 759.294C52.2475 759.294 51.77 759.443 51.3506 759.742C50.9311 760.032 50.6053 760.461 50.3733 761.032C50.1412 761.593 50.0252 762.287 50.0252 763.112C50.0252 763.936 50.1412 764.634 50.3733 765.205C50.6053 765.766 50.9311 766.196 51.3506 766.495C51.77 766.785 52.2475 766.929 52.783 766.929Z" fill="#B1B1B1"/>
<path d="M66.9355 34.7742H830" stroke="#DCDCDC"/>
<path d="M66.9355 87.0449H830" stroke="#DCDCDC"/>
<path d="M66.9355 139.316H830" stroke="#DCDCDC"/>
<path d="M66.9355 191.587H830" stroke="#DCDCDC"/>
<path d="M66.9355 243.858H830" stroke="#DCDCDC"/>
<path d="M66.9355 296.128H830" stroke="#DCDCDC"/>
<path d="M66.9355 348.4H830" stroke="#DCDCDC"/>
<path d="M66.9355 400.67H830" stroke="#DCDCDC"/>
<path d="M66.9355 452.941H830" stroke="#DCDCDC"/>
<path d="M66.9355 505.213H830" stroke="#DCDCDC"/>
<path d="M66.9355 557.483H830" stroke="#DCDCDC"/>
<path d="M66.9355 609.754H830" stroke="#DCDCDC"/>
<path d="M66.9355 662.025H830" stroke="#DCDCDC"/>
<path d="M66.9355 714.296H830" stroke="#DCDCDC"/>
<path d="M66.9355 766.567H830" stroke="#DCDCDC"/>
<rect x="0.5" y="0.5" width="829" height="788" stroke="black" stroke-opacity="0.2"/>
</svg>
